<?xml version="1.0" standalone="no"?>
<!DOCTYPE svg PUBLIC "-//W3C//DTD SVG 20010904//EN"
 "http://www.w3.org/TR/2001/REC-SVG-20010904/DTD/svg10.dtd">
<svg version="1.0" xmlns="http://www.w3.org/2000/svg"
 width="1500.000000pt" height="1500.000000pt" viewBox="0 0 1500.000000 1500.000000"
 preserveAspectRatio="xMidYMid meet">
<metadata>
Created by potrace 1.14, written by Peter Selinger 2001-2017
</metadata>
<g transform="translate(0.000000,1500.000000) scale(0.100000,-0.100000)"
fill="#000000" stroke="none">
<path d="M5839 10506 c-2 -2 -74 -7 -159 -10 -85 -4 -171 -8 -190 -10 -54 -5
-146 -16 -166 -20 -11 -2 -41 -7 -67 -10 -27 -4 -59 -9 -70 -12 -12 -2 -33 -6
-47 -9 -425 -78 -834 -262 -1145 -516 -81 -66 -224 -205 -277 -269 -20 -25
-53 -65 -73 -90 -48 -57 -171 -245 -217 -330 -92 -171 -171 -369 -232 -578
-34 -118 -89 -372 -101 -467 -3 -27 -8 -63 -10 -80 -37 -241 -42 -843 -9
-1110 3 -22 7 -53 8 -70 4 -35 17 -121 22 -150 3 -11 7 -38 10 -60 2 -22 11
-68 19 -101 8 -34 16 -73 19 -85 23 -111 118 -408 163 -509 152 -339 294 -552
517 -776 134 -134 274 -245 421 -334 301 -183 679 -312 1065 -365 82 -11 114
-14 205 -22 109 -10 600 -9 670 0 28 4 77 9 110 12 63 6 103 12 145 20 14 3
34 7 45 9 153 29 198 38 245 52 30 8 60 16 65 18 6 1 30 8 55 15 145 41 479
194 541 247 8 8 19 14 22 14 4 0 50 31 103 68 341 246 603 593 743 987 18 50
36 101 41 115 25 67 72 267 86 360 3 19 9 59 14 89 6 30 10 57 10 61 0 3 -317
6 -705 6 l-704 0 -36 -113 c-135 -428 -394 -672 -795 -749 -14 -2 -30 -6 -37
-9 -28 -9 -187 -19 -299 -17 -323 4 -597 114 -797 320 -145 149 -282 408 -350
662 -40 149 -70 329 -84 502 -15 182 -7 660 12 767 1 9 6 39 9 66 71 510 268
886 572 1090 186 126 375 181 638 188 420 12 767 -146 970 -442 74 -108 155
-299 172 -409 3 -19 10 -46 15 -59 l9 -23 709 0 c676 0 710 1 706 18 -3 15
-17 118 -20 147 -9 85 -71 343 -108 450 -241 699 -766 1185 -1507 1395 -74 21
-152 41 -174 44 -21 4 -41 8 -45 10 -3 2 -24 7 -46 10 -22 3 -51 8 -65 11 -42
7 -163 24 -225 30 -22 2 -116 7 -210 10 -93 4 -173 9 -176 11 -3 2 -8 2 -10 0z"/>
<path d="M12137 10504 c-1 -1 -69 -5 -152 -8 -82 -4 -166 -9 -185 -11 -19 -3
-55 -7 -80 -10 -25 -3 -54 -7 -65 -9 -11 -2 -42 -7 -70 -10 -137 -18 -443 -95
-522 -131 -17 -8 -35 -15 -40 -15 -15 0 -163 -65 -263 -115 -523 -263 -928
-699 -1163 -1255 -85 -201 -157 -440 -193 -640 -26 -146 -34 -194 -40 -245 -3
-33 -8 -69 -10 -80 -25 -130 -25 -800 1 -956 2 -13 6 -46 10 -74 64 -530 239
-1003 515 -1395 102 -144 290 -343 430 -455 275 -219 583 -373 950 -474 85
-23 300 -67 375 -76 28 -4 61 -8 75 -10 108 -15 232 -20 460 -20 266 0 381 7
528 31 17 3 47 7 65 9 18 2 65 11 104 19 40 9 86 18 101 21 16 2 69 16 118 31
49 14 96 27 104 29 73 17 303 112 430 178 585 304 1003 820 1214 1498 32 105
62 215 72 264 2 11 8 43 14 70 5 28 12 64 15 80 3 17 7 41 10 55 5 24 8 47 21
150 3 25 7 56 10 70 26 153 25 771 -2 975 -18 137 -37 260 -50 325 -9 41 -17
82 -19 90 -25 125 -106 376 -172 530 -188 444 -469 797 -860 1078 -40 29 -75
52 -79 52 -3 0 -20 10 -37 22 -80 57 -282 154 -453 218 -117 44 -340 108 -429
123 -16 3 -68 12 -115 21 -78 14 -124 20 -235 31 -60 6 -384 22 -388 19z m183
-1209 c88 -11 116 -16 175 -32 74 -20 201 -75 269 -116 125 -76 269 -212 342
-325 20 -31 44 -69 54 -83 27 -38 76 -139 111 -226 78 -195 130 -427 155 -693
15 -151 7 -638 -10 -738 -2 -9 -7 -39 -10 -67 -59 -424 -211 -773 -435 -995
-147 -146 -384 -268 -572 -294 -19 -3 -52 -8 -74 -11 -97 -14 -248 -11 -395
10 -51 7 -134 32 -225 67 -388 152 -658 541 -760 1095 -3 16 -7 37 -9 48 -3
18 -12 75 -21 145 -26 194 -26 703 0 850 8 45 14 84 19 127 3 23 11 64 17 90
6 26 13 59 15 73 3 14 14 57 25 95 125 429 340 718 644 870 201 100 455 141
685 110z"/>
<path d="M750 6295 c-290 -48 -530 -222 -655 -478 -67 -138 -89 -234 -89 -397
0 -74 2 -151 6 -170 66 -382 343 -663 728 -737 63 -13 308 -11 370 3 338 72
577 279 679 590 34 103 45 173 45 299 0 98 -7 172 -23 223 -5 18 -10 36 -10
40 -4 41 -85 222 -103 230 -5 2 -8 8 -8 13 0 21 -108 142 -172 194 -126 100
-263 161 -425 189 -94 17 -246 17 -343 1z"/>
</g>
</svg>
