<?xml version="1.0" standalone="no"?>
<!DOCTYPE svg PUBLIC "-//W3C//DTD SVG 1.1//EN" "http://www.w3.org/Graphics/SVG/1.1/DTD/svg11.dtd" >
<svg xmlns="http://www.w3.org/2000/svg" xmlns:xlink="http://www.w3.org/1999/xlink" version="1.1">
<metadata>
Created by FontForge 20170731 at Tue Jul 10 03:21:13 2018
 By Aleksey,,,
Copyright by Anita Juergeleit | 2018 | All rights reserved.
</metadata>
<defs>
<font id="UmbaSans-Bold" horiz-adv-x="347" >
  <font-face 
    font-family="Umba Sans"
    font-weight="700"
    font-stretch="semi-condensed"
    units-per-em="1000"
    panose-1="0 0 10 0 0 0 0 0 0 0"
    ascent="735"
    descent="-265"
    x-height="498"
    cap-height="729"
    bbox="-669 -379 1235 1251"
    underline-thickness="127"
    underline-position="-315"
    unicode-range="U+0020-FB04"
  />
<missing-glyph horiz-adv-x="288" 
 />
    <glyph glyph-name="uni2116" unicode="Nr&#x2e;" horiz-adv-x="1113" 
d="M564 276v453q84 3 157 13v-742q-45 0 -95 -11l-365 437v-426h-157v729q59 4 99 13zM754 343q0 76 43 117t119 41q71 0 120 -45.5t49 -112.5t-48.5 -112.5t-119.5 -45.5q-75 0 -119 42t-44 116zM972 343q0 20 -16.5 32.5t-40.5 12.5q-26 0 -35.5 -9t-12.5 -36
q0 -45 49 -45q24 0 40 13t16 32zM1084 152v-114h-330v114h330z" />
    <glyph glyph-name="ff" unicode="ff" horiz-adv-x="643" 
d="M400 579q0 163 150 163q61 0 115 -27q-19 -59 -29 -118q-18 8 -40 8q-49 0 -49 -51v-57h94v-133l-94 3v-367h-147v367h-179v-367h-147v367l-57 -3v133h57v82q0 163 150 163q61 0 115 -27q-18 -61 -29 -118q-18 8 -40 8q-49 0 -49 -51v-57h179v82z" />
    <glyph glyph-name="fi" unicode="fi" horiz-adv-x="627" 
d="M396 0v366l-175 1v-367h-147v367l-57 -3v133h57v81q0 164 150 164q61 0 115 -27q-19 -59 -29 -118q-18 8 -40 8q-49 0 -49 -51v-57h330l1 -497h-156zM478 715q37 0 64 -26.5t27 -63.5t-27 -63t-64 -26q-38 0 -65 26t-27 64t26.5 63.5t65.5 25.5z" />
    <glyph glyph-name="fl" unicode="fl" horiz-adv-x="588" 
d="M78 579q0 80 39 121.5t111 41.5q17 0 86.5 -10t99.5 -10q71 0 102 14v-571q0 -33 24 -33q16 0 30 7q11 -57 29 -118q-53 -27 -114 -27q-116 0 -116 163l1 441q-38 7 -93 7q-52 0 -52 -50v-57h86v-131l-86 1v-368h-147v368l-57 -3v133h57v81z" />
    <glyph glyph-name="ffi" unicode="ffi" horiz-adv-x="917" 
d="M393 578q0 164 150 164q62 0 116 -27q-18 -56 -30 -118q-16 8 -40 8q-49 0 -49 -51v-57h323l1 -497h-156v366l-168 1v-367h-147v367h-172v-367h-147v367l-57 -3v133h57v81q0 164 150 164q61 0 115 -27q-19 -59 -29 -118q-18 8 -40 8q-49 0 -49 -51v-57h172v81zM789 715
q37 0 64 -26.5t27 -63.5t-27 -63t-64 -26q-38 0 -65 26t-27 64t26.5 63.5t65.5 25.5z" />
    <glyph glyph-name="ffl" unicode="ffl" horiz-adv-x="896" 
d="M360 0v367h-139v-367h-147v367l-57 -3v133h57v81q0 164 150 164q61 0 115 -27q-18 -56 -30 -118q-16 8 -39 8q-49 0 -49 -51v-57h139v81q0 81 39 122.5t111 41.5q17 0 87 -10t100 -10q69 0 102 13v-570q0 -33 24 -33q16 0 30 7q11 -57 29 -118q-52 -27 -114 -27
q-116 0 -116 163l1 441q-38 7 -94 7q-52 0 -52 -51v-57h87v-131l-87 1v-367h-147z" />
    <glyph glyph-name=".notdef" horiz-adv-x="288" 
 />
    <glyph glyph-name=".null" horiz-adv-x="0" 
 />
    <glyph glyph-name="nonmarkingreturn" horiz-adv-x="333" 
 />
    <glyph glyph-name="space" unicode=" " horiz-adv-x="230" 
 />
    <glyph glyph-name="exclam" unicode="!" horiz-adv-x="258" 
d="M53 238v491h153v-491h-153zM129 174q37 0 63 -25.5t26 -61.5t-26 -61.5t-63 -25.5t-63 25.5t-26 61.5t26 61.5t63 25.5z" />
    <glyph glyph-name="quotedbl" unicode="&#x22;" horiz-adv-x="380" 
d="M175 753l-9 -226h-149v226h158zM363 753l-9 -226h-149v226h158z" />
    <glyph glyph-name="numbersign" unicode="#" horiz-adv-x="749" 
d="M278 148l-32 -142h-140l32 142h-119l40 150h114l21 93h-104l41 150h97l31 133h140l-31 -133h105l30 133h140l-30 -133h118l-42 -150h-111l-21 -93h102l-41 -150h-95l-33 -142h-140l33 142h-105zM417 298l21 93h-104l-21 -93h104z" />
    <glyph glyph-name="dollar" unicode="$" horiz-adv-x="677" 
d="M290 203h96v-61q81 16 84 62q0 34 -39 52.5t-143 40.5q-54 12 -92.5 25.5t-79.5 38t-62.5 64.5t-21.5 95q4 107 73.5 161.5t182.5 61.5v81h96v-82q152 -16 231 -67l-67 -144q-80 48 -164 63v-50h-96v52q-95 -12 -95 -69q0 -34 27 -48t116 -34q9 -2 14 -3t13.5 -3t15.5 -4
q126 -29 188.5 -78.5t62.5 -148.5q-2 -50 -22.5 -89.5t-55.5 -64t-76 -39t-90 -20.5v-72h-96v67q-150 3 -283 71l65 144q85 -55 218 -68v66z" />
    <glyph glyph-name="percent" unicode="%" horiz-adv-x="846" 
d="M176 735q73 0 114.5 -51.5t41.5 -140.5q0 -91 -41.5 -140t-117.5 -49q-74 0 -114.5 52t-40.5 138q0 89 42.5 140t115.5 51zM233 -13q-48 13 -109 13l484 735q48 -13 109 -13zM175 453q29 0 41.5 19t12.5 66q0 98 -52 98q-28 0 -40 -20.5t-16 -71.5q0 -49 12.5 -70
t41.5 -21zM653 375q73 0 114.5 -51t41.5 -141t-41.5 -139t-117.5 -49q-74 0 -114.5 51.5t-40.5 137.5q0 89 42.5 140t115.5 51zM652 94q29 0 41.5 19t12.5 66q0 97 -52 97q-28 0 -40 -20t-16 -71q0 -49 12.5 -70t41.5 -21z" />
    <glyph glyph-name="ampersand" unicode="&#x26;" horiz-adv-x="761" 
d="M562 300l74 69l106 -89l-77 -77l90 -89l-91 -88l-317 311q-70 -21 -102 -51t-32 -72q0 -43 33 -67.5t75 -24.5q67 0 119 48l95 -94q-40 -45 -105 -68t-126 -23q-113 0 -182 58t-69 158q0 52 18 93.5t54.5 72.5t75.5 52t95 43q45 17 67 36t22 47q0 21 -16.5 37.5
t-43.5 16.5q-33 0 -63 -27t-37 -73l-97 95q15 61 66.5 106t129.5 45q91 0 149 -54.5t58 -136.5q0 -93 -70 -147z" />
    <glyph glyph-name="quotesingle" unicode="'" horiz-adv-x="218" 
d="M191 753l-9 -226h-149v226h158z" />
    <glyph glyph-name="parenleft" unicode="(" horiz-adv-x="384" 
d="M319 789q-57 -158 -78.5 -274.5t-21.5 -228.5q0 -223 99 -499h-162q-90 239 -90 499q0 267 90 503h163z" />
    <glyph glyph-name="parenright" unicode=")" horiz-adv-x="384" 
d="M229 789q90 -236 90 -502q0 -260 -90 -499h-162q99 275 99 498q0 113 -21.5 229t-78.5 274h163z" />
    <glyph glyph-name="asterisk" unicode="*" horiz-adv-x="465" 
d="M361 719l-61 -82l105 12v-98l-100 7l56 -78l-83 -53l-49 99l-49 -99l-82 53l58 80l-94 -9v98l94 -7l-58 77l82 53l49 -99l49 99z" />
    <glyph glyph-name="plus" unicode="+" horiz-adv-x="636" 
d="M390 13h-148v172h-174v141h174v165h148v-165h178v-141h-178v-172z" />
    <glyph glyph-name="comma" unicode="," horiz-adv-x="252" 
d="M43 -73q19 18 36 43t18 36q-29 1 -54.5 26t-25.5 66q0 43 29 71.5t73 28.5q46 0 77.5 -31.5t31.5 -78.5q0 -126 -143 -221z" />
    <glyph glyph-name="hyphen" unicode="-" horiz-adv-x="431" 
d="M375 397v-141h-319v141h319z" />
    <glyph glyph-name="period" unicode="." horiz-adv-x="252" 
d="M119 205q43 0 73.5 -30t30.5 -73q0 -42 -30.5 -72t-73.5 -30t-74 30t-31 72q0 43 30.5 73t74.5 30z" />
    <glyph glyph-name="slash" unicode="/" horiz-adv-x="376" 
d="M109 -13q-78 13 -151 13l292 735q72 -13 159 -13z" />
    <glyph glyph-name="zero" unicode="0" horiz-adv-x="682" 
d="M35 386q0 166 82.5 261t223.5 95q142 0 223.5 -94.5t81.5 -262.5v-39q0 -75 -15.5 -137t-50 -112.5t-95.5 -79t-145 -28.5q-83 0 -144 28.5t-95 79.5t-50 112t-16 134v43zM195 365q0 -233 149 -233q42 0 71 17t44 50.5t21 73t6 92.5q0 234 -142 234q-42 0 -72 -19.5
t-46 -54t-23.5 -74t-7.5 -86.5z" />
    <glyph glyph-name="one" unicode="1" horiz-adv-x="522" 
d="M29 483q194 82 312 246h107v-729h-153v495q-86 -93 -225 -128z" />
    <glyph glyph-name="two" unicode="2" horiz-adv-x="597" 
d="M20 100q26 20 94.5 70t106.5 80.5t86 75t71 85.5t23 79q0 51 -34.5 80.5t-90.5 29.5q-94 0 -182 -76l-71 105q43 53 114.5 83.5t145.5 30.5q126 0 202 -69t76 -192q0 -176 -257 -332h254v-150h-487z" />
    <glyph glyph-name="three" unicode="3" horiz-adv-x="626" 
d="M247 426q18 1 54 5q109 9 109 85q0 37 -31.5 60.5t-81.5 23.5q-105 0 -171 -66l-105 93q49 58 132.5 87t159.5 29q118 0 190.5 -53.5t72.5 -155.5q0 -85 -74 -145q92 -54 92 -166q0 -102 -86.5 -168.5t-213.5 -66.5q-80 0 -141 16t-124 64l78 112q46 -23 82.5 -34
t53 -12.5t47.5 -1.5q62 0 103 27t41 69q0 39 -31 63.5t-86 28.5q-23 1 -69 5z" />
    <glyph glyph-name="four" unicode="4" horiz-adv-x="631" 
d="M528 729v-468h94l4 -122h-98v-139h-141v139h-332l-41 91l399 498zM210 262l177 -1v228z" />
    <glyph glyph-name="five" unicode="5" horiz-adv-x="624" 
d="M229 470q41 15 87 15q119 0 193.5 -64t74.5 -177q0 -119 -85.5 -187.5t-225.5 -68.5t-235 67l57 121q91 -44 192 -44q137 0 137 113q0 53 -36 79.5t-98 26.5q-74 0 -150 -33l-64 53v358h455v-146h-302v-113z" />
    <glyph glyph-name="six" unicode="6" horiz-adv-x="631" 
d="M504 608q-88 -12 -147 -41q-133 -63 -160 -195q34 51 74 77.5t105 26.5q97 0 159 -66t62 -170q0 -112 -78.5 -181.5t-199.5 -69.5q-128 0 -206 77.5t-78 212.5q0 141 75.5 249t200.5 163q86 39 187 47zM323 352q-46 0 -84 -27t-38 -68q0 -63 33 -91.5t84 -28.5
q54 0 86.5 28t32.5 75q0 48 -32.5 80t-81.5 32z" />
    <glyph glyph-name="seven" unicode="7" horiz-adv-x="586" 
d="M527 729l61 -59q-193 -287 -286 -678q-76 14 -162 14q81 332 249 572h-351v151h489z" />
    <glyph glyph-name="eight" unicode="8" horiz-adv-x="646" 
d="M141 401q-83 38 -83 134q0 99 78 153.5t190 54.5q107 0 184.5 -54.5t77.5 -153.5q0 -96 -83 -134q55 -25 81 -75.5t26 -110.5q0 -97 -76.5 -161.5t-212.5 -64.5t-212.5 64.5t-76.5 161.5q0 61 26 111t81 75zM341 438q38 0 62.5 23.5t24.5 66.5q0 40 -31.5 60t-73.5 20
t-73.5 -20t-31.5 -60q0 -44 26 -67t66 -23h31zM307 335q-113 0 -113 -109q0 -42 36.5 -69.5t97.5 -27.5q60 0 92 27t32 70q0 109 -115 109h-30z" />
    <glyph glyph-name="nine" unicode="9" horiz-adv-x="631" 
d="M127 124q86 12 146 41q133 65 161 195q-35 -51 -74.5 -77.5t-104.5 -26.5q-97 0 -159.5 66t-62.5 170q0 112 78.5 181.5t199.5 69.5q128 0 206 -77.5t78 -212.5q0 -141 -75.5 -249t-199.5 -163q-88 -39 -187 -47zM307 380q46 0 84 27t38 68q0 63 -33 91.5t-84 28.5
q-54 0 -86.5 -28t-32.5 -75q0 -48 32.5 -80t81.5 -32z" />
    <glyph glyph-name="colon" unicode=":" horiz-adv-x="252" 
d="M119 502q43 0 73.5 -30t30.5 -73q0 -42 -30.5 -72t-73.5 -30t-74 30t-31 72q0 43 30.5 73t74.5 30zM119 205q43 0 73.5 -30t30.5 -73q0 -42 -30.5 -72t-73.5 -30t-74 30t-31 72q0 43 30.5 73t74.5 30z" />
    <glyph glyph-name="semicolon" unicode=";" horiz-adv-x="252" 
d="M119 502q43 0 73.5 -30t30.5 -73q0 -42 -30.5 -72t-73.5 -30t-74 30t-31 72q0 43 30.5 73t74.5 30zM43 -73q19 18 36 43t18 36q-29 1 -54.5 26t-25.5 66q0 43 29 71.5t73 28.5q46 0 77.5 -31.5t31.5 -78.5q0 -126 -143 -221z" />
    <glyph glyph-name="less" unicode="&#x3c;" horiz-adv-x="561" 
d="M514 616q2 -83 17 -156l-241 -117l241 -117q-15 -73 -17 -156l-502 273z" />
    <glyph glyph-name="equal" unicode="=" horiz-adv-x="636" 
d="M77 427h482v-141h-482v141zM77 216h482v-141h-482v141z" />
    <glyph glyph-name="greater" unicode="&#x3e;" horiz-adv-x="561" 
d="M553 343l-503 -273q0 73 -16 156l241 117l-241 117q16 83 16 156z" />
    <glyph glyph-name="question" unicode="?" horiz-adv-x="498" 
d="M407 277q-76 -65 -159 -65q-71 0 -114.5 34t-43.5 107q0 53 35 89.5t92 68.5q68 38 79 52q9 11 9 23q0 17 -14 28t-35 11q-26 0 -66 -17.5t-66 -40.5l-84 110q97 79 231 79q79 0 133 -46.5t54 -110.5q0 -34 -9 -59t-33.5 -47.5t-39 -32t-53.5 -32.5q-3 -2 -5 -3t-5 -3
t-5 -3q-8 -5 -20 -12t-17.5 -10t-13.5 -8.5t-11.5 -8.5t-7.5 -7t-5.5 -8t-1.5 -8q0 -28 34 -28q35 0 85 37zM247 174q37 0 63 -25.5t26 -61.5t-26 -61.5t-63 -25.5t-63 25.5t-26 61.5t26 61.5t63 25.5z" />
    <glyph glyph-name="at" unicode="@" horiz-adv-x="920" 
d="M736 -29q-109 -61 -280 -61q-117 0 -208.5 38.5t-148.5 122.5t-57 203q0 192 134 317t329 125q105 0 191 -33.5t142 -108.5t56 -181q0 -110 -61 -191.5t-167 -81.5q-37 0 -66 14.5t-34 47.5q-52 -62 -155 -62q-74 0 -117.5 38.5t-43.5 109.5q0 94 62 163.5t156 69.5
q83 0 122 -39l12 37h94q-3 -12 -16.5 -64.5t-25 -99.5t-15.5 -66q0 -2 -0.5 -6t-0.5 -6q0 -24 32 -24q50 0 75.5 47.5t25.5 102.5q0 56 -23 99t-62.5 68t-86.5 37t-101 12q-142 0 -233.5 -89.5t-91.5 -230.5q0 -68 24.5 -118t68 -78.5t97.5 -42t119 -13.5q134 0 226 52z
M531 320q0 32 -16 50t-46 18q-41 0 -66.5 -32.5t-25.5 -75.5q0 -29 17 -44.5t47 -15.5q40 0 65 29.5t25 70.5z" />
    <glyph glyph-name="A" unicode="A" horiz-adv-x="729" 
d="M226 150l-63 -155q-86 10 -163 11l314 723h103l312 -723q-77 0 -163 -11l-63 155h-277zM364 489l-85 -207h170z" />
    <glyph glyph-name="B" unicode="B" horiz-adv-x="681" 
d="M60 730q174 11 282 11q274 0 274 -199q0 -103 -96 -152q60 -16 93.5 -63.5t33.5 -114.5q0 -114 -77.5 -168.5t-201.5 -54.5q-120 0 -308 12v729zM337 438q53 0 88 19.5t35 60.5q0 77 -132 77q-50 0 -108 -4v-153h117zM220 141q53 -8 145 -8q58 0 92 23t34 69
q0 45 -39.5 67t-98.5 22h-133v-173z" />
    <glyph glyph-name="C" unicode="C" horiz-adv-x="721" 
d="M617 520q-36 34 -86.5 54.5t-98.5 20.5q-105 0 -165.5 -60.5t-60.5 -169.5q0 -107 60 -168t167 -61q47 0 97.5 20t86.5 54l78 -127q-104 -94 -284 -94q-156 0 -262 102t-106 276q0 169 103.5 272t264.5 103q180 0 284 -94z" />
    <glyph glyph-name="D" unicode="D" horiz-adv-x="762" 
d="M60 728q138 14 259 14q182 0 291 -96.5t109 -275.5q0 -169 -104 -275t-277 -106q-115 0 -278 14v725zM213 145q61 -6 127 -6q99 0 156 62.5t57 170.5q0 101 -57.5 160.5t-157.5 59.5q-55 0 -125 -9v-438z" />
    <glyph glyph-name="E" unicode="E" horiz-adv-x="627" 
d="M564 578h-351v-133h265v-144h-265v-150h370v-151h-523v729h504v-151z" />
    <glyph glyph-name="F" unicode="F" horiz-adv-x="588" 
d="M564 578h-351v-147h265v-144h-265v-287h-153v729h504v-151z" />
    <glyph glyph-name="G" unicode="G" horiz-adv-x="751" 
d="M699 76q-100 -87 -285 -87q-169 0 -270 104t-101 272q0 169 105.5 273t273.5 104q167 0 279 -86l-84 -128q-86 64 -195 64q-100 0 -158 -60t-58 -167q0 -108 53 -170.5t153 -62.5q105 0 141 43v108h-192v129h338v-336z" />
    <glyph glyph-name="H" unicode="H" horiz-adv-x="720" 
d="M507 451v278h153v-729h-153v307h-294v-307h-153v729h153v-278h294z" />
    <glyph glyph-name="I" unicode="I" horiz-adv-x="273" 
d="M213 0h-153v729h153v-729z" />
    <glyph glyph-name="J" unicode="J" horiz-adv-x="283" 
d="M224 166q0 -133 -45 -197.5t-167 -119.5q-29 61 -56 109q70 45 92.5 79.5t22.5 101.5v590h153v-563z" />
    <glyph glyph-name="K" unicode="K" horiz-adv-x="711" 
d="M710 6q-79 0 -169 -11l-229 331l-99 -109v-217h-153v729h153v-322l282 329q95 -16 176 -13l-258 -285z" />
    <glyph glyph-name="L" unicode="L" horiz-adv-x="581" 
d="M539 151v-151h-479v729h153v-578h326z" />
    <glyph glyph-name="M" unicode="M" horiz-adv-x="859" 
d="M643 728l104 1q58 -521 82 -723q-103 -6 -155 -11q-30 254 -47 437l-153 -245l-90 -1l-152 248q-33 -327 -46 -439q-26 2 -62 4.5t-57.5 4t-36.5 2.5q35 295 81 723l103 -1l216 -355z" />
    <glyph glyph-name="N" unicode="N" horiz-adv-x="736" 
d="M520 276v452h156v-722q-45 0 -95 -11l-364 431v-426h-157v723q59 4 99 13z" />
    <glyph glyph-name="O" unicode="O" horiz-adv-x="858" 
d="M44 365q0 167 107.5 272t278.5 105q170 0 277 -105.5t107 -271.5q0 -167 -107 -271.5t-278 -104.5q-170 0 -277.5 105t-107.5 271zM207 365q0 -104 59.5 -165t162.5 -61t162.5 61t59.5 165t-60 165.5t-161 61.5q-103 0 -163 -61.5t-60 -165.5z" />
    <glyph glyph-name="P" unicode="P" horiz-adv-x="684" 
d="M213 0h-153v728q174 14 246 14q68 0 127.5 -17t109.5 -51t79 -93t29 -136q0 -140 -88 -220.5t-219 -80.5q-63 0 -131 5v-149zM213 300q61 -6 130 -6q64 0 104.5 36.5t40.5 114.5q0 68 -43 107t-119 39q-50 0 -113 -3v-288z" />
    <glyph glyph-name="Q" unicode="Q" horiz-adv-x="863" 
d="M895 18q-60 -15 -154 -76l-123 96q-85 -49 -192 -49q-169 0 -276 105t-107 271q0 167 107.5 272t278.5 105t277.5 -101t106.5 -267q0 -156 -88 -263zM423 132q110 0 168.5 62t58.5 171q0 104 -60 165t-161 61q-103 0 -163 -61.5t-60 -165.5q0 -106 57.5 -169t159.5 -63z
" />
    <glyph glyph-name="R" unicode="R" horiz-adv-x="699" 
d="M672 7q-82 -2 -155 -12l-102 192q-47 -9 -131 -9q-40 0 -71 2v-180h-153v719q200 23 261 23q63 0 120.5 -17t105 -50.5t75.5 -90.5t28 -129q-5 -141 -104 -213zM213 325q75 -5 120 -5q63 0 108.5 33t45.5 102q0 60 -46.5 98t-122.5 38q-40 0 -105 -5v-261z" />
    <glyph glyph-name="S" unicode="S" horiz-adv-x="672" 
d="M84 204q40 -26 115 -47.5t133 -21.5q147 0 147 66q0 34 -36 51t-145 45q-38 10 -65.5 18.5t-66 26.5t-63 39t-42.5 55t-18 75q0 112 76 171.5t215 59.5q76 0 163.5 -21t129.5 -49l-68 -144q-111 68 -223 68q-130 0 -130 -67q0 -36 34 -51.5t152 -44.5q63 -16 104 -32
t77 -42t52.5 -64.5t16.5 -92.5q0 -101 -84.5 -157t-237.5 -56q-164 0 -302 71z" />
    <glyph glyph-name="T" unicode="T" horiz-adv-x="652" 
d="M406 0h-160v578h-221v151h603v-151h-222v-578z" />
    <glyph glyph-name="U" unicode="U" horiz-adv-x="872" 
d="M779 736q51 -187 51 -336q0 -190 -101 -300.5t-290 -110.5q-194 0 -295.5 109t-101.5 305q0 152 52 333q84 -14 163 -14q-52 -184 -52 -319q0 -136 57 -199.5t177 -63.5q119 0 173.5 66.5t54.5 200.5q0 123 -53 315q83 0 165 14z" />
    <glyph glyph-name="V" unicode="V" horiz-adv-x="759" 
d="M591 736q81 -14 168 -14l-329 -722h-100l-330 722q92 3 170 14l210 -492z" />
    <glyph glyph-name="W" unicode="W" horiz-adv-x="1024" 
d="M581 722q51 0 171 14l-165 -334l79 -177l190 511q82 -14 171 -14l-306 -722h-100l-114 252l-104 -252h-100l-306 722q89 0 170 14l190 -511l72 184l-160 327q84 -14 168 -14l73 -176z" />
    <glyph glyph-name="X" unicode="X" horiz-adv-x="696" 
d="M16 722q100 0 181 14l151 -238l151 238q85 -14 183 -14l-240 -348l254 -368q-90 0 -184 -11l-164 251l-163 -251q-97 11 -185 11l255 373z" />
    <glyph glyph-name="Y" unicode="Y" horiz-adv-x="677" 
d="M514 736q76 -12 165 -14l-264 -435v-287h-153v286l-265 436q81 -1 168 14l173 -289z" />
    <glyph glyph-name="Z" unicode="Z" horiz-adv-x="631" 
d="M241 151h359v-152l-546 1l-42 104l376 474h-337v151h518l44 -104z" />
    <glyph glyph-name="bracketleft" unicode="[" horiz-adv-x="350" 
d="M324 640h-146v-703h146v-150h-299v1003h299v-150z" />
    <glyph glyph-name="backslash" unicode="\" horiz-adv-x="436" 
d="M-30 722q74 3 151 13l295 -735q-76 0 -147 -13z" />
    <glyph glyph-name="bracketright" unicode="]" horiz-adv-x="350" 
d="M171 640h-146v150h299v-1003h-299v150h146v703z" />
    <glyph glyph-name="asciicircum" unicode="^" horiz-adv-x="589" 
d="M30 297l216 391h97l216 -391h-169l-96 169l-93 -169h-171z" />
    <glyph glyph-name="underscore" unicode="_" horiz-adv-x="558" 
d="M541 0v-127h-524v127h524z" />
    <glyph glyph-name="grave" unicode="`" horiz-adv-x="412" 
d="M331 560q-75 17 -149.5 48t-119.5 58l64 95q112 -73 236 -122z" />
    <glyph glyph-name="a" unicode="a" horiz-adv-x="561" 
d="M346 323q0 19 -18 35.5t-62 16.5q-42 0 -68.5 -11t-54.5 -36l-97 82q35 38 93 64.5t132 26.5q99 0 160.5 -43t61.5 -134v-121q0 -104 46 -157l-113 -59q-14 15 -23 41t-9 43q-21 -35 -69 -55.5t-109 -20.5q-98 0 -139 39.5t-41 112.5q0 79 69 120t197 38l44 -1v19z
M299 199q-50 2 -82 -10t-32 -35t15 -32t45 -9q52 0 78.5 25t24.5 59z" />
    <glyph glyph-name="b" unicode="b" horiz-adv-x="639" 
d="M57 722q63 1 144 13v-283q49 49 152 49q115 0 180.5 -69t65.5 -186q0 -114 -69 -183t-179 -69q-102 0 -150 61v-63q-79 13 -144 14v716zM449 246q0 60 -35 92t-89 32q-56 0 -89 -36q-30 -35 -30 -90q0 -47 25 -78q35 -41 94 -41q56 0 90 30.5t34 90.5z" />
    <glyph glyph-name="c" unicode="c" horiz-adv-x="544" 
d="M392 326q-31 44 -88 44q-52 0 -82.5 -34.5t-30.5 -90.5q0 -57 29.5 -89t81.5 -32q66 0 96 51q54 -29 126 -53q-63 -128 -236 -128q-109 0 -178.5 68.5t-69.5 176.5q0 118 70.5 190t187.5 72q77 0 129.5 -29.5t91.5 -92.5q-72 -24 -127 -53z" />
    <glyph glyph-name="d" unicode="d" horiz-adv-x="639" 
d="M582 6q-64 -3 -144 -14v63q-48 -61 -150 -61q-110 0 -179 69t-69 183q0 116 65.5 185.5t179.5 69.5q104 0 153 -49v270q73 0 144 13v-729zM314 370q-54 0 -89 -32t-35 -92t34 -90.5t90 -30.5q59 0 94 41q25 31 25 78q0 55 -30 90q-33 36 -89 36z" />
    <glyph glyph-name="e" unicode="e" horiz-adv-x="578" 
d="M187 199q7 -40 43 -59.5t89 -19.5q80 0 128 36q34 -54 75 -94q-92 -68 -216 -68q-120 0 -193 71.5t-73 183.5q0 109 71.5 180.5t183.5 71.5q108 0 177 -68.5t69 -178.5q0 -26 -7 -55h-347zM402 300q-3 28 -31 50.5t-77 22.5q-54 0 -82 -24.5t-27 -48.5h217z" />
    <glyph glyph-name="f" unicode="f" horiz-adv-x="317" 
d="M74 579q0 163 150 163q61 0 115 -27q-19 -59 -29 -118q-18 8 -40 8q-49 0 -49 -50v-58h94v-133l-94 3v-367h-147v367l-57 -3v133h57v82z" />
    <glyph glyph-name="g" unicode="g" horiz-adv-x="638" 
d="M131 -88q76 -33 109.5 -41t85.5 -8q66 0 90 38t24 107v47q-48 -61 -148 -61q-106 0 -178 69t-72 183t71 184.5t179 70.5q101 0 148 -58v62q76 -13 141 -14v-475q-1 -145 -65.5 -216.5t-201.5 -71.5q-111 0 -247 76zM432 244q0 54 -29 88q-32 35 -86 35q-53 0 -87 -31.5
t-34 -89.5q0 -59 33 -88.5t87 -29.5q59 0 91 40q25 31 25 76z" />
    <glyph glyph-name="h" unicode="h" horiz-adv-x="614" 
d="M57 721q77 5 144 14v-281q56 47 143 47q110 0 165.5 -67.5t55.5 -178.5q0 -99 -14 -263q-79 11 -149 14q9 169 9 227q0 64 -27 97t-78 33q-56 0 -80.5 -39t-24.5 -117v-207h-144v721z" />
    <glyph glyph-name="i" unicode="i" horiz-adv-x="261" 
d="M133 715q38 0 64.5 -26t26.5 -63t-27 -63.5t-64 -26.5q-39 0 -65.5 25t-26.5 64q0 40 26 65t66 25zM203 497v-497h-147v497h147z" />
    <glyph glyph-name="j" unicode="j" horiz-adv-x="261" 
d="M132 715q38 0 65 -26t27 -63t-27 -63.5t-65 -26.5t-64.5 25t-26.5 64q0 40 26 65t65 25zM205 81q0 -127 -48.5 -210t-157.5 -143q-23 57 -54 110q64 43 88.5 101.5t24.5 161.5v396h147v-416z" />
    <glyph glyph-name="k" unicode="k" horiz-adv-x="597" 
d="M201 0h-144v722q75 2 144 13v-407l185 177q88 -13 179 -14l-188 -168l212 -317q-74 -3 -152 -14l-157 243l-79 -71v-164z" />
    <glyph glyph-name="l" unicode="l" horiz-adv-x="276" 
d="M54 722q61 2 147 13v-571q0 -32 21 -32q11 0 21 5q10 -59 29 -118q-47 -25 -102 -25q-116 0 -116 163v565z" />
    <glyph glyph-name="m" unicode="m" horiz-adv-x="961" 
d="M204 453q61 48 147 48q98 0 157 -66q79 66 175 66q106 0 167.5 -68.5t61.5 -181.5q0 -99 -18 -259q-60 9 -149 14q13 179 13 231q0 68 -22.5 97t-76.5 29q-28 0 -56 -13t-40 -36q-1 -11 -1.5 -33.5t-0.5 -29.5q-4 -168 -12 -259q-77 11 -146 14q9 111 9 227
q0 130 -101 130q-107 0 -107 -132v-231h-147v491q70 1 147 14v-52z" />
    <glyph glyph-name="n" unicode="n" horiz-adv-x="617" 
d="M57 491q82 5 147 14v-51q56 47 143 47q110 0 165.5 -67.5t55.5 -178.5q0 -99 -14 -263q-79 11 -149 14q9 169 9 227q0 64 -27 97t-78 33q-56 0 -80.5 -39t-24.5 -117v-207h-147v491z" />
    <glyph glyph-name="o" unicode="o" horiz-adv-x="617" 
d="M40 248q0 111 78 182t190 71q116 0 192.5 -72t76.5 -181q0 -110 -75.5 -182t-190.5 -72t-193 70.5t-78 183.5zM423 248q0 53 -31 83.5t-83 30.5q-51 0 -83 -32t-32 -83q0 -52 31.5 -83t84.5 -31t83 29.5t30 85.5z" />
    <glyph glyph-name="p" unicode="p" horiz-adv-x="638" 
d="M57 491q80 5 143 14v-53q49 49 152 49q115 0 180.5 -69t65.5 -186q0 -114 -69 -183t-179 -69q-102 0 -150 61v-291h-143v727zM324 125q56 0 90 30.5t34 90.5t-35 92t-89 32q-56 0 -89 -36q-30 -35 -30 -90q0 -47 25 -78q35 -41 94 -41z" />
    <glyph glyph-name="q" unicode="q" horiz-adv-x="638" 
d="M581 -236h-143v291q-48 -61 -150 -61q-110 0 -179 69t-69 183q0 117 65.5 186t180.5 69q103 0 152 -49v53q60 -9 143 -14v-727zM314 125q59 0 94 41q25 31 25 78q0 55 -30 90q-33 36 -89 36q-54 0 -89 -32t-35 -92t34 -90.5t90 -30.5z" />
    <glyph glyph-name="r" unicode="r" horiz-adv-x="371" 
d="M57 491q82 5 143 14v-65q18 26 55 43.5t77 17.5q11 0 39 -4l-28 -137q-19 3 -39 3q-49 0 -73 -28t-24 -71v-264h-150v491z" />
    <glyph glyph-name="s" unicode="s" horiz-adv-x="498" 
d="M77 172q30 -20 84 -37t95 -17q32 0 44.5 8t12.5 25q0 10 -5.5 16.5t-22 12.5t-29 9t-44.5 10q-171 34 -171 142q0 79 56.5 119.5t152.5 40.5q58 0 115 -17t96 -46l-59 -109q-29 20 -72 36t-81 16q-31 0 -42.5 -6.5t-11.5 -24.5q0 -15 15 -23.5t52 -16.5q33 -7 47.5 -10.5
t44.5 -12.5t45 -19t33.5 -25.5t26.5 -37.5t8 -49q0 -74 -55 -118t-147 -44q-143 0 -239 58z" />
    <glyph glyph-name="t" unicode="t" horiz-adv-x="399" 
d="M82 497v116q56 0 144 4v-120h141q-4 -41 -4 -123l-137 -5v-175q0 -70 53 -70q34 0 80 18q13 -63 36 -118q-20 -13 -67.5 -21.5t-94.5 -8.5q-151 0 -151 157v217l-55 -2v131h55z" />
    <glyph glyph-name="u" unicode="u" horiz-adv-x="613" 
d="M556 7q-70 -4 -147 -15v52q-58 -50 -138 -50q-112 0 -169 67.5t-57 178.5q0 102 14 266q79 -11 149 -14q-9 -171 -9 -230q0 -130 105 -130q56 0 80.5 40t24.5 119v207h147v-491z" />
    <glyph glyph-name="v" unicode="v" horiz-adv-x="566" 
d="M406 505q80 -13 159 -14l-233 -491h-97l-235 491q80 1 162 14l121 -318z" />
    <glyph glyph-name="w" unicode="w" horiz-adv-x="833" 
d="M348 267q-15 27 -41 76.5t-48 89t-42 72.5q81 -14 145 -14l61 -112l55 112q46 0 146 14q-27 -43 -78.5 -133.5t-59.5 -104.5l45 -97l147 335q81 -13 153 -14l-251 -491h-85q-22 42 -83 153q-12 -24 -36.5 -76t-37.5 -77h-85l-251 491q72 1 153 14l150 -335z" />
    <glyph glyph-name="x" unicode="x" horiz-adv-x="555" 
d="M190 252l-181 239q92 5 169 14l98 -132l98 132q79 -9 170 -14l-181 -238l189 -247q-90 0 -174 -14l-102 140l-102 -140q-83 14 -171 14z" />
    <glyph glyph-name="y" unicode="y" horiz-adv-x="540" 
d="M391 505q59 -9 148 -14l-207 -534q-46 -118 -96 -166.5t-123 -53.5l-52 110q83 25 115 99l31 75l-202 470q89 5 157 14l118 -320z" />
    <glyph glyph-name="z" unicode="z" horiz-adv-x="504" 
d="M240 129q39 1 114.5 2t113.5 2v-134h-405l-34 91l245 283q-45 -4 -214 -9v134h381l32 -91z" />
    <glyph glyph-name="braceleft" unicode="{" horiz-adv-x="366" 
d="M280 665q-23 0 -34.5 -18t-11.5 -37q0 -18 5.5 -90.5t5.5 -89.5q0 -51 -16 -80.5t-60 -61.5q44 -34 60 -63.5t16 -76.5q0 -18 -5.5 -93.5t-5.5 -92.5q0 -26 17.5 -37.5t40.5 -11.5h40v-126h-48q-95 0 -149.5 33t-54.5 86q0 29 6 105t6 97q0 74 -11 96.5t-51 35.5v106
q39 13 51.5 46.5t12.5 99.5q0 29 -7 86.5t-7 64.5q0 75 47 111.5t128 36.5h77v-126h-52z" />
    <glyph glyph-name="bar" unicode="|" horiz-adv-x="361" 
d="M257 743v-956h-153v956h153z" />
    <glyph glyph-name="braceright" unicode="}" horiz-adv-x="366" 
d="M37 790h77q81 0 128 -36.5t47 -111.5q0 -7 -7 -64t-7 -86q0 -66 12.5 -99.5t51.5 -46.5v-106q-40 -14 -51 -36t-11 -96q0 -21 6 -97t6 -105q0 -53 -54.5 -86t-149.5 -33h-48v126h40q23 0 40.5 11.5t17.5 37.5q0 17 -5.5 92.5t-5.5 93.5q0 47 16 76.5t60 62.5
q-44 33 -60 62.5t-16 79.5q0 17 5.5 89.5t5.5 90.5q0 19 -11.5 37t-34.5 18h-52v126z" />
    <glyph glyph-name="exclamdown" unicode="&#xa1;" horiz-adv-x="226" 
d="M113 446q-37 0 -63 25.5t-26 61.5t26 61.5t63 25.5t63 -25.5t26 -61.5t-26 -61.5t-63 -25.5zM190 382v-491h-153v491h153z" />
    <glyph glyph-name="cent" unicode="&#xa2;" horiz-adv-x="545" 
d="M518 39q-78 -37 -161 -44v-72h-96v74q-114 14 -170.5 76.5t-60.5 174.5q8 222 231 249v71h96v-68q85 -5 156 -41l-74 -118q-46 35 -82 42v-267q45 8 96 43zM261 374q-74 -29 -77 -126q3 -95 77 -124v250z" />
    <glyph glyph-name="sterling" unicode="&#xa3;" horiz-adv-x="603" 
d="M514 583q-74 10 -111 10q-72 0 -106.5 -31.5t-34.5 -97.5v-43h200v-128h-200v-143h291v-150h-538v150h94v314q0 128 79.5 203.5t214.5 75.5q53 0 111 -10v-150z" />
    <glyph glyph-name="currency" unicode="&#xa4;" horiz-adv-x="580" 
d="M436 549l119 -95l-77 -76q17 -46 17 -79q0 -37 -20 -85l70 -76l-120 -92l-63 68q-44 -12 -74 -12q-36 0 -81 15l-67 -65l-115 99l73 70q-16 42 -16 76q0 40 21 88l-70 77l119 94l65 -72q44 12 72 12q34 0 78 -15zM288 371q-35 0 -59 -21t-24 -51t24 -51t59 -21t59 21
t24 51t-24 51t-59 21z" />
    <glyph glyph-name="yen" unicode="&#xa5;" horiz-adv-x="753" 
d="M74 377h174l-212 351q90 0 168 14l173 -292l176 292q76 -12 164 -14l-211 -351h170v-127h-602v127zM676 219v-127h-222v-92l-153 -1v93h-227v127h602z" />
    <glyph glyph-name="brokenbar" unicode="&#xa6;" horiz-adv-x="361" 
d="M257 743v-434h-153v434h153zM257 237v-450h-153v450h153z" />
    <glyph glyph-name="section" unicode="&#xa7;" horiz-adv-x="558" 
d="M406 556q-40 59 -92 59q-26 0 -44.5 -14.5t-18.5 -38.5q0 -22 18 -37t58 -36q91 -48 137 -104t46 -147q0 -61 -20 -109.5t-66 -100.5q39 -36 39 -107q0 -79 -60 -136.5t-156 -57.5q-51 0 -104 26.5t-82 72.5l94 99q40 -58 92 -58q26 0 44.5 14.5t18.5 38.5q0 22 -18 36.5
t-58 36.5q-91 48 -137 101.5t-46 141.5q0 117 86 218q-39 36 -39 106q0 79 60 137t156 58q51 0 104 -26.5t82 -72.5zM301 126q56 45 56 108q0 46 -27 73t-71 48q-55 -44 -55 -107q0 -32 17.5 -58t34.5 -37.5t45 -26.5z" />
    <glyph glyph-name="dieresis" unicode="&#xa8;" horiz-adv-x="646" 
d="M190 723q33 0 56.5 -23t23.5 -56q0 -32 -23.5 -55t-56.5 -23t-56.5 23t-23.5 55q0 33 23.5 56t56.5 23zM423 719q34 0 57 -23t23 -56q0 -32 -23.5 -55t-56.5 -23t-56.5 23t-23.5 55q0 33 23.5 56t56.5 23z" />
    <glyph glyph-name="copyright" unicode="&#xa9;" horiz-adv-x="844" 
d="M43 352q0 164 106.5 263.5t273.5 99.5t272.5 -101t105.5 -262t-105 -262t-274 -101q-167 0 -273 99t-106 264zM422 113q116 0 184.5 64.5t68.5 174.5q0 109 -68.5 174t-183.5 65t-184.5 -64t-69.5 -176q0 -113 69 -175.5t184 -62.5zM504 426q-36 21 -71 21
q-43 0 -67 -24.5t-24 -68.5q0 -45 23 -69.5t64 -24.5q43 0 86 25l51 -94q-65 -35 -144 -35q-88 0 -144 55t-56 142t58.5 142.5t152.5 55.5q73 0 129 -33z" />
    <glyph glyph-name="ordfeminine" unicode="&#xaa;" horiz-adv-x="314" 
d="M289 493q-47 0 -95 -7v34q-31 -32 -73 -32q-49 0 -80 36.5t-31 94.5q0 59 31 94.5t81 35.5q40 0 72 -31v35q48 -8 95 -9v-251zM106 618q0 -43 42 -43q19 0 31.5 12t12.5 31q0 20 -12 32t-32 12q-21 0 -30 -10t-12 -34z" />
    <glyph glyph-name="guillemotleft" unicode="&#xab;" horiz-adv-x="673" 
d="M226 531l123 -73l-144 -201l144 -201l-123 -74l-196 275zM474 261l119 -155l-130 -64l-170 219l170 219l130 -64z" />
    <glyph glyph-name="logicalnot" unicode="&#xac;" horiz-adv-x="546" 
d="M384 14v170h-354v127h486v-297h-132z" />
    <glyph glyph-name="uni00AD" unicode="&#xad;" horiz-adv-x="431" 
d="M375 397v-141h-319v141h319z" />
    <glyph glyph-name="registered" unicode="&#xae;" horiz-adv-x="844" 
d="M43 352q0 167 103.5 265t276.5 98q167 0 272.5 -101t105.5 -262t-105 -262t-274 -101q-174 0 -276.5 97.5t-102.5 265.5zM422 113q116 0 184.5 64.5t68.5 174.5q0 109 -68.5 174t-183.5 65q-120 0 -187 -63t-67 -177t67.5 -176t185.5 -62zM538 153q-37 17 -60.5 39.5
t-44.5 62.5h-27h-27v-83h-105v360q84 13 124 13q81 0 132 -41.5t51 -108.5q0 -68 -52 -109q18 -25 33 -37t48 -28zM379 355q14 -1 31 -1q63 0 63 42q0 21 -17 33t-46 12q-16 0 -31 -3v-83z" />
    <glyph glyph-name="macron" unicode="&#xaf;" horiz-adv-x="405" 
d="M378 592h-315v98h315v-98z" />
    <glyph glyph-name="degree" unicode="&#xb0;" horiz-adv-x="352" 
d="M176 729q62 0 104 -39.5t42 -98.5q0 -58 -42 -98t-104 -40t-104 40t-42 98q0 59 42 98.5t104 39.5zM172 656q-69 0 -69 -63q0 -67 69 -67q33 0 55 18.5t22 46.5t-22 46.5t-55 18.5z" />
    <glyph glyph-name="plusminus" unicode="&#xb1;" horiz-adv-x="689" 
d="M390 196h-148v173h-174v141h174v165h148v-165h178v-141h-178v-173zM68 164h500v-141h-500v141z" />
    <glyph glyph-name="uni00B2" unicode="&#xb2;" 
d="M58 592l-33 65l110 88q41 33 56.5 51t15.5 34q0 18 -13 28.5t-33 10.5q-16 0 -28 -5.5t-52 -28.5l-51 78q42 33 67.5 44t62.5 11q64 0 107 -36.5t43 -93.5q0 -44 -31.5 -84t-96.5 -63h133v-99h-257z" />
    <glyph glyph-name="uni00B3" unicode="&#xb3;" 
d="M66 705q47 -24 83 -24q64 0 64 40q0 27 -37 27h-36v71l32 2q14 1 21.5 10.5t7.5 19.5q0 25 -43 25q-44 0 -82 -38l-63 61q62 69 149 69q63 0 102.5 -29.5t39.5 -76.5q0 -41 -22 -71q34 -33 34 -78q0 -54 -45 -90t-115 -36q-41 0 -72 8.5t-68 35.5z" />
    <glyph glyph-name="acute" unicode="&#xb4;" horiz-adv-x="412" 
d="M74 639q124 49 236 122l64 -95q-45 -27 -119.5 -58t-149.5 -48z" />
    <glyph glyph-name="paragraph" unicode="&#xb6;" horiz-adv-x="635" 
d="M531 -59h-77v741h-52v-741h-74v741h-44v-427q-102 12 -170 75.5t-68 164.5q0 114 81 178.5t197 64.5q83 0 207 -25v-772z" />
    <glyph glyph-name="periodcentered" unicode="&#xb7;" horiz-adv-x="232" 
d="M116 56q-38 0 -65 26.5t-27 63.5t27 63.5t65 26.5t65 -26.5t27 -63.5t-27 -63.5t-65 -26.5z" />
    <glyph glyph-name="cedilla" unicode="&#xb8;" horiz-adv-x="460" 
d="M57 -172q122 -64 200 -64q30 0 48 12.5t18 33.5q0 18 -10.5 28.5t-27.5 10.5q-28 0 -52 -24l-83 56q62 69 140 69q66 0 106 -40.5t40 -104.5q0 -63 -46.5 -102.5t-121.5 -39.5q-54 0 -125.5 24t-120.5 67z" />
    <glyph glyph-name="uni00B9" unicode="&#xb9;" 
d="M154 592v225q-34 -36 -75 -51l-41 66q84 54 147 129h69v-369h-100z" />
    <glyph glyph-name="ordmasculine" unicode="&#xba;" horiz-adv-x="335" 
d="M174 729q57 0 95.5 -39.5t38.5 -98.5q0 -58 -39 -98t-95 -40q-62 0 -104 39.5t-42 98.5t42 98.5t104 39.5zM109 593q0 -59 61 -59q24 0 41 16.5t17 41.5t-16.5 41t-41.5 16q-61 0 -61 -56z" />
    <glyph glyph-name="guillemotright" unicode="&#xbb;" horiz-adv-x="673" 
d="M416 -18l-123 74l144 201l-144 201l123 73l196 -274zM169 261l-120 155l130 64l170 -219l-170 -219l-130 64z" />
    <glyph glyph-name="onequarter" unicode="&#xbc;" horiz-adv-x="873" 
d="M269 -13q-46 13 -108 13l484 735q46 -13 109 -13zM189 359v225q-35 -36 -75 -51l-41 66q84 54 147 129h69v-369h-100zM760 369v-221h44v-84h-44v-64h-91v64h-160l-27 59l196 246h82zM602 149h67v83z" />
    <glyph glyph-name="onehalf" unicode="&#xbd;" horiz-adv-x="873" 
d="M236 -13q-46 13 -109 13l485 735q46 -13 108 -13zM182 359v225q-34 -36 -75 -51l-41 66q84 54 147 129h69v-369h-100zM559 -3l-34 65l111 88q41 33 56 51t15 34q0 18 -13 28.5t-33 10.5q-36 0 -80 -34l-49 74q37 33 65 46t65 13q64 0 106 -36.5t42 -93.5q0 -44 -31.5 -84
t-96.5 -63h133v-99h-256z" />
    <glyph glyph-name="threequarters" unicode="&#xbe;" horiz-adv-x="873" 
d="M109 472q47 -24 83 -24q64 0 64 40q0 27 -37 27h-36v71l32 2q14 1 21.5 10.5t7.5 19.5q0 25 -43 25q-44 0 -82 -38l-63 61q62 69 149 69q63 0 102.5 -29.5t39.5 -76.5q0 -41 -22 -71q34 -33 34 -78q0 -54 -45 -90t-115 -36q-41 0 -72 8.5t-68 35.5zM286 -13
q-48 13 -109 13l484 735q48 -13 109 -13zM777 369v-221h44v-84h-44v-64h-91v64h-160l-27 59l196 246h82zM619 149h67v83z" />
    <glyph glyph-name="questiondown" unicode="&#xbf;" horiz-adv-x="473" 
d="M237 446q-37 0 -63 25.5t-26 61.5t26 61.5t63 25.5t63 -25.5t26 -61.5t-26 -61.5t-63 -25.5zM76 348q78 60 160 60q71 0 114.5 -34t43.5 -107q0 -53 -35 -89.5t-92 -68.5q-68 -38 -79 -52q-9 -11 -9 -23q0 -17 14 -28t34 -11q26 0 66.5 17.5t66.5 40.5l84 -110
q-98 -79 -232 -79q-78 0 -132 46.5t-54 110.5q0 34 9 59t33.5 47.5t39 32t53.5 32.5q3 2 5 3t5 3t5 3q8 5 20 12t17.5 10t13.5 8.5t11.5 8.5t7.5 7t5.5 8t1.5 8q0 28 -34 28q-35 0 -85 -37z" />
    <glyph glyph-name="Agrave" unicode="&#xc0;" horiz-adv-x="729" 
d="M395 800q-75 17 -149.5 48t-119.5 58l64 95q112 -73 236 -122zM226 150l-63 -155q-86 10 -163 11l314 723h103l312 -723q-77 0 -163 -11l-63 155h-277zM364 489l-85 -207h170z" />
    <glyph glyph-name="Aacute" unicode="&#xc1;" horiz-adv-x="729" 
d="M299 879q124 49 236 122l64 -95q-45 -27 -119.5 -58t-149.5 -48zM226 150l-63 -155q-86 10 -163 11l314 723h103l312 -723q-77 0 -163 -11l-63 155h-277zM364 489l-85 -207h170z" />
    <glyph glyph-name="Acircumflex" unicode="&#xc2;" horiz-adv-x="729" 
d="M540 799q-85 17 -171 68q-81 -49 -171 -67l-19 102q91 23 190 80q59 -35 95.5 -50.5t94.5 -29.5zM226 150l-63 -155q-86 10 -163 11l314 723h103l312 -723q-77 0 -163 -11l-63 155h-277zM364 489l-85 -207h170z" />
    <glyph glyph-name="Atilde" unicode="&#xc3;" horiz-adv-x="729" 
d="M563 939q-11 -29 -19 -46t-23.5 -39.5t-37.5 -33t-51 -10.5t-65.5 21.5t-52.5 21.5q-12 0 -22.5 -6t-16.5 -13t-16 -21l-86 35q42 122 127 122q27 0 69.5 -24t56.5 -24q4 0 8.5 1t7.5 2t6.5 4.5l5.5 5.5t5.5 7t5 7t6 9t5.5 9zM226 150l-63 -155q-86 10 -163 11l314 723
h103l312 -723q-77 0 -163 -11l-63 155h-277zM364 489l-85 -207h170z" />
    <glyph glyph-name="Adieresis" unicode="&#xc4;" horiz-adv-x="729" 
d="M253 969q33 0 56.5 -23t23.5 -56q0 -32 -23.5 -55t-56.5 -23t-56.5 23t-23.5 55q0 33 23.5 56t56.5 23zM486 965q34 0 57 -23t23 -56q0 -32 -23.5 -55t-56.5 -23t-56.5 23t-23.5 55q0 33 23.5 56t56.5 23zM226 150l-63 -155q-86 10 -163 11l314 723h103l312 -723
q-77 0 -163 -11l-63 155h-277zM364 489l-85 -207h170z" />
    <glyph glyph-name="Aring" unicode="&#xc5;" horiz-adv-x="729" 
d="M490 899q0 -49 -36 -83.5t-87 -34.5q-50 0 -86 34.5t-36 83.5q0 48 36 82.5t86 34.5q51 0 87 -34t36 -83zM368 939q-21 0 -32.5 -11.5t-11.5 -30.5q0 -16 13 -27t31 -11t31 11t13 27q0 19 -11.5 30.5t-32.5 11.5zM226 150l-63 -155q-86 10 -163 11l314 723h103l312 -723
q-77 0 -163 -11l-63 155h-277zM364 489l-85 -207h170z" />
    <glyph glyph-name="AE" unicode="&#xc6;" horiz-adv-x="931" 
d="M498 0l-15 150h-248l-72 -155q-88 10 -163 11l368 723h491v-151h-284l16 -133h250v-144h-232l19 -150h264v-151h-394zM439 583l-142 -301h173z" />
    <glyph glyph-name="Ccedilla" unicode="&#xc7;" horiz-adv-x="721" 
d="M617 520q-36 34 -86.5 54.5t-98.5 20.5q-105 0 -165.5 -60.5t-60.5 -169.5q0 -107 60 -168t167 -61q47 0 97.5 20t86.5 54l78 -127q-104 -94 -284 -94q-156 0 -262 102t-106 276q0 169 103.5 272t264.5 103q180 0 284 -94zM195 -214q122 -64 200 -64q30 0 48 12.5
t18 33.5q0 18 -10.5 28.5t-27.5 10.5q-28 0 -52 -24l-83 56q62 69 140 69q66 0 106 -40.5t40 -104.5q0 -63 -46.5 -102.5t-121.5 -39.5q-54 0 -125.5 24t-120.5 67z" />
    <glyph glyph-name="Egrave" unicode="&#xc8;" horiz-adv-x="627" 
d="M343 800q-75 17 -149.5 48t-119.5 58l64 95q112 -73 236 -122zM564 578h-351v-133h265v-144h-265v-150h370v-151h-523v729h504v-151z" />
    <glyph glyph-name="Eacute" unicode="&#xc9;" horiz-adv-x="627" 
d="M247 879q124 49 236 122l64 -95q-45 -27 -119.5 -58t-149.5 -48zM564 578h-351v-133h265v-144h-265v-150h370v-151h-523v729h504v-151z" />
    <glyph glyph-name="Ecircumflex" unicode="&#xca;" horiz-adv-x="627" 
d="M488 799q-85 17 -171 68q-81 -49 -171 -67l-19 102q91 23 190 80q59 -35 95.5 -50.5t94.5 -29.5zM564 578h-351v-133h265v-144h-265v-150h370v-151h-523v729h504v-151z" />
    <glyph glyph-name="Edieresis" unicode="&#xcb;" horiz-adv-x="627" 
d="M201 969q33 0 56.5 -23t23.5 -56q0 -32 -23.5 -55t-56.5 -23t-56.5 23t-23.5 55q0 33 23.5 56t56.5 23zM434 965q34 0 57 -23t23 -56q0 -32 -23.5 -55t-56.5 -23t-56.5 23t-23.5 55q0 33 23.5 56t56.5 23zM564 578h-351v-133h265v-144h-265v-150h370v-151h-523v729h504
v-151z" />
    <glyph glyph-name="Igrave" unicode="&#xcc;" horiz-adv-x="273" 
d="M166 800q-75 17 -149.5 48t-119.5 58l64 95q112 -73 236 -122zM213 0h-153v729h153v-729z" />
    <glyph glyph-name="Iacute" unicode="&#xcd;" horiz-adv-x="273" 
d="M70 879q124 49 236 122l64 -95q-45 -27 -119.5 -58t-149.5 -48zM213 0h-153v729h153v-729z" />
    <glyph glyph-name="Icircumflex" unicode="&#xce;" horiz-adv-x="273" 
d="M311 799q-85 17 -171 68q-81 -49 -171 -67l-19 102q91 23 190 80q59 -35 95.5 -50.5t94.5 -29.5zM213 0h-153v729h153v-729z" />
    <glyph glyph-name="Idieresis" unicode="&#xcf;" horiz-adv-x="273" 
d="M24 969q33 0 56.5 -23t23.5 -56q0 -32 -23.5 -55t-56.5 -23t-56.5 23t-23.5 55q0 33 23.5 56t56.5 23zM257 965q34 0 57 -23t23 -56q0 -32 -23.5 -55t-56.5 -23t-56.5 23t-23.5 55q0 33 23.5 56t56.5 23zM213 0h-153v729h153v-729z" />
    <glyph glyph-name="Eth" unicode="&#xd0;" horiz-adv-x="782" 
d="M-3 352v110h83v267q153 13 259 13q182 0 290.5 -96.5t108.5 -275.5q0 -169 -104 -275t-276 -106q-115 0 -278 14v349h-83zM387 462v-110h-154v-207q62 -6 126 -6q100 0 158 63t58 170q0 101 -59 160.5t-159 59.5q-54 0 -124 -9v-121h154z" />
    <glyph glyph-name="Ntilde" unicode="&#xd1;" horiz-adv-x="736" 
d="M565 939q-11 -29 -19 -46t-23.5 -39.5t-37.5 -33t-51 -10.5t-65.5 21.5t-52.5 21.5q-12 0 -22.5 -6t-16.5 -13t-16 -21l-86 35q42 122 127 122q27 0 69.5 -24t56.5 -24q4 0 8.5 1t7.5 2t6.5 4.5l5.5 5.5t5.5 7t5 7t6 9t5.5 9zM520 276v452h156v-722q-45 0 -95 -11
l-364 431v-426h-157v723q59 4 99 13z" />
    <glyph glyph-name="Ograve" unicode="&#xd2;" horiz-adv-x="858" 
d="M460 800q-75 17 -149.5 48t-119.5 58l64 95q112 -73 236 -122zM44 365q0 167 107.5 272t278.5 105q170 0 277 -105.5t107 -271.5q0 -167 -107 -271.5t-278 -104.5q-170 0 -277.5 105t-107.5 271zM207 365q0 -104 59.5 -165t162.5 -61t162.5 61t59.5 165t-60 165.5
t-161 61.5q-103 0 -163 -61.5t-60 -165.5z" />
    <glyph glyph-name="Oacute" unicode="&#xd3;" horiz-adv-x="858" 
d="M364 879q124 49 236 122l64 -95q-45 -27 -119.5 -58t-149.5 -48zM44 365q0 167 107.5 272t278.5 105q170 0 277 -105.5t107 -271.5q0 -167 -107 -271.5t-278 -104.5q-170 0 -277.5 105t-107.5 271zM207 365q0 -104 59.5 -165t162.5 -61t162.5 61t59.5 165t-60 165.5
t-161 61.5q-103 0 -163 -61.5t-60 -165.5z" />
    <glyph glyph-name="Ocircumflex" unicode="&#xd4;" horiz-adv-x="858" 
d="M605 799q-85 17 -171 68q-81 -49 -171 -67l-19 102q91 23 190 80q59 -35 95.5 -50.5t94.5 -29.5zM44 365q0 167 107.5 272t278.5 105q170 0 277 -105.5t107 -271.5q0 -167 -107 -271.5t-278 -104.5q-170 0 -277.5 105t-107.5 271zM207 365q0 -104 59.5 -165t162.5 -61
t162.5 61t59.5 165t-60 165.5t-161 61.5q-103 0 -163 -61.5t-60 -165.5z" />
    <glyph glyph-name="Otilde" unicode="&#xd5;" horiz-adv-x="858" 
d="M628 939q-11 -29 -19 -46t-23.5 -39.5t-37.5 -33t-51 -10.5t-65.5 21.5t-52.5 21.5q-12 0 -22.5 -6t-16.5 -13t-16 -21l-86 35q42 122 127 122q27 0 69.5 -24t56.5 -24q4 0 8.5 1t7.5 2t6.5 4.5l5.5 5.5t5.5 7t5 7t6 9t5.5 9zM44 365q0 167 107.5 272t278.5 105
q170 0 277 -105.5t107 -271.5q0 -167 -107 -271.5t-278 -104.5q-170 0 -277.5 105t-107.5 271zM207 365q0 -104 59.5 -165t162.5 -61t162.5 61t59.5 165t-60 165.5t-161 61.5q-103 0 -163 -61.5t-60 -165.5z" />
    <glyph glyph-name="Odieresis" unicode="&#xd6;" horiz-adv-x="858" 
d="M318 969q33 0 56.5 -23t23.5 -56q0 -32 -23.5 -55t-56.5 -23t-56.5 23t-23.5 55q0 33 23.5 56t56.5 23zM551 965q34 0 57 -23t23 -56q0 -32 -23.5 -55t-56.5 -23t-56.5 23t-23.5 55q0 33 23.5 56t56.5 23zM44 365q0 167 107.5 272t278.5 105q170 0 277 -105.5t107 -271.5
q0 -167 -107 -271.5t-278 -104.5q-170 0 -277.5 105t-107.5 271zM207 365q0 -104 59.5 -165t162.5 -61t162.5 61t59.5 165t-60 165.5t-161 61.5q-103 0 -163 -61.5t-60 -165.5z" />
    <glyph glyph-name="multiply" unicode="&#xd7;" horiz-adv-x="630" 
d="M538 134l-105 -105l-122 122l-118 -118l-100 99l119 119l-117 117l104 104l117 -116l121 121l100 -100l-121 -121z" />
    <glyph glyph-name="Oslash" unicode="&#xd8;" horiz-adv-x="857" 
d="M660 735q59 -13 133 -13l-77 -95q101 -105 101 -270q0 -167 -104 -267.5t-276 -100.5q-115 0 -202 45l-38 -47q-65 13 -126 13l78 96q-109 108 -109 277q0 167 104.5 268t276.5 101q116 0 207 -47zM530 573q-44 17 -100 19q-104 0 -165.5 -61.5t-61.5 -165.5
q3 -92 44 -146zM334 156q40 -15 95 -17q104 0 164.5 61t60.5 165q-4 86 -39 138z" />
    <glyph glyph-name="Ugrave" unicode="&#xd9;" horiz-adv-x="872" 
d="M465 800q-75 17 -149.5 48t-119.5 58l64 95q112 -73 236 -122zM779 736q51 -187 51 -336q0 -190 -101 -300.5t-290 -110.5q-194 0 -295.5 109t-101.5 305q0 152 52 333q84 -14 163 -14q-52 -184 -52 -319q0 -136 57 -199.5t177 -63.5q119 0 173.5 66.5t54.5 200.5
q0 123 -53 315q83 0 165 14z" />
    <glyph glyph-name="Uacute" unicode="&#xda;" horiz-adv-x="872" 
d="M369 879q124 49 236 122l64 -95q-45 -27 -119.5 -58t-149.5 -48zM779 736q51 -187 51 -336q0 -190 -101 -300.5t-290 -110.5q-194 0 -295.5 109t-101.5 305q0 152 52 333q84 -14 163 -14q-52 -184 -52 -319q0 -136 57 -199.5t177 -63.5q119 0 173.5 66.5t54.5 200.5
q0 123 -53 315q83 0 165 14z" />
    <glyph glyph-name="Ucircumflex" unicode="&#xdb;" horiz-adv-x="872" 
d="M610 799q-85 17 -171 68q-81 -49 -171 -67l-19 102q91 23 190 80q59 -35 95.5 -50.5t94.5 -29.5zM779 736q51 -187 51 -336q0 -190 -101 -300.5t-290 -110.5q-194 0 -295.5 109t-101.5 305q0 152 52 333q84 -14 163 -14q-52 -184 -52 -319q0 -136 57 -199.5t177 -63.5
q119 0 173.5 66.5t54.5 200.5q0 123 -53 315q83 0 165 14z" />
    <glyph glyph-name="Udieresis" unicode="&#xdc;" horiz-adv-x="872" 
d="M323 969q33 0 56.5 -23t23.5 -56q0 -32 -23.5 -55t-56.5 -23t-56.5 23t-23.5 55q0 33 23.5 56t56.5 23zM556 965q34 0 57 -23t23 -56q0 -32 -23.5 -55t-56.5 -23t-56.5 23t-23.5 55q0 33 23.5 56t56.5 23zM779 736q51 -187 51 -336q0 -190 -101 -300.5t-290 -110.5
q-194 0 -295.5 109t-101.5 305q0 152 52 333q84 -14 163 -14q-52 -184 -52 -319q0 -136 57 -199.5t177 -63.5q119 0 173.5 66.5t54.5 200.5q0 123 -53 315q83 0 165 14z" />
    <glyph glyph-name="Yacute" unicode="&#xdd;" horiz-adv-x="677" 
d="M271 879q124 49 236 122l64 -95q-45 -27 -119.5 -58t-149.5 -48zM514 736q76 -12 165 -14l-264 -435v-287h-153v286l-265 436q81 -1 168 14l173 -289z" />
    <glyph glyph-name="Thorn" unicode="&#xde;" horiz-adv-x="700" 
d="M213 729v-66q47 3 93 3q68 0 127.5 -17t109.5 -51t79 -93t29 -136q0 -141 -88.5 -224.5t-218.5 -83.5q-63 0 -131 5v-66h-153v729h153zM213 225q61 -6 130 -6q64 0 104.5 36.5t40.5 113.5q0 69 -42.5 107.5t-119.5 38.5q-29 0 -113 -2v-288z" />
    <glyph glyph-name="germandbls" unicode="&#xdf;" horiz-adv-x="683" 
d="M291 179q25 -23 74 -39t95 -16q27 0 37 6.5t10 23.5q0 16 -23 24.5t-74 14.5q-34 4 -60 12t-50.5 23t-38 42.5t-13.5 65.5q0 66 43.5 101t103.5 35h6q-1 65 -21.5 87t-72.5 22q-103 0 -103 -84v-733h-150v733q0 125 59.5 175t183.5 50q133 0 197 -55.5t64 -198.5v-94h-98
q-58 0 -58 -27q0 -14 13 -20t50 -12q93 -16 126 -32q70 -36 70 -121q0 -76 -53.5 -122t-143.5 -46q-128 0 -231 57z" />
    <glyph glyph-name="agrave" unicode="&#xe0;" horiz-adv-x="561" 
d="M310 564q-75 17 -149.5 48t-119.5 58l64 95q112 -73 236 -122zM346 323q0 19 -18 35.5t-62 16.5q-42 0 -68.5 -11t-54.5 -36l-97 82q35 38 93 64.5t132 26.5q99 0 160.5 -43t61.5 -134v-121q0 -104 46 -157l-113 -59q-14 15 -23 41t-9 43q-21 -35 -69 -55.5t-109 -20.5
q-98 0 -139 39.5t-41 112.5q0 79 69 120t197 38l44 -1v19zM299 199q-50 2 -82 -10t-32 -35t15 -32t45 -9q52 0 78.5 25t24.5 59z" />
    <glyph glyph-name="aacute" unicode="&#xe1;" horiz-adv-x="561" 
d="M214 643q124 49 236 122l64 -95q-45 -27 -119.5 -58t-149.5 -48zM346 323q0 19 -18 35.5t-62 16.5q-42 0 -68.5 -11t-54.5 -36l-97 82q35 38 93 64.5t132 26.5q99 0 160.5 -43t61.5 -134v-121q0 -104 46 -157l-113 -59q-14 15 -23 41t-9 43q-21 -35 -69 -55.5t-109 -20.5
q-98 0 -139 39.5t-41 112.5q0 79 69 120t197 38l44 -1v19zM299 199q-50 2 -82 -10t-32 -35t15 -32t45 -9q52 0 78.5 25t24.5 59z" />
    <glyph glyph-name="acircumflex" unicode="&#xe2;" horiz-adv-x="561" 
d="M455 563q-85 17 -171 68q-81 -49 -171 -67l-19 102q91 23 190 80q59 -35 95.5 -50.5t94.5 -29.5zM346 323q0 19 -18 35.5t-62 16.5q-42 0 -68.5 -11t-54.5 -36l-97 82q35 38 93 64.5t132 26.5q99 0 160.5 -43t61.5 -134v-121q0 -104 46 -157l-113 -59q-14 15 -23 41
t-9 43q-21 -35 -69 -55.5t-109 -20.5q-98 0 -139 39.5t-41 112.5q0 79 69 120t197 38l44 -1v19zM299 199q-50 2 -82 -10t-32 -35t15 -32t45 -9q52 0 78.5 25t24.5 59z" />
    <glyph glyph-name="atilde" unicode="&#xe3;" horiz-adv-x="561" 
d="M478 703q-11 -29 -19 -46t-23.5 -39.5t-37.5 -33t-51 -10.5t-65.5 21.5t-52.5 21.5q-12 0 -22.5 -6t-16.5 -13t-16 -21l-86 35q42 122 127 122q27 0 69.5 -24t56.5 -24q4 0 8.5 1t7.5 2t6.5 4.5l5.5 5.5t5.5 7t5 7t6 9t5.5 9zM346 323q0 19 -18 35.5t-62 16.5
q-42 0 -68.5 -11t-54.5 -36l-97 82q35 38 93 64.5t132 26.5q99 0 160.5 -43t61.5 -134v-121q0 -104 46 -157l-113 -59q-14 15 -23 41t-9 43q-21 -35 -69 -55.5t-109 -20.5q-98 0 -139 39.5t-41 112.5q0 79 69 120t197 38l44 -1v19zM299 199q-50 2 -82 -10t-32 -35t15 -32
t45 -9q52 0 78.5 25t24.5 59z" />
    <glyph glyph-name="adieresis" unicode="&#xe4;" horiz-adv-x="561" 
d="M168 733q33 0 56.5 -23t23.5 -56q0 -32 -23.5 -55t-56.5 -23t-56.5 23t-23.5 55q0 33 23.5 56t56.5 23zM401 729q34 0 57 -23t23 -56q0 -32 -23.5 -55t-56.5 -23t-56.5 23t-23.5 55q0 33 23.5 56t56.5 23zM346 323q0 19 -18 35.5t-62 16.5q-42 0 -68.5 -11t-54.5 -36
l-97 82q35 38 93 64.5t132 26.5q99 0 160.5 -43t61.5 -134v-121q0 -104 46 -157l-113 -59q-14 15 -23 41t-9 43q-21 -35 -69 -55.5t-109 -20.5q-98 0 -139 39.5t-41 112.5q0 79 69 120t197 38l44 -1v19zM299 199q-50 2 -82 -10t-32 -35t15 -32t45 -9q52 0 78.5 25t24.5 59z
" />
    <glyph glyph-name="aring" unicode="&#xe5;" horiz-adv-x="561" 
d="M405 663q0 -49 -36 -83.5t-87 -34.5q-50 0 -86 34.5t-36 83.5q0 48 36 82.5t86 34.5q51 0 87 -34t36 -83zM283 703q-21 0 -32.5 -11.5t-11.5 -30.5q0 -16 13 -27t31 -11t31 11t13 27q0 19 -11.5 30.5t-32.5 11.5zM346 323q0 19 -18 35.5t-62 16.5q-42 0 -68.5 -11
t-54.5 -36l-97 82q35 38 93 64.5t132 26.5q99 0 160.5 -43t61.5 -134v-121q0 -104 46 -157l-113 -59q-14 15 -23 41t-9 43q-21 -35 -69 -55.5t-109 -20.5q-98 0 -139 39.5t-41 112.5q0 79 69 120t197 38l44 -1v19zM299 199q-50 2 -82 -10t-32 -35t15 -32t45 -9q52 0 78.5 25
t24.5 59z" />
    <glyph glyph-name="ae" unicode="&#xe6;" horiz-adv-x="803" 
d="M333 323q-5 14 -8.5 21.5t-22 19t-48.5 11.5q-37 0 -60.5 -11t-48.5 -36q-42 45 -98 82q33 38 87.5 64.5t123.5 26.5q106 0 168 -48q61 48 140 48q98 0 154.5 -66.5t56.5 -177.5q0 -34 -7 -58h-302q6 -40 39.5 -59.5t82.5 -19.5q62 0 100 36q34 -54 75 -94
q-80 -68 -188 -68q-114 0 -179 88q-60 -88 -194 -88q-90 0 -128 40t-38 113q0 79 65 119.5t186 38.5l44 -1v19zM634 300q1 22 -18.5 47.5t-51.5 25.5q-47 0 -73 -25.5t-26 -47.5h169zM287 199q-44 2 -72 -10t-28 -35t11 -32t34 -9q53 0 79 24.5t24 59.5z" />
    <glyph glyph-name="ccedilla" unicode="&#xe7;" horiz-adv-x="544" 
d="M392 326q-31 44 -88 44q-52 0 -82.5 -34.5t-30.5 -90.5q0 -57 29.5 -89t81.5 -32q66 0 96 51q54 -29 126 -53q-63 -128 -236 -128q-109 0 -178.5 68.5t-69.5 176.5q0 118 70.5 190t187.5 72q77 0 129.5 -29.5t91.5 -92.5q-72 -24 -127 -53zM106 -214q122 -64 200 -64
q30 0 48 12.5t18 33.5q0 18 -10.5 28.5t-27.5 10.5q-28 0 -52 -24l-83 56q62 69 140 69q66 0 106 -40.5t40 -104.5q0 -63 -46.5 -102.5t-121.5 -39.5q-54 0 -125.5 24t-120.5 67z" />
    <glyph glyph-name="egrave" unicode="&#xe8;" horiz-adv-x="578" 
d="M328 564q-75 17 -149.5 48t-119.5 58l64 95q112 -73 236 -122zM187 199q7 -40 43 -59.5t89 -19.5q80 0 128 36q34 -54 75 -94q-92 -68 -216 -68q-120 0 -193 71.5t-73 183.5q0 109 71.5 180.5t183.5 71.5q108 0 177 -68.5t69 -178.5q0 -26 -7 -55h-347zM402 300
q-3 28 -31 50.5t-77 22.5q-54 0 -82 -24.5t-27 -48.5h217z" />
    <glyph glyph-name="eacute" unicode="&#xe9;" horiz-adv-x="578" 
d="M232 643q124 49 236 122l64 -95q-45 -27 -119.5 -58t-149.5 -48zM187 199q7 -40 43 -59.5t89 -19.5q80 0 128 36q34 -54 75 -94q-92 -68 -216 -68q-120 0 -193 71.5t-73 183.5q0 109 71.5 180.5t183.5 71.5q108 0 177 -68.5t69 -178.5q0 -26 -7 -55h-347zM402 300
q-3 28 -31 50.5t-77 22.5q-54 0 -82 -24.5t-27 -48.5h217z" />
    <glyph glyph-name="ecircumflex" unicode="&#xea;" horiz-adv-x="578" 
d="M473 563q-85 17 -171 68q-81 -49 -171 -67l-19 102q91 23 190 80q59 -35 95.5 -50.5t94.5 -29.5zM187 199q7 -40 43 -59.5t89 -19.5q80 0 128 36q34 -54 75 -94q-92 -68 -216 -68q-120 0 -193 71.5t-73 183.5q0 109 71.5 180.5t183.5 71.5q108 0 177 -68.5t69 -178.5
q0 -26 -7 -55h-347zM402 300q-3 28 -31 50.5t-77 22.5q-54 0 -82 -24.5t-27 -48.5h217z" />
    <glyph glyph-name="edieresis" unicode="&#xeb;" horiz-adv-x="578" 
d="M186 733q33 0 56.5 -23t23.5 -56q0 -32 -23.5 -55t-56.5 -23t-56.5 23t-23.5 55q0 33 23.5 56t56.5 23zM419 729q34 0 57 -23t23 -56q0 -32 -23.5 -55t-56.5 -23t-56.5 23t-23.5 55q0 33 23.5 56t56.5 23zM187 199q7 -40 43 -59.5t89 -19.5q80 0 128 36q34 -54 75 -94
q-92 -68 -216 -68q-120 0 -193 71.5t-73 183.5q0 109 71.5 180.5t183.5 71.5q108 0 177 -68.5t69 -178.5q0 -26 -7 -55h-347zM402 300q-3 28 -31 50.5t-77 22.5q-54 0 -82 -24.5t-27 -48.5h217z" />
    <glyph glyph-name="igrave" unicode="&#xec;" horiz-adv-x="261" 
d="M153 560q-61 17 -121 48t-96 58l64 95q87 -73 184 -122zM203 497v-497h-147v497h147z" />
    <glyph glyph-name="iacute" unicode="&#xed;" horiz-adv-x="261" 
d="M73 639q96 49 185 122l63 -95q-36 -27 -96 -58t-121 -48zM204 497v-497h-147v497h147z" />
    <glyph glyph-name="icircumflex" unicode="&#xee;" horiz-adv-x="261" 
d="M301 559q-85 17 -171 68q-81 -49 -171 -67l-19 102q91 23 190 80q59 -35 95.5 -50.5t94.5 -29.5zM204 497v-497h-147v497h147z" />
    <glyph glyph-name="idieresis" unicode="&#xef;" horiz-adv-x="261" 
d="M35 723q33 0 56.5 -23t23.5 -56q0 -32 -23.5 -55t-56.5 -23t-56.5 23t-23.5 55q0 33 23.5 56t56.5 23zM226 719q34 0 57 -23t23 -56q0 -32 -23.5 -55t-56.5 -23t-56.5 23t-23.5 55q0 33 23.5 56t56.5 23zM204 497v-497h-147v497h147z" />
    <glyph glyph-name="eth" unicode="&#xf0;" horiz-adv-x="617" 
d="M438 640q-26 -16 -66 -37q205 -166 205 -355q0 -110 -76 -182t-193 -72q-113 0 -190.5 68t-77.5 177q0 112 68 179t161 67q64 0 99 -22q-47 61 -88 95q-46 -20 -113 -41l-24 61q66 28 77 33q-31 23 -80 48l38 61q76 -29 127 -64q27 15 79 49zM314 363q-53 0 -86.5 -35
t-33.5 -90q0 -47 32 -76t84 -29q53 0 83 29.5t30 86.5q0 53 -29.5 83.5t-79.5 30.5z" />
    <glyph glyph-name="ntilde" unicode="&#xf1;" horiz-adv-x="617" 
d="M506 703q-11 -29 -19 -46t-23.5 -39.5t-37.5 -33t-51 -10.5t-65.5 21.5t-52.5 21.5q-12 0 -22.5 -6t-16.5 -13t-16 -21l-86 35q42 122 127 122q27 0 69.5 -24t56.5 -24q4 0 8.5 1t7.5 2t6.5 4.5l5.5 5.5t5.5 7t5 7t6 9t5.5 9zM57 491q82 5 147 14v-51q56 47 143 47
q110 0 165.5 -67.5t55.5 -178.5q0 -99 -14 -263q-79 11 -149 14q9 169 9 227q0 64 -27 97t-78 33q-56 0 -80.5 -39t-24.5 -117v-207h-147v491z" />
    <glyph glyph-name="ograve" unicode="&#xf2;" horiz-adv-x="617" 
d="M340 564q-75 17 -149.5 48t-119.5 58l64 95q112 -73 236 -122zM40 248q0 111 78 182t190 71q116 0 192.5 -72t76.5 -181q0 -110 -75.5 -182t-190.5 -72t-193 70.5t-78 183.5zM423 248q0 53 -31 83.5t-83 30.5q-51 0 -83 -32t-32 -83q0 -52 31.5 -83t84.5 -31t83 29.5
t30 85.5z" />
    <glyph glyph-name="oacute" unicode="&#xf3;" horiz-adv-x="617" 
d="M244 643q124 49 236 122l64 -95q-45 -27 -119.5 -58t-149.5 -48zM40 248q0 111 78 182t190 71q116 0 192.5 -72t76.5 -181q0 -110 -75.5 -182t-190.5 -72t-193 70.5t-78 183.5zM423 248q0 53 -31 83.5t-83 30.5q-51 0 -83 -32t-32 -83q0 -52 31.5 -83t84.5 -31t83 29.5
t30 85.5z" />
    <glyph glyph-name="ocircumflex" unicode="&#xf4;" horiz-adv-x="617" 
d="M485 563q-85 17 -171 68q-81 -49 -171 -67l-19 102q91 23 190 80q59 -35 95.5 -50.5t94.5 -29.5zM40 248q0 111 78 182t190 71q116 0 192.5 -72t76.5 -181q0 -110 -75.5 -182t-190.5 -72t-193 70.5t-78 183.5zM423 248q0 53 -31 83.5t-83 30.5q-51 0 -83 -32t-32 -83
q0 -52 31.5 -83t84.5 -31t83 29.5t30 85.5z" />
    <glyph glyph-name="otilde" unicode="&#xf5;" horiz-adv-x="617" 
d="M508 703q-11 -29 -19 -46t-23.5 -39.5t-37.5 -33t-51 -10.5t-65.5 21.5t-52.5 21.5q-12 0 -22.5 -6t-16.5 -13t-16 -21l-86 35q42 122 127 122q27 0 69.5 -24t56.5 -24q4 0 8.5 1t7.5 2t6.5 4.5l5.5 5.5t5.5 7t5 7t6 9t5.5 9zM40 248q0 111 78 182t190 71
q116 0 192.5 -72t76.5 -181q0 -110 -75.5 -182t-190.5 -72t-193 70.5t-78 183.5zM423 248q0 53 -31 83.5t-83 30.5q-51 0 -83 -32t-32 -83q0 -52 31.5 -83t84.5 -31t83 29.5t30 85.5z" />
    <glyph glyph-name="odieresis" unicode="&#xf6;" horiz-adv-x="617" 
d="M198 733q33 0 56.5 -23t23.5 -56q0 -32 -23.5 -55t-56.5 -23t-56.5 23t-23.5 55q0 33 23.5 56t56.5 23zM431 729q34 0 57 -23t23 -56q0 -32 -23.5 -55t-56.5 -23t-56.5 23t-23.5 55q0 33 23.5 56t56.5 23zM40 248q0 111 78 182t190 71q116 0 192.5 -72t76.5 -181
q0 -110 -75.5 -182t-190.5 -72t-193 70.5t-78 183.5zM423 248q0 53 -31 83.5t-83 30.5q-51 0 -83 -32t-32 -83q0 -52 31.5 -83t84.5 -31t83 29.5t30 85.5z" />
    <glyph glyph-name="divide" unicode="&#xf7;" horiz-adv-x="636" 
d="M320 520q36 0 61.5 -25t25.5 -60t-25.5 -60t-61.5 -25t-61.5 25t-25.5 60t25.5 60t61.5 25zM568 326v-141h-500v141h500zM320 162q36 0 61.5 -25t25.5 -60t-25.5 -60t-61.5 -25t-61.5 25t-25.5 60t25.5 60t61.5 25z" />
    <glyph glyph-name="oslash" unicode="&#xf8;" horiz-adv-x="617" 
d="M481 511q36 -14 83 -14l-60 -72q73 -72 73 -177q0 -110 -75.5 -182t-191.5 -72q-75 0 -140 34l-34 -41q-41 13 -76 13l55 67q-72 69 -75 181q0 111 78 182t190 71q75 0 138 -33zM359 363q-24 9 -50 9q-55 0 -90 -35t-35 -90q2 -43 20 -72zM258 132q20 -7 52 -9
q56 0 88 32t32 93q-2 42 -16 69z" />
    <glyph glyph-name="ugrave" unicode="&#xf9;" horiz-adv-x="613" 
d="M336 564q-75 17 -149.5 48t-119.5 58l64 95q112 -73 236 -122zM556 7q-70 -4 -147 -15v52q-58 -50 -138 -50q-112 0 -169 67.5t-57 178.5q0 102 14 266q79 -11 149 -14q-9 -171 -9 -230q0 -130 105 -130q56 0 80.5 40t24.5 119v207h147v-491z" />
    <glyph glyph-name="uacute" unicode="&#xfa;" horiz-adv-x="613" 
d="M240 643q124 49 236 122l64 -95q-45 -27 -119.5 -58t-149.5 -48zM556 7q-70 -4 -147 -15v52q-58 -50 -138 -50q-112 0 -169 67.5t-57 178.5q0 102 14 266q79 -11 149 -14q-9 -171 -9 -230q0 -130 105 -130q56 0 80.5 40t24.5 119v207h147v-491z" />
    <glyph glyph-name="ucircumflex" unicode="&#xfb;" horiz-adv-x="613" 
d="M481 563q-85 17 -171 68q-81 -49 -171 -67l-19 102q91 23 190 80q59 -35 95.5 -50.5t94.5 -29.5zM556 7q-70 -4 -147 -15v52q-58 -50 -138 -50q-112 0 -169 67.5t-57 178.5q0 102 14 266q79 -11 149 -14q-9 -171 -9 -230q0 -130 105 -130q56 0 80.5 40t24.5 119v207h147
v-491z" />
    <glyph glyph-name="udieresis" unicode="&#xfc;" horiz-adv-x="613" 
d="M194 733q33 0 56.5 -23t23.5 -56q0 -32 -23.5 -55t-56.5 -23t-56.5 23t-23.5 55q0 33 23.5 56t56.5 23zM427 729q34 0 57 -23t23 -56q0 -32 -23.5 -55t-56.5 -23t-56.5 23t-23.5 55q0 33 23.5 56t56.5 23zM556 7q-70 -4 -147 -15v52q-58 -50 -138 -50q-112 0 -169 67.5
t-57 178.5q0 102 14 266q79 -11 149 -14q-9 -171 -9 -230q0 -130 105 -130q56 0 80.5 40t24.5 119v207h147v-491z" />
    <glyph glyph-name="yacute" unicode="&#xfd;" horiz-adv-x="540" 
d="M203 643q124 49 236 122l64 -95q-45 -27 -119.5 -58t-149.5 -48zM391 505q59 -9 148 -14l-207 -534q-46 -118 -96 -166.5t-123 -53.5l-52 110q83 25 115 99l31 75l-202 470q89 5 157 14l118 -320z" />
    <glyph glyph-name="thorn" unicode="&#xfe;" horiz-adv-x="638" 
d="M57 722q61 2 147 13v-283q47 47 148 49q115 0 180.5 -69t65.5 -186q0 -114 -69 -183t-179 -69q-99 0 -147 61v-291h-146v958zM324 125q56 0 90 30.5t34 90.5t-35 92t-90 32q-56 0 -89 -36q-30 -35 -30 -90q0 -46 26 -78q33 -41 94 -41z" />
    <glyph glyph-name="ydieresis" unicode="&#xff;" horiz-adv-x="540" 
d="M157 733q33 0 56.5 -23t23.5 -56q0 -32 -23.5 -55t-56.5 -23t-56.5 23t-23.5 55q0 33 23.5 56t56.5 23zM390 729q34 0 57 -23t23 -56q0 -32 -23.5 -55t-56.5 -23t-56.5 23t-23.5 55q0 33 23.5 56t56.5 23zM391 505q59 -9 148 -14l-207 -534q-46 -118 -96 -166.5
t-123 -53.5l-52 110q83 25 115 99l31 75l-202 470q89 5 157 14l118 -320z" />
    <glyph glyph-name="Amacron" unicode="&#x100;" horiz-adv-x="729" 
d="M514 832h-315v98h315v-98zM226 150l-63 -155q-86 10 -163 11l314 723h103l312 -723q-77 0 -163 -11l-63 155h-277zM364 489l-85 -207h170z" />
    <glyph glyph-name="amacron" unicode="&#x101;" horiz-adv-x="561" 
d="M429 596h-315v98h315v-98zM346 323q0 19 -18 35.5t-62 16.5q-42 0 -68.5 -11t-54.5 -36l-97 82q35 38 93 64.5t132 26.5q99 0 160.5 -43t61.5 -134v-121q0 -104 46 -157l-113 -59q-14 15 -23 41t-9 43q-21 -35 -69 -55.5t-109 -20.5q-98 0 -139 39.5t-41 112.5
q0 79 69 120t197 38l44 -1v19zM299 199q-50 2 -82 -10t-32 -35t15 -32t45 -9q52 0 78.5 25t24.5 59z" />
    <glyph glyph-name="Abreve" unicode="&#x102;" horiz-adv-x="729" 
d="M260 976q49 -62 105 -63q57 1 106 63l85 -50q-31 -63 -75.5 -91.5t-114.5 -28.5t-115 28.5t-76 91.5zM226 150l-63 -155q-86 10 -163 11l314 723h103l312 -723q-77 0 -163 -11l-63 155h-277zM364 489l-85 -207h170z" />
    <glyph glyph-name="abreve" unicode="&#x103;" horiz-adv-x="561" 
d="M175 740q49 -62 105 -63q57 1 106 63l85 -50q-31 -63 -75.5 -91.5t-114.5 -28.5t-115 28.5t-76 91.5zM346 323q0 19 -18 35.5t-62 16.5q-42 0 -68.5 -11t-54.5 -36l-97 82q35 38 93 64.5t132 26.5q99 0 160.5 -43t61.5 -134v-121q0 -104 46 -157l-113 -59q-14 15 -23 41
t-9 43q-21 -35 -69 -55.5t-109 -20.5q-98 0 -139 39.5t-41 112.5q0 79 69 120t197 38l44 -1v19zM299 199q-50 2 -82 -10t-32 -35t15 -32t45 -9q52 0 78.5 25t24.5 59z" />
    <glyph glyph-name="Aogonek" unicode="&#x104;" horiz-adv-x="729" 
d="M700 -140l33 -96l-11 -6q-12 -7 -14.5 -8t-13.5 -6.5t-16 -7t-16.5 -5.5t-21 -5t-22.5 -2.5t-26 -1.5q-54 0 -90.5 37t-36.5 93q0 94 96 155l-58 143h-277l-63 -155q-86 10 -163 11l314 723h103l311 -722h1v-1h-2q-152 -79 -152 -143q0 -13 11 -24t31 -11q39 0 83 32z
M279 282h170l-85 207z" />
    <glyph glyph-name="aogonek" unicode="&#x105;" horiz-adv-x="561" 
d="M526 -110l33 -96l-11 -6q-12 -7 -14.5 -8t-13.5 -6.5t-16 -7t-16.5 -5.5t-21 -5t-22.5 -2.5t-26 -1.5q-54 0 -90.5 37t-36.5 93q0 100 107 161q-4 15 -4 28q-21 -35 -69 -55.5t-109 -20.5q-98 0 -139 39.5t-41 112.5q0 79 69 120t197 38l44 -1v19q0 19 -18 35.5t-62 16.5
q-42 0 -68.5 -11t-54.5 -36l-97 82q35 38 93 64.5t132 26.5q99 0 160.5 -43t61.5 -134v-121q0 -104 46 -157l-2 -1l18 -8q-154 -79 -154 -144q0 -13 11 -24t31 -11q39 0 83 32zM245 113q52 0 78.5 25t24.5 59l-49 2q-50 2 -82 -10t-32 -35t15 -32t45 -9z" />
    <glyph glyph-name="Cacute" unicode="&#x106;" horiz-adv-x="721" 
d="M354 879q124 49 236 122l64 -95q-45 -27 -119.5 -58t-149.5 -48zM617 520q-36 34 -86.5 54.5t-98.5 20.5q-105 0 -165.5 -60.5t-60.5 -169.5q0 -107 60 -168t167 -61q47 0 97.5 20t86.5 54l78 -127q-104 -94 -284 -94q-156 0 -262 102t-106 276q0 169 103.5 272
t264.5 103q180 0 284 -94z" />
    <glyph glyph-name="cacute" unicode="&#x107;" horiz-adv-x="544" 
d="M225 643q124 49 236 122l64 -95q-45 -27 -119.5 -58t-149.5 -48zM392 326q-31 44 -88 44q-52 0 -82.5 -34.5t-30.5 -90.5q0 -57 29.5 -89t81.5 -32q66 0 96 51q54 -29 126 -53q-63 -128 -236 -128q-109 0 -178.5 68.5t-69.5 176.5q0 118 70.5 190t187.5 72
q77 0 129.5 -29.5t91.5 -92.5q-72 -24 -127 -53z" />
    <glyph glyph-name="Ccircumflex" unicode="&#x108;" horiz-adv-x="721" 
d="M595 799q-85 17 -171 68q-81 -49 -171 -67l-19 102q91 23 190 80q59 -35 95.5 -50.5t94.5 -29.5zM617 520q-36 34 -86.5 54.5t-98.5 20.5q-105 0 -165.5 -60.5t-60.5 -169.5q0 -107 60 -168t167 -61q47 0 97.5 20t86.5 54l78 -127q-104 -94 -284 -94q-156 0 -262 102
t-106 276q0 169 103.5 272t264.5 103q180 0 284 -94z" />
    <glyph glyph-name="ccircumflex" unicode="&#x109;" horiz-adv-x="544" 
d="M466 563q-85 17 -171 68q-81 -49 -171 -67l-19 102q91 23 190 80q59 -35 95.5 -50.5t94.5 -29.5zM392 326q-31 44 -88 44q-52 0 -82.5 -34.5t-30.5 -90.5q0 -57 29.5 -89t81.5 -32q66 0 96 51q54 -29 126 -53q-63 -128 -236 -128q-109 0 -178.5 68.5t-69.5 176.5
q0 118 70.5 190t187.5 72q77 0 129.5 -29.5t91.5 -92.5q-72 -24 -127 -53z" />
    <glyph glyph-name="Cdotaccent" unicode="&#x10a;" horiz-adv-x="721" 
d="M423 962q35 0 59 -23.5t24 -57.5q0 -33 -24.5 -56.5t-58.5 -23.5t-58 23.5t-24 56.5q0 34 24 57.5t58 23.5zM617 520q-36 34 -86.5 54.5t-98.5 20.5q-105 0 -165.5 -60.5t-60.5 -169.5q0 -107 60 -168t167 -61q47 0 97.5 20t86.5 54l78 -127q-104 -94 -284 -94
q-156 0 -262 102t-106 276q0 169 103.5 272t264.5 103q180 0 284 -94z" />
    <glyph glyph-name="cdotaccent" unicode="&#x10b;" horiz-adv-x="544" 
d="M294 726q35 0 59 -23.5t24 -57.5q0 -33 -24.5 -56.5t-58.5 -23.5t-58 23.5t-24 56.5q0 34 24 57.5t58 23.5zM392 326q-31 44 -88 44q-52 0 -82.5 -34.5t-30.5 -90.5q0 -57 29.5 -89t81.5 -32q66 0 96 51q54 -29 126 -53q-63 -128 -236 -128q-109 0 -178.5 68.5
t-69.5 176.5q0 118 70.5 190t187.5 72q77 0 129.5 -29.5t91.5 -92.5q-72 -24 -127 -53z" />
    <glyph glyph-name="Ccaron" unicode="&#x10c;" horiz-adv-x="721" 
d="M608 872q-58 -14 -94.5 -29.5t-95.5 -50.5q-99 57 -190 80l19 103q91 -19 171 -68q84 50 171 69zM617 520q-36 34 -86.5 54.5t-98.5 20.5q-105 0 -165.5 -60.5t-60.5 -169.5q0 -107 60 -168t167 -61q47 0 97.5 20t86.5 54l78 -127q-104 -94 -284 -94q-156 0 -262 102
t-106 276q0 169 103.5 272t264.5 103q180 0 284 -94z" />
    <glyph glyph-name="ccaron" unicode="&#x10d;" horiz-adv-x="544" 
d="M479 636q-58 -14 -94.5 -29.5t-95.5 -50.5q-99 57 -190 80l19 103q91 -19 171 -68q84 50 171 69zM392 326q-31 44 -88 44q-52 0 -82.5 -34.5t-30.5 -90.5q0 -57 29.5 -89t81.5 -32q66 0 96 51q54 -29 126 -53q-63 -128 -236 -128q-109 0 -178.5 68.5t-69.5 176.5
q0 118 70.5 190t187.5 72q77 0 129.5 -29.5t91.5 -92.5q-72 -24 -127 -53z" />
    <glyph glyph-name="Dcaron" unicode="&#x10e;" horiz-adv-x="762" 
d="M568 872q-58 -14 -94.5 -29.5t-95.5 -50.5q-99 57 -190 80l19 103q91 -19 171 -68q84 50 171 69zM60 728q138 14 259 14q182 0 291 -96.5t109 -275.5q0 -169 -104 -275t-277 -106q-115 0 -278 14v725zM213 145q61 -6 127 -6q99 0 156 62.5t57 170.5q0 101 -57.5 160.5
t-157.5 59.5q-55 0 -125 -9v-438z" />
    <glyph glyph-name="dcaron" unicode="&#x10f;" horiz-adv-x="725" 
d="M582 6q-64 -3 -144 -14v79q-20 -38 -66.5 -57.5t-91.5 -19.5q-107 0 -173.5 69t-66.5 183q0 116 63.5 185.5t172.5 69.5q47 0 95.5 -20t66.5 -53v294q73 0 144 13v-729zM653 512q14 13 27 32t15 27q-22 1 -42 20t-20 51t22.5 54.5t56.5 22.5q35 0 59 -24.5t24 -60.5
q0 -96 -110 -169zM190 246q0 -60 34 -90.5t90 -30.5q59 0 94 41q25 31 25 78q0 55 -30 90q-33 36 -89 36q-54 0 -89 -32t-35 -92z" />
    <glyph glyph-name="Dcroat" unicode="&#x110;" horiz-adv-x="782" 
d="M-3 352v110h83v267q153 13 259 13q182 0 290.5 -96.5t108.5 -275.5q0 -169 -104 -275t-276 -106q-115 0 -278 14v349h-83zM387 462v-110h-154v-207q62 -6 126 -6q100 0 158 63t58 170q0 101 -59 160.5t-159 59.5q-54 0 -124 -9v-121h154z" />
    <glyph glyph-name="dcroat" unicode="&#x111;" horiz-adv-x="654" 
d="M582 6q-64 -3 -144 -14v63q-48 -61 -150 -61q-110 0 -179 69t-69 183q0 117 65.5 186t180.5 69q103 0 152 -49v114h-178v98h178v58q73 0 144 13v-71h45v-98h-45v-560zM190 246q0 -60 34 -90.5t90 -30.5q59 0 94 41q25 31 25 78q0 55 -30 90q-33 36 -89 36q-54 0 -89 -32
t-35 -92z" />
    <glyph glyph-name="Emacron" unicode="&#x112;" horiz-adv-x="627" 
d="M462 832h-315v98h315v-98zM564 578h-351v-133h265v-144h-265v-150h370v-151h-523v729h504v-151z" />
    <glyph glyph-name="emacron" unicode="&#x113;" horiz-adv-x="578" 
d="M447 596h-315v98h315v-98zM187 199q7 -40 43 -59.5t89 -19.5q80 0 128 36q34 -54 75 -94q-92 -68 -216 -68q-120 0 -193 71.5t-73 183.5q0 109 71.5 180.5t183.5 71.5q108 0 177 -68.5t69 -178.5q0 -26 -7 -55h-347zM402 300q-3 28 -31 50.5t-77 22.5q-54 0 -82 -24.5
t-27 -48.5h217z" />
    <glyph glyph-name="Ebreve" unicode="&#x114;" horiz-adv-x="627" 
d="M208 976q49 -62 105 -63q57 1 106 63l85 -50q-31 -63 -75.5 -91.5t-114.5 -28.5t-115 28.5t-76 91.5zM564 578h-351v-133h265v-144h-265v-150h370v-151h-523v729h504v-151z" />
    <glyph glyph-name="ebreve" unicode="&#x115;" horiz-adv-x="578" 
d="M193 740q49 -62 105 -63q57 1 106 63l85 -50q-31 -63 -75.5 -91.5t-114.5 -28.5t-115 28.5t-76 91.5zM187 199q7 -40 43 -59.5t89 -19.5q80 0 128 36q34 -54 75 -94q-92 -68 -216 -68q-120 0 -193 71.5t-73 183.5q0 109 71.5 180.5t183.5 71.5q108 0 177 -68.5t69 -178.5
q0 -26 -7 -55h-347zM402 300q-3 28 -31 50.5t-77 22.5q-54 0 -82 -24.5t-27 -48.5h217z" />
    <glyph glyph-name="Edotaccent" unicode="&#x116;" horiz-adv-x="627" 
d="M316 962q35 0 59 -23.5t24 -57.5q0 -33 -24.5 -56.5t-58.5 -23.5t-58 23.5t-24 56.5q0 34 24 57.5t58 23.5zM564 578h-351v-133h265v-144h-265v-150h370v-151h-523v729h504v-151z" />
    <glyph glyph-name="edotaccent" unicode="&#x117;" horiz-adv-x="578" 
d="M301 726q35 0 59 -23.5t24 -57.5q0 -33 -24.5 -56.5t-58.5 -23.5t-58 23.5t-24 56.5q0 34 24 57.5t58 23.5zM187 199q7 -40 43 -59.5t89 -19.5q80 0 128 36q34 -54 75 -94q-92 -68 -216 -68q-120 0 -193 71.5t-73 183.5q0 109 71.5 180.5t183.5 71.5q108 0 177 -68.5
t69 -178.5q0 -26 -7 -55h-347zM402 300q-3 28 -31 50.5t-77 22.5q-54 0 -82 -24.5t-27 -48.5h217z" />
    <glyph glyph-name="Eogonek" unicode="&#x118;" horiz-adv-x="627" 
d="M551 -148l33 -96l-12 -6q-11 -7 -13.5 -8t-13.5 -6.5t-16 -7t-16.5 -5.5t-21 -5t-22.5 -2.5t-26 -1.5q-54 0 -90.5 37t-36.5 93q0 95 98 156h-354v729h504v-151h-351v-133h265v-144h-265v-150h370v-151h-5l2 -1q-154 -79 -154 -144q0 -13 11 -24t31 -11q39 0 83 32z" />
    <glyph glyph-name="eogonek" unicode="&#x119;" horiz-adv-x="578" 
d="M541 254q0 -26 -7 -55h-347q7 -40 43 -59.5t89 -19.5q80 0 128 36q34 -54 75 -94q-2 -2 -4 -3l3 -1l-21 -11q-16 -10 -26 -15q-107 -66 -107 -118q0 -13 11 -24t31 -11q39 0 83 32l33 -96l-11 -7q-12 -6 -14.5 -7t-13.5 -6.5t-16 -7t-16.5 -5.5t-21 -5t-22.5 -2.5
t-26 -1.5q-54 0 -90.5 37t-36.5 93q0 51 28 92q-111 7 -178 77t-67 177q0 109 71.5 180.5t183.5 71.5q108 0 177 -68.5t69 -178.5zM185 300h217q-3 28 -31 50.5t-77 22.5q-54 0 -82 -24.5t-27 -48.5z" />
    <glyph glyph-name="Ecaron" unicode="&#x11a;" horiz-adv-x="627" 
d="M501 872q-58 -14 -94.5 -29.5t-95.5 -50.5q-99 57 -190 80l19 103q91 -19 171 -68q84 50 171 69zM564 578h-351v-133h265v-144h-265v-150h370v-151h-523v729h504v-151z" />
    <glyph glyph-name="ecaron" unicode="&#x11b;" horiz-adv-x="578" 
d="M486 636q-58 -14 -94.5 -29.5t-95.5 -50.5q-99 57 -190 80l19 103q91 -19 171 -68q84 50 171 69zM187 199q7 -40 43 -59.5t89 -19.5q80 0 128 36q34 -54 75 -94q-92 -68 -216 -68q-120 0 -193 71.5t-73 183.5q0 109 71.5 180.5t183.5 71.5q108 0 177 -68.5t69 -178.5
q0 -26 -7 -55h-347zM402 300q-3 28 -31 50.5t-77 22.5q-54 0 -82 -24.5t-27 -48.5h217z" />
    <glyph glyph-name="Gcircumflex" unicode="&#x11c;" horiz-adv-x="751" 
d="M600 799q-85 17 -171 68q-81 -49 -171 -67l-19 102q91 23 190 80q59 -35 95.5 -50.5t94.5 -29.5zM699 76q-100 -87 -285 -87q-169 0 -270 104t-101 272q0 169 105.5 273t273.5 104q167 0 279 -86l-84 -128q-86 64 -195 64q-100 0 -158 -60t-58 -167q0 -108 53 -170.5
t153 -62.5q105 0 141 43v108h-192v129h338v-336z" />
    <glyph glyph-name="gcircumflex" unicode="&#x11d;" horiz-adv-x="638" 
d="M493 563q-85 17 -171 68q-81 -49 -171 -67l-19 102q91 23 190 80q59 -35 95.5 -50.5t94.5 -29.5zM131 -88q76 -33 109.5 -41t85.5 -8q66 0 90 38t24 107v47q-48 -61 -148 -61q-106 0 -178 69t-72 183t71 184.5t179 70.5q101 0 148 -58v62q76 -13 141 -14v-475
q-1 -145 -65.5 -216.5t-201.5 -71.5q-111 0 -247 76zM432 244q0 54 -29 88q-32 35 -86 35q-53 0 -87 -31.5t-34 -89.5q0 -59 33 -88.5t87 -29.5q59 0 91 40q25 31 25 76z" />
    <glyph glyph-name="Gbreve" unicode="&#x11e;" horiz-adv-x="751" 
d="M320 976q49 -62 105 -63q57 1 106 63l85 -50q-31 -63 -75.5 -91.5t-114.5 -28.5t-115 28.5t-76 91.5zM699 76q-100 -87 -285 -87q-169 0 -270 104t-101 272q0 169 105.5 273t273.5 104q167 0 279 -86l-84 -128q-86 64 -195 64q-100 0 -158 -60t-58 -167q0 -108 53 -170.5
t153 -62.5q105 0 141 43v108h-192v129h338v-336z" />
    <glyph glyph-name="gbreve" unicode="&#x11f;" horiz-adv-x="638" 
d="M213 740q49 -62 105 -63q57 1 106 63l85 -50q-31 -63 -75.5 -91.5t-114.5 -28.5t-115 28.5t-76 91.5zM131 -88q76 -33 109.5 -41t85.5 -8q66 0 90 38t24 107v47q-48 -61 -148 -61q-106 0 -178 69t-72 183t71 184.5t179 70.5q101 0 148 -58v62q76 -13 141 -14v-475
q-1 -145 -65.5 -216.5t-201.5 -71.5q-111 0 -247 76zM432 244q0 54 -29 88q-32 35 -86 35q-53 0 -87 -31.5t-34 -89.5q0 -59 33 -88.5t87 -29.5q59 0 91 40q25 31 25 76z" />
    <glyph glyph-name="Gdotaccent" unicode="&#x120;" horiz-adv-x="751" 
d="M428 962q35 0 59 -23.5t24 -57.5q0 -33 -24.5 -56.5t-58.5 -23.5t-58 23.5t-24 56.5q0 34 24 57.5t58 23.5zM699 76q-100 -87 -285 -87q-169 0 -270 104t-101 272q0 169 105.5 273t273.5 104q167 0 279 -86l-84 -128q-86 64 -195 64q-100 0 -158 -60t-58 -167
q0 -108 53 -170.5t153 -62.5q105 0 141 43v108h-192v129h338v-336z" />
    <glyph glyph-name="gdotaccent" unicode="&#x121;" horiz-adv-x="638" 
d="M321 726q35 0 59 -23.5t24 -57.5q0 -33 -24.5 -56.5t-58.5 -23.5t-58 23.5t-24 56.5q0 34 24 57.5t58 23.5zM131 -88q76 -33 109.5 -41t85.5 -8q66 0 90 38t24 107v47q-48 -61 -148 -61q-106 0 -178 69t-72 183t71 184.5t179 70.5q101 0 148 -58v62q76 -13 141 -14v-475
q-1 -145 -65.5 -216.5t-201.5 -71.5q-111 0 -247 76zM432 244q0 54 -29 88q-32 35 -86 35q-53 0 -87 -31.5t-34 -89.5q0 -59 33 -88.5t87 -29.5q59 0 91 40q25 31 25 76z" />
    <glyph glyph-name="Gcommaaccent" unicode="&#x122;" horiz-adv-x="751" 
d="M699 76q-100 -87 -285 -87q-169 0 -270 104t-101 272q0 169 105.5 273t273.5 104q167 0 279 -86l-84 -128q-86 64 -195 64q-100 0 -158 -60t-58 -167q0 -108 53 -170.5t153 -62.5q105 0 141 43v108h-192v129h338v-336zM481 -314h-95l-2 95q-29 24 -31 62q0 33 23.5 56
t57.5 23t57.5 -23t23.5 -56q-2 -39 -32 -62z" />
    <glyph glyph-name="gcommaaccent" unicode="&#x123;" horiz-adv-x="636" 
d="M361 781q-14 -14 -27 -33t-14 -27q22 -1 41.5 -20t19.5 -51t-22.5 -54.5t-56.5 -22.5q-35 0 -59 24.5t-24 60.5q0 96 110 169zM129 -88q76 -33 109.5 -41t85.5 -8q66 0 90 38t24 107v47q-48 -61 -148 -61q-106 0 -178 69t-72 183t71 184.5t179 70.5q101 0 148 -58v62
q76 -13 141 -14v-475q-1 -145 -65.5 -216.5t-201.5 -71.5q-111 0 -247 76zM430 244q0 54 -29 88q-32 35 -86 35q-53 0 -87 -31.5t-34 -89.5q0 -59 33 -88.5t87 -29.5q59 0 91 40q25 31 25 76z" />
    <glyph glyph-name="Hcircumflex" unicode="&#x124;" horiz-adv-x="720" 
d="M534 799q-85 17 -171 68q-81 -49 -171 -67l-19 102q91 23 190 80q59 -35 95.5 -50.5t94.5 -29.5zM507 451v278h153v-729h-153v307h-294v-307h-153v729h153v-278h294z" />
    <glyph glyph-name="hcircumflex" unicode="&#x125;" horiz-adv-x="614" 
d="M305 786q-85 17 -171 68q-81 -49 -171 -67l-19 102q91 23 190 80q59 -35 95.5 -50.5t94.5 -29.5zM57 721q77 5 144 14v-281q56 47 143 47q110 0 165.5 -67.5t55.5 -178.5q0 -99 -14 -263q-79 11 -149 14q9 169 9 227q0 64 -27 97t-78 33q-56 0 -80.5 -39t-24.5 -117v-207
h-144v721z" />
    <glyph glyph-name="Hbar" unicode="&#x126;" horiz-adv-x="720" 
d="M660 651h24v-86h-24v-565h-153v307h-294v-307h-153v565h-28v86h28v78h153v-78h294v78h153v-78zM213 565v-114h294v114h-294z" />
    <glyph glyph-name="hbar" unicode="&#x127;" horiz-adv-x="614" 
d="M476 652v-84h-275v-130q56 63 143 63q110 0 165.5 -67.5t55.5 -178.5q0 -99 -14 -263q-77 11 -149 14q9 169 9 227q0 64 -27 97t-78 33q-56 0 -80.5 -39t-24.5 -117v-207h-144v568h-54v84h54v69q62 2 144 14v-83h275z" />
    <glyph glyph-name="Itilde" unicode="&#x128;" horiz-adv-x="273" 
d="M334 939q-11 -29 -19 -46t-23.5 -39.5t-37.5 -33t-51 -10.5t-65.5 21.5t-52.5 21.5q-12 0 -22.5 -6t-16.5 -13t-16 -21l-86 35q42 122 127 122q27 0 69.5 -24t56.5 -24q4 0 8.5 1t7.5 2t6.5 4.5l5.5 5.5t5.5 7t5 7t6 9t5.5 9zM213 0h-153v729h153v-729z" />
    <glyph glyph-name="itilde" unicode="&#x129;" horiz-adv-x="262" 
d="M325 699q-11 -29 -19 -46t-23.5 -39.5t-37.5 -33t-51 -10.5t-65.5 21.5t-52.5 21.5q-12 0 -22.5 -6t-16.5 -13t-16 -21l-86 35q42 122 127 122q27 0 69.5 -24t56.5 -24q4 0 8.5 1t7.5 2t6.5 4.5l5.5 5.5t5.5 7t5 7t6 9t5.5 9zM204 497v-497h-147v497h147z" />
    <glyph glyph-name="Imacron" unicode="&#x12a;" horiz-adv-x="273" 
d="M285 832h-315v98h315v-98zM213 0h-153v729h153v-729z" />
    <glyph glyph-name="imacron" unicode="&#x12b;" horiz-adv-x="261" 
d="M287 592h-315v98h315v-98zM203 497v-497h-147v497h147z" />
    <glyph glyph-name="Ibreve" unicode="&#x12c;" horiz-adv-x="273" 
d="M31 976q49 -62 105 -63q57 1 106 63l85 -50q-31 -63 -75.5 -91.5t-114.5 -28.5t-115 28.5t-76 91.5zM213 0h-153v729h153v-729z" />
    <glyph glyph-name="ibreve" unicode="&#x12d;" horiz-adv-x="261" 
d="M24 736q49 -62 105 -63q57 1 106 63l85 -50q-31 -63 -75.5 -91.5t-114.5 -28.5t-115 28.5t-76 91.5zM203 497v-497h-147v497h147z" />
    <glyph glyph-name="Iogonek" unicode="&#x12e;" horiz-adv-x="273" 
d="M183 -146l33 -96l-12 -6q-11 -7 -13.5 -8t-13.5 -6.5t-16 -7t-16.5 -5.5t-21 -5t-22.5 -2.5t-26 -1.5q-54 0 -90.5 37t-36.5 93q0 102 112 164v719h153v-729h-3q-152 -79 -152 -143q0 -13 11 -24t31 -11q39 0 83 32z" />
    <glyph glyph-name="iogonek" unicode="&#x12f;" horiz-adv-x="241" 
d="M123 715q38 0 64.5 -26t26.5 -63t-27 -63.5t-64 -26.5q-39 0 -65.5 25t-26.5 64q0 40 26 65t66 25zM199 -243q-25 -15 -35.5 -20.5t-40.5 -13.5t-64 -8q-53 0 -90 38t-37 94q0 75 114 153v497h147v-496q-49 -22 -100 -64.5t-51 -80.5q0 -13 11 -24t31 -11q40 0 82 32z
" />
    <glyph glyph-name="Idotaccent" unicode="&#x130;" horiz-adv-x="273" 
d="M139 962q35 0 59 -23.5t24 -57.5q0 -33 -24.5 -56.5t-58.5 -23.5t-58 23.5t-24 56.5q0 34 24 57.5t58 23.5zM213 0h-153v729h153v-729z" />
    <glyph glyph-name="dotlessi" unicode="&#x131;" horiz-adv-x="261" 
d="M204 497v-497h-147v497h147z" />
    <glyph glyph-name="IJ" unicode="&#x132;" horiz-adv-x="583" 
d="M233 0h-153v729h153v-729zM516 166q0 -91 -20.5 -148t-64.5 -94.5t-127 -74.5q-27 59 -56 109q71 45 93 79.5t22 101.5v590h153v-563z" />
    <glyph glyph-name="ij" unicode="&#x133;" horiz-adv-x="531" 
d="M137 715q38 0 64.5 -26t26.5 -63t-27 -63.5t-64 -26.5q-39 0 -65.5 25t-26.5 64q0 40 26 65t66 25zM400 715q38 0 64.5 -26t26.5 -63t-27 -63.5t-64 -26.5q-39 0 -65.5 25t-26.5 64q0 40 26 65t66 25zM205 497v-497h-147v497h147zM472 81q0 -128 -49 -210t-159 -136
l-52 120q64 54 88.5 105t24.5 134v403h147v-416z" />
    <glyph glyph-name="Jcircumflex" unicode="&#x134;" horiz-adv-x="283" 
d="M316 799q-85 17 -171 68q-81 -49 -171 -67l-19 102q91 23 190 80q59 -35 95.5 -50.5t94.5 -29.5zM224 166q0 -133 -45 -197.5t-167 -119.5q-29 61 -56 109q70 45 92.5 79.5t22.5 101.5v590h153v-563z" />
    <glyph glyph-name="jcircumflex" unicode="&#x135;" horiz-adv-x="244" 
d="M291 559q-85 17 -171 68q-81 -49 -171 -67l-19 102q91 23 190 80q59 -35 95.5 -50.5t94.5 -29.5zM196 81q0 -127 -48.5 -210t-157.5 -143q-21 57 -54 110q64 43 88.5 101.5t24.5 161.5v396h147v-416z" />
    <glyph glyph-name="Kcommaaccent" unicode="&#x136;" horiz-adv-x="711" 
d="M710 6q-79 0 -169 -11l-229 331l-99 -109v-217h-153v729h153v-322l282 329q95 -16 176 -13l-258 -285zM423 -303h-95l-2 95q-29 24 -31 62q0 33 23.5 56t57.5 23t57.5 -23t23.5 -56q-2 -39 -32 -62z" />
    <glyph glyph-name="kcommaaccent" unicode="&#x137;" horiz-adv-x="597" 
d="M201 0h-144v722q75 2 144 13v-407l185 177q88 -13 179 -14l-188 -168l212 -317q-74 -3 -152 -14l-157 243l-79 -71v-164zM366 -303h-95l-2 95q-29 24 -31 62q0 33 23.5 56t57.5 23t57.5 -23t23.5 -56q-2 -39 -32 -62z" />
    <glyph glyph-name="kgreenlandic" unicode="&#x138;" horiz-adv-x="610" 
d="M205 107v-107h-148v491q62 1 148 10v-203l189 207q86 -13 175 -14l-176 -185l216 -300q-82 -3 -168 -14l-148 208z" />
    <glyph glyph-name="Lacute" unicode="&#x139;" horiz-adv-x="581" 
d="M224 879q124 49 236 122l64 -95q-45 -27 -119.5 -58t-149.5 -48zM539 151v-151h-479v729h153v-578h326z" />
    <glyph glyph-name="lacute" unicode="&#x13a;" horiz-adv-x="276" 
d="M71 838q124 49 236 122l64 -95q-45 -27 -119.5 -58t-149.5 -48zM54 722q61 2 147 13v-571q0 -32 21 -32q11 0 21 5q10 -59 29 -118q-47 -25 -102 -25q-116 0 -116 163v565z" />
    <glyph glyph-name="Lcommaaccent" unicode="&#x13b;" horiz-adv-x="581" 
d="M539 151v-151h-479v729h153v-578h326zM358 -303h-95l-2 95q-29 24 -31 62q0 33 23.5 56t57.5 23t57.5 -23t23.5 -56q-2 -39 -32 -62z" />
    <glyph glyph-name="lcommaaccent" unicode="&#x13c;" horiz-adv-x="276" 
d="M54 722q61 2 147 13v-571q0 -32 21 -32q11 0 21 5q10 -59 29 -118q-47 -25 -102 -25q-116 0 -116 163v565zM205 -303h-95l-2 95q-29 24 -31 62q0 33 23.5 56t57.5 23t57.5 -23t23.5 -56q-2 -39 -32 -62z" />
    <glyph glyph-name="Lcaron" unicode="&#x13d;" horiz-adv-x="581" 
d="M478 872q-58 -14 -94.5 -29.5t-95.5 -50.5q-99 57 -190 80l19 103q91 -19 171 -68q84 50 171 69zM539 151v-151h-479v729h153v-578h326z" />
    <glyph glyph-name="lcaron" unicode="&#x13e;" horiz-adv-x="340" 
d="M255 545q14 14 27 33t14 27q-22 1 -41.5 20t-19.5 51t22.5 54.5t56.5 22.5q35 0 59 -24.5t24 -60.5q0 -96 -110 -169zM54 722q61 2 147 13v-571q0 -32 24 -32q16 0 30 7q13 -69 29 -118q-54 -27 -114 -27q-116 0 -116 163v565z" />
    <glyph glyph-name="Ldot" unicode="&#x13f;" horiz-adv-x="580" 
d="M198 729v-579h334v-150h-487v729h153zM417 508q38 0 65 -26.5t27 -63.5t-27 -63.5t-65 -26.5t-65 26.5t-27 63.5t27 63.5t65 26.5z" />
    <glyph glyph-name="ldot" unicode="&#x140;" horiz-adv-x="287" 
d="M54 722q61 2 147 13v-571q0 -32 24 -32q16 0 30 7q13 -69 29 -118q-54 -27 -114 -27q-116 0 -116 163v565zM272 302q-23 0 -39 19.5t-16 46.5q0 28 16 47.5t39 19.5t39 -19.5t16 -47.5q0 -27 -16.5 -46.5t-38.5 -19.5z" />
    <glyph glyph-name="Lslash" unicode="&#x141;" horiz-adv-x="597" 
d="M226 151h327v-151h-480v254l-86 -33q0 43 -13 87l99 40v381h153v-320l226 90q0 -53 13 -95l-239 -92v-161z" />
    <glyph glyph-name="lslash" unicode="&#x142;" horiz-adv-x="276" 
d="M54 722q61 2 147 13v-319l67 29q0 -48 14 -95l-81 -32v-154q0 -32 24 -32q16 0 30 7q13 -69 29 -118q-54 -27 -114 -27q-116 0 -116 163v99l-56 -24q0 48 -13 88l69 31v371z" />
    <glyph glyph-name="Nacute" unicode="&#x143;" horiz-adv-x="736" 
d="M301 879q124 49 236 122l64 -95q-45 -27 -119.5 -58t-149.5 -48zM520 276v452h156v-722q-45 0 -95 -11l-364 431v-426h-157v723q59 4 99 13z" />
    <glyph glyph-name="nacute" unicode="&#x144;" horiz-adv-x="617" 
d="M242 643q124 49 236 122l64 -95q-45 -27 -119.5 -58t-149.5 -48zM57 491q82 5 147 14v-51q56 47 143 47q110 0 165.5 -67.5t55.5 -178.5q0 -99 -14 -263q-79 11 -149 14q9 169 9 227q0 64 -27 97t-78 33q-56 0 -80.5 -39t-24.5 -117v-207h-147v491z" />
    <glyph glyph-name="Ncommaaccent" unicode="&#x145;" horiz-adv-x="736" 
d="M520 276v452h156v-722q-45 0 -95 -11l-364 431v-426h-157v723q59 4 99 13zM435 -303h-95l-2 95q-29 24 -31 62q0 33 23.5 56t57.5 23t57.5 -23t23.5 -56q-2 -39 -32 -62z" />
    <glyph glyph-name="ncommaaccent" unicode="&#x146;" horiz-adv-x="617" 
d="M57 491q82 5 147 14v-51q56 47 143 47q110 0 165.5 -67.5t55.5 -178.5q0 -99 -14 -263q-79 11 -149 14q9 169 9 227q0 64 -27 97t-78 33q-56 0 -80.5 -39t-24.5 -117v-207h-147v491zM376 -303h-95l-2 95q-29 24 -31 62q0 33 23.5 56t57.5 23t57.5 -23t23.5 -56
q-2 -39 -32 -62z" />
    <glyph glyph-name="Ncaron" unicode="&#x147;" horiz-adv-x="736" 
d="M555 872q-58 -14 -94.5 -29.5t-95.5 -50.5q-99 57 -190 80l19 103q91 -19 171 -68q84 50 171 69zM520 276v452h156v-722q-45 0 -95 -11l-364 431v-426h-157v723q59 4 99 13z" />
    <glyph glyph-name="ncaron" unicode="&#x148;" horiz-adv-x="617" 
d="M496 636q-58 -14 -94.5 -29.5t-95.5 -50.5q-99 57 -190 80l19 103q91 -19 171 -68q84 50 171 69zM57 491q82 5 147 14v-51q56 47 143 47q110 0 165.5 -67.5t55.5 -178.5q0 -99 -14 -263q-79 11 -149 14q9 169 9 227q0 64 -27 97t-78 33q-56 0 -80.5 -39t-24.5 -117v-207
h-147v491z" />
    <glyph glyph-name="napostrophe" unicode="&#x149;" horiz-adv-x="664" 
d="M-15 512q14 13 27 32t14 27q-22 1 -41.5 20t-19.5 51t22.5 54.5t56.5 22.5q35 0 59 -24.5t24 -60.5q0 -96 -110 -169zM103 491q82 5 147 14v-67q56 63 143 63q110 0 165.5 -67.5t55.5 -178.5q0 -99 -14 -263q-79 11 -149 14q9 169 9 227q0 64 -27 97t-78 33
q-56 0 -80.5 -39t-24.5 -117v-207h-147v491z" />
    <glyph glyph-name="Eng" unicode="&#x14a;" horiz-adv-x="770" 
d="M696 6q-2 -107 -27 -164q-16 -36 -49 -66.5t-61 -46t-75 -38.5q-24 71 -65 135q8 4 22 10q65 29 80 46q22 24 22 85v96l-306 363v-426h-157v723q59 4 99 13l360 -460v447q84 3 157 13v-730z" />
    <glyph glyph-name="eng" unicode="&#x14b;" horiz-adv-x="619" 
d="M57 491q82 5 147 14v-51q57 47 144 47q96 0 158 -89.5t62 -204.5q0 -58 -0.5 -79.5t-4.5 -59t-14 -80.5q-22 -94 -67 -151.5t-130 -108.5l-66 139q49 27 77 63.5t42 93.5q2 9 4 16t3 16t1.5 14t0.5 17v19v26v31q0 48 -10.5 92t-35.5 76t-59 32q-46 0 -75.5 -23.5
t-29.5 -60.5v-279h-147v491z" />
    <glyph glyph-name="Omacron" unicode="&#x14c;" horiz-adv-x="858" 
d="M579 832h-315v98h315v-98zM44 365q0 167 107.5 272t278.5 105q170 0 277 -105.5t107 -271.5q0 -167 -107 -271.5t-278 -104.5q-170 0 -277.5 105t-107.5 271zM207 365q0 -104 59.5 -165t162.5 -61t162.5 61t59.5 165t-60 165.5t-161 61.5q-103 0 -163 -61.5t-60 -165.5z
" />
    <glyph glyph-name="omacron" unicode="&#x14d;" horiz-adv-x="617" 
d="M459 596h-315v98h315v-98zM40 248q0 111 78 182t190 71q116 0 192.5 -72t76.5 -181q0 -110 -75.5 -182t-190.5 -72t-193 70.5t-78 183.5zM423 248q0 53 -31 83.5t-83 30.5q-51 0 -83 -32t-32 -83q0 -52 31.5 -83t84.5 -31t83 29.5t30 85.5z" />
    <glyph glyph-name="Obreve" unicode="&#x14e;" horiz-adv-x="858" 
d="M325 976q49 -62 105 -63q57 1 106 63l85 -50q-31 -63 -75.5 -91.5t-114.5 -28.5t-115 28.5t-76 91.5zM44 365q0 167 107.5 272t278.5 105q170 0 277 -105.5t107 -271.5q0 -167 -107 -271.5t-278 -104.5q-170 0 -277.5 105t-107.5 271zM207 365q0 -104 59.5 -165
t162.5 -61t162.5 61t59.5 165t-60 165.5t-161 61.5q-103 0 -163 -61.5t-60 -165.5z" />
    <glyph glyph-name="obreve" unicode="&#x14f;" horiz-adv-x="617" 
d="M205 740q49 -62 105 -63q57 1 106 63l85 -50q-31 -63 -75.5 -91.5t-114.5 -28.5t-115 28.5t-76 91.5zM40 248q0 111 78 182t190 71q116 0 192.5 -72t76.5 -181q0 -110 -75.5 -182t-190.5 -72t-193 70.5t-78 183.5zM423 248q0 53 -31 83.5t-83 30.5q-51 0 -83 -32t-32 -83
q0 -52 31.5 -83t84.5 -31t83 29.5t30 85.5z" />
    <glyph glyph-name="Ohungarumlaut" unicode="&#x150;" horiz-adv-x="858" 
d="M278 847q86 67 155 150l80 -61q-76 -83 -186 -145zM449 847q87 68 154 150l80 -61q-27 -31 -78.5 -72.5t-106.5 -72.5zM44 365q0 167 107.5 272t278.5 105q170 0 277 -105.5t107 -271.5q0 -167 -107 -271.5t-278 -104.5q-170 0 -277.5 105t-107.5 271zM207 365
q0 -104 59.5 -165t162.5 -61t162.5 61t59.5 165t-60 165.5t-161 61.5q-103 0 -163 -61.5t-60 -165.5z" />
    <glyph glyph-name="ohungarumlaut" unicode="&#x151;" horiz-adv-x="617" 
d="M158 611q86 67 155 150l80 -61q-76 -83 -186 -145zM329 611q87 68 154 150l80 -61q-27 -31 -78.5 -72.5t-106.5 -72.5zM40 248q0 111 78 182t190 71q116 0 192.5 -72t76.5 -181q0 -110 -75.5 -182t-190.5 -72t-193 70.5t-78 183.5zM423 248q0 53 -31 83.5t-83 30.5
q-51 0 -83 -32t-32 -83q0 -52 31.5 -83t84.5 -31t83 29.5t30 85.5z" />
    <glyph glyph-name="OE" unicode="&#x152;" horiz-adv-x="1063" 
d="M542 729h464v-151h-315v-133h222v-144h-222v-150h334v-151h-483v93q-29 -51 -83 -77.5t-114 -26.5q-145 0 -226.5 103t-81.5 273t81.5 273.5t227.5 103.5q68 0 120 -27t76 -79v93zM538 367q0 54 -10 94q-11 44 -30 70q-45 60 -128 60q-170 0 -170 -226q0 -225 169 -225
q85 0 129 58q40 54 40 169z" />
    <glyph glyph-name="oe" unicode="&#x153;" horiz-adv-x="841" 
d="M498 199q6 -40 39 -59.5t80 -19.5q62 0 101 36q33 -53 74 -94q-79 -68 -187 -68q-101 0 -168 64q-61 -61 -160 -64q-100 0 -168.5 70.5t-68.5 182.5q0 111 68 182.5t167 71.5q94 0 159 -62q73 62 159 62q97 0 154 -68t57 -179q0 -26 -7 -55h-299zM669 300q1 22 -21 47.5
t-57 25.5q-46 0 -71 -25.5t-25 -47.5h174zM276 362q-40 0 -64.5 -32t-24.5 -84t24.5 -83t65.5 -31q44 0 69 29.5t25 86.5q0 53 -26 83.5t-69 30.5z" />
    <glyph glyph-name="Racute" unicode="&#x154;" horiz-adv-x="699" 
d="M283 879q124 49 236 122l64 -95q-45 -27 -119.5 -58t-149.5 -48zM672 7q-82 -2 -155 -12l-102 192q-47 -9 -131 -9q-40 0 -71 2v-180h-153v719q200 23 261 23q63 0 120.5 -17t105 -50.5t75.5 -90.5t28 -129q-5 -141 -104 -213zM213 325q75 -5 120 -5q63 0 108.5 33
t45.5 102q0 60 -46.5 98t-122.5 38q-40 0 -105 -5v-261z" />
    <glyph glyph-name="racute" unicode="&#x155;" horiz-adv-x="371" 
d="M139 643q124 49 236 122l64 -95q-45 -27 -119.5 -58t-149.5 -48zM57 491q82 5 143 14v-65q18 26 55 43.5t77 17.5q11 0 39 -4l-28 -137q-19 3 -39 3q-49 0 -73 -28t-24 -71v-264h-150v491z" />
    <glyph glyph-name="Rcommaaccent" unicode="&#x156;" horiz-adv-x="699" 
d="M672 7q-82 -2 -155 -12l-102 192q-47 -9 -131 -9q-40 0 -71 2v-180h-153v719q200 23 261 23q63 0 120.5 -17t105 -50.5t75.5 -90.5t28 -129q-5 -141 -104 -213zM213 325q75 -5 120 -5q63 0 108.5 33t45.5 102q0 60 -46.5 98t-122.5 38q-40 0 -105 -5v-261zM417 -303h-95
l-2 95q-29 24 -31 62q0 33 23.5 56t57.5 23t57.5 -23t23.5 -56q-2 -39 -32 -62z" />
    <glyph glyph-name="rcommaaccent" unicode="&#x157;" horiz-adv-x="371" 
d="M57 491q82 5 143 14v-65q18 26 55 43.5t77 17.5q11 0 39 -4l-28 -137q-19 3 -39 3q-49 0 -73 -28t-24 -71v-264h-150v491zM183 -299h-95l-2 95q-29 24 -31 62q0 33 23.5 56t57.5 23t57.5 -23t23.5 -56q-2 -39 -32 -62z" />
    <glyph glyph-name="Rcaron" unicode="&#x158;" horiz-adv-x="699" 
d="M537 872q-58 -14 -94.5 -29.5t-95.5 -50.5q-99 57 -190 80l19 103q91 -19 171 -68q84 50 171 69zM672 7q-82 -2 -155 -12l-102 192q-47 -9 -131 -9q-40 0 -71 2v-180h-153v719q200 23 261 23q63 0 120.5 -17t105 -50.5t75.5 -90.5t28 -129q-5 -141 -104 -213zM213 325
q75 -5 120 -5q63 0 108.5 33t45.5 102q0 60 -46.5 98t-122.5 38q-40 0 -105 -5v-261z" />
    <glyph glyph-name="rcaron" unicode="&#x159;" horiz-adv-x="371" 
d="M393 636q-58 -14 -94.5 -29.5t-95.5 -50.5q-99 57 -190 80l19 103q91 -19 171 -68q84 50 171 69zM57 491q82 5 143 14v-65q18 26 55 43.5t77 17.5q11 0 39 -4l-28 -137q-19 3 -39 3q-49 0 -73 -28t-24 -71v-264h-150v491z" />
    <glyph glyph-name="Sacute" unicode="&#x15a;" horiz-adv-x="672" 
d="M269 879q124 49 236 122l64 -95q-45 -27 -119.5 -58t-149.5 -48zM84 204q40 -26 115 -47.5t133 -21.5q147 0 147 66q0 34 -36 51t-145 45q-38 10 -65.5 18.5t-66 26.5t-63 39t-42.5 55t-18 75q0 112 76 171.5t215 59.5q76 0 163.5 -21t129.5 -49l-68 -144
q-111 68 -223 68q-130 0 -130 -67q0 -36 34 -51.5t152 -44.5q63 -16 104 -32t77 -42t52.5 -64.5t16.5 -92.5q0 -101 -84.5 -157t-237.5 -56q-164 0 -302 71z" />
    <glyph glyph-name="sacute" unicode="&#x15b;" horiz-adv-x="498" 
d="M192 643q124 49 236 122l64 -95q-45 -27 -119.5 -58t-149.5 -48zM77 172q30 -20 84 -37t95 -17q32 0 44.5 8t12.5 25q0 10 -5.5 16.5t-22 12.5t-29 9t-44.5 10q-171 34 -171 142q0 79 56.5 119.5t152.5 40.5q58 0 115 -17t96 -46l-59 -109q-29 20 -72 36t-81 16
q-31 0 -42.5 -6.5t-11.5 -24.5q0 -15 15 -23.5t52 -16.5q33 -7 47.5 -10.5t44.5 -12.5t45 -19t33.5 -25.5t26.5 -37.5t8 -49q0 -74 -55 -118t-147 -44q-143 0 -239 58z" />
    <glyph glyph-name="Scircumflex" unicode="&#x15c;" horiz-adv-x="672" 
d="M510 799q-85 17 -171 68q-81 -49 -171 -67l-19 102q91 23 190 80q59 -35 95.5 -50.5t94.5 -29.5zM84 204q40 -26 115 -47.5t133 -21.5q147 0 147 66q0 34 -36 51t-145 45q-38 10 -65.5 18.5t-66 26.5t-63 39t-42.5 55t-18 75q0 112 76 171.5t215 59.5q76 0 163.5 -21
t129.5 -49l-68 -144q-111 68 -223 68q-130 0 -130 -67q0 -36 34 -51.5t152 -44.5q63 -16 104 -32t77 -42t52.5 -64.5t16.5 -92.5q0 -101 -84.5 -157t-237.5 -56q-164 0 -302 71z" />
    <glyph glyph-name="scircumflex" unicode="&#x15d;" horiz-adv-x="498" 
d="M433 563q-85 17 -171 68q-81 -49 -171 -67l-19 102q91 23 190 80q59 -35 95.5 -50.5t94.5 -29.5zM77 172q30 -20 84 -37t95 -17q32 0 44.5 8t12.5 25q0 10 -5.5 16.5t-22 12.5t-29 9t-44.5 10q-171 34 -171 142q0 79 56.5 119.5t152.5 40.5q58 0 115 -17t96 -46l-59 -109
q-29 20 -72 36t-81 16q-31 0 -42.5 -6.5t-11.5 -24.5q0 -15 15 -23.5t52 -16.5q33 -7 47.5 -10.5t44.5 -12.5t45 -19t33.5 -25.5t26.5 -37.5t8 -49q0 -74 -55 -118t-147 -44q-143 0 -239 58z" />
    <glyph glyph-name="Scedilla" unicode="&#x15e;" horiz-adv-x="672" 
d="M84 204q40 -26 115 -47.5t133 -21.5q147 0 147 66q0 34 -36 51t-145 45q-38 10 -65.5 18.5t-66 26.5t-63 39t-42.5 55t-18 75q0 112 76 171.5t215 59.5q76 0 163.5 -21t129.5 -49l-68 -144q-111 68 -223 68q-130 0 -130 -67q0 -36 34 -51.5t152 -44.5q63 -16 104 -32
t77 -42t52.5 -64.5t16.5 -92.5q0 -101 -84.5 -157t-237.5 -56q-164 0 -302 71zM170 -214q122 -64 200 -64q30 0 48 12.5t18 33.5q0 18 -10.5 28.5t-27.5 10.5q-28 0 -52 -24l-83 56q62 69 140 69q66 0 106 -40.5t40 -104.5q0 -63 -46.5 -102.5t-121.5 -39.5q-54 0 -125.5 24
t-120.5 67z" />
    <glyph glyph-name="scedilla" unicode="&#x15f;" horiz-adv-x="498" 
d="M77 172q30 -20 84 -37t95 -17q32 0 44.5 8t12.5 25q0 10 -5.5 16.5t-22 12.5t-29 9t-44.5 10q-171 34 -171 142q0 79 56.5 119.5t152.5 40.5q58 0 115 -17t96 -46l-59 -109q-29 20 -72 36t-81 16q-31 0 -42.5 -6.5t-11.5 -24.5q0 -15 15 -23.5t52 -16.5q33 -7 47.5 -10.5
t44.5 -12.5t45 -19t33.5 -25.5t26.5 -37.5t8 -49q0 -74 -55 -118t-147 -44q-143 0 -239 58zM73 -214q122 -64 200 -64q30 0 48 12.5t18 33.5q0 18 -10.5 28.5t-27.5 10.5q-28 0 -52 -24l-83 56q62 69 140 69q66 0 106 -40.5t40 -104.5q0 -63 -46.5 -102.5t-121.5 -39.5
q-54 0 -125.5 24t-120.5 67z" />
    <glyph glyph-name="Scaron" unicode="&#x160;" horiz-adv-x="672" 
d="M523 872q-58 -14 -94.5 -29.5t-95.5 -50.5q-99 57 -190 80l19 103q91 -19 171 -68q84 50 171 69zM84 204q40 -26 115 -47.5t133 -21.5q147 0 147 66q0 34 -36 51t-145 45q-38 10 -65.5 18.5t-66 26.5t-63 39t-42.5 55t-18 75q0 112 76 171.5t215 59.5q76 0 163.5 -21
t129.5 -49l-68 -144q-111 68 -223 68q-130 0 -130 -67q0 -36 34 -51.5t152 -44.5q63 -16 104 -32t77 -42t52.5 -64.5t16.5 -92.5q0 -101 -84.5 -157t-237.5 -56q-164 0 -302 71z" />
    <glyph glyph-name="scaron" unicode="&#x161;" horiz-adv-x="498" 
d="M446 636q-58 -14 -94.5 -29.5t-95.5 -50.5q-99 57 -190 80l19 103q91 -19 171 -68q84 50 171 69zM77 172q30 -20 84 -37t95 -17q32 0 44.5 8t12.5 25q0 10 -5.5 16.5t-22 12.5t-29 9t-44.5 10q-171 34 -171 142q0 79 56.5 119.5t152.5 40.5q58 0 115 -17t96 -46l-59 -109
q-29 20 -72 36t-81 16q-31 0 -42.5 -6.5t-11.5 -24.5q0 -15 15 -23.5t52 -16.5q33 -7 47.5 -10.5t44.5 -12.5t45 -19t33.5 -25.5t26.5 -37.5t8 -49q0 -74 -55 -118t-147 -44q-143 0 -239 58z" />
    <glyph glyph-name="uni0162" unicode="&#x162;" horiz-adv-x="652" 
d="M406 0h-160v578h-221v151h603v-151h-222v-578zM393 -303h-95l-2 95q-29 24 -31 62q0 33 23.5 56t57.5 23t57.5 -23t23.5 -56q-2 -39 -32 -62z" />
    <glyph glyph-name="uni0163" unicode="&#x163;" horiz-adv-x="399" 
d="M82 497v116q56 0 144 4v-120h141q-4 -41 -4 -123l-137 -5v-175q0 -70 53 -70q34 0 80 18q13 -63 36 -118q-20 -13 -67.5 -21.5t-94.5 -8.5q-151 0 -151 157v217l-55 -2v131h55zM267 -303h-95l-2 95q-29 24 -31 62q0 33 23.5 56t57.5 23t57.5 -23t23.5 -56q-2 -39 -32 -62
z" />
    <glyph glyph-name="Tcaron" unicode="&#x164;" horiz-adv-x="652" 
d="M513 872q-58 -14 -94.5 -29.5t-95.5 -50.5q-99 57 -190 80l19 103q91 -19 171 -68q84 50 171 69zM406 0h-160v578h-221v151h603v-151h-222v-578z" />
    <glyph glyph-name="tcaron" unicode="&#x165;" horiz-adv-x="468" 
d="M390 512q14 13 27 32t14 27q-22 1 -42 20t-20 51t22.5 54.5t56.5 22.5q35 0 59 -24.5t24 -60.5q0 -96 -109 -169zM82 497v116q56 0 144 4v-120h141q-4 -41 -4 -123l-137 -5v-175q0 -71 53 -71q32 0 80 19q13 -63 36 -118q-20 -13 -67.5 -21.5t-94.5 -8.5q-151 0 -151 157
v217l-55 -2v131h55z" />
    <glyph glyph-name="Tbar" unicode="&#x166;" horiz-adv-x="659" 
d="M487 450v-98h-78v-352h-160v352h-77v98h77v128h-221v151h603v-151h-222v-128h78z" />
    <glyph glyph-name="tbar" unicode="&#x167;" horiz-adv-x="408" 
d="M389 330q-4 -33 -4 -98h-159v-37q0 -72 49 -72q41 0 95 18q11 -66 34 -127q-66 -20 -171 -20q-151 0 -151 157v81h-54v98h54v58l-55 -1v107h55v119q56 0 144 4v-123h151q-3 -35 -3 -105h-148v-59h163z" />
    <glyph glyph-name="Utilde" unicode="&#x168;" horiz-adv-x="872" 
d="M633 939q-11 -29 -19 -46t-23.5 -39.5t-37.5 -33t-51 -10.5t-65.5 21.5t-52.5 21.5q-12 0 -22.5 -6t-16.5 -13t-16 -21l-86 35q42 122 127 122q27 0 69.5 -24t56.5 -24q4 0 8.5 1t7.5 2t6.5 4.5l5.5 5.5t5.5 7t5 7t6 9t5.5 9zM779 736q51 -187 51 -336
q0 -190 -101 -300.5t-290 -110.5q-194 0 -295.5 109t-101.5 305q0 152 52 333q84 -14 163 -14q-52 -184 -52 -319q0 -136 57 -199.5t177 -63.5q119 0 173.5 66.5t54.5 200.5q0 123 -53 315q83 0 165 14z" />
    <glyph glyph-name="utilde" unicode="&#x169;" horiz-adv-x="613" 
d="M504 703q-11 -29 -19 -46t-23.5 -39.5t-37.5 -33t-51 -10.5t-65.5 21.5t-52.5 21.5q-12 0 -22.5 -6t-16.5 -13t-16 -21l-86 35q42 122 127 122q27 0 69.5 -24t56.5 -24q4 0 8.5 1t7.5 2t6.5 4.5l5.5 5.5t5.5 7t5 7t6 9t5.5 9zM556 7q-70 -4 -147 -15v52q-58 -50 -138 -50
q-112 0 -169 67.5t-57 178.5q0 102 14 266q79 -11 149 -14q-9 -171 -9 -230q0 -130 105 -130q56 0 80.5 40t24.5 119v207h147v-491z" />
    <glyph glyph-name="Umacron" unicode="&#x16a;" horiz-adv-x="872" 
d="M584 832h-315v98h315v-98zM779 736q51 -187 51 -336q0 -190 -101 -300.5t-290 -110.5q-194 0 -295.5 109t-101.5 305q0 152 52 333q84 -14 163 -14q-52 -184 -52 -319q0 -136 57 -199.5t177 -63.5q119 0 173.5 66.5t54.5 200.5q0 123 -53 315q83 0 165 14z" />
    <glyph glyph-name="umacron" unicode="&#x16b;" horiz-adv-x="613" 
d="M455 596h-315v98h315v-98zM556 7q-70 -4 -147 -15v52q-58 -50 -138 -50q-112 0 -169 67.5t-57 178.5q0 102 14 266q79 -11 149 -14q-9 -171 -9 -230q0 -130 105 -130q56 0 80.5 40t24.5 119v207h147v-491z" />
    <glyph glyph-name="Ubreve" unicode="&#x16c;" horiz-adv-x="872" 
d="M330 976q49 -62 105 -63q57 1 106 63l85 -50q-31 -63 -75.5 -91.5t-114.5 -28.5t-115 28.5t-76 91.5zM779 736q51 -187 51 -336q0 -190 -101 -300.5t-290 -110.5q-194 0 -295.5 109t-101.5 305q0 152 52 333q84 -14 163 -14q-52 -184 -52 -319q0 -136 57 -199.5
t177 -63.5q119 0 173.5 66.5t54.5 200.5q0 123 -53 315q83 0 165 14z" />
    <glyph glyph-name="ubreve" unicode="&#x16d;" horiz-adv-x="613" 
d="M201 740q49 -62 105 -63q57 1 106 63l85 -50q-31 -63 -75.5 -91.5t-114.5 -28.5t-115 28.5t-76 91.5zM556 7q-70 -4 -147 -15v52q-58 -50 -138 -50q-112 0 -169 67.5t-57 178.5q0 102 14 266q79 -11 149 -14q-9 -171 -9 -230q0 -130 105 -130q56 0 80.5 40t24.5 119v207
h147v-491z" />
    <glyph glyph-name="Uring" unicode="&#x16e;" horiz-adv-x="872" 
d="M560 899q0 -49 -36 -83.5t-87 -34.5q-50 0 -86 34.5t-36 83.5q0 48 36 82.5t86 34.5q51 0 87 -34t36 -83zM438 939q-21 0 -32.5 -11.5t-11.5 -30.5q0 -16 13 -27t31 -11t31 11t13 27q0 19 -11.5 30.5t-32.5 11.5zM779 736q51 -187 51 -336q0 -190 -101 -300.5
t-290 -110.5q-194 0 -295.5 109t-101.5 305q0 152 52 333q84 -14 163 -14q-52 -184 -52 -319q0 -136 57 -199.5t177 -63.5q119 0 173.5 66.5t54.5 200.5q0 123 -53 315q83 0 165 14z" />
    <glyph glyph-name="uring" unicode="&#x16f;" horiz-adv-x="613" 
d="M431 663q0 -49 -36 -83.5t-87 -34.5q-50 0 -86 34.5t-36 83.5q0 48 36 82.5t86 34.5q51 0 87 -34t36 -83zM309 703q-21 0 -32.5 -11.5t-11.5 -30.5q0 -16 13 -27t31 -11t31 11t13 27q0 19 -11.5 30.5t-32.5 11.5zM556 7q-70 -4 -147 -15v52q-58 -50 -138 -50
q-112 0 -169 67.5t-57 178.5q0 102 14 266q79 -11 149 -14q-9 -171 -9 -230q0 -130 105 -130q56 0 80.5 40t24.5 119v207h147v-491z" />
    <glyph glyph-name="Uhungarumlaut" unicode="&#x170;" horiz-adv-x="872" 
d="M283 847q86 67 155 150l80 -61q-76 -83 -186 -145zM454 847q87 68 154 150l80 -61q-27 -31 -78.5 -72.5t-106.5 -72.5zM779 736q51 -187 51 -336q0 -190 -101 -300.5t-290 -110.5q-194 0 -295.5 109t-101.5 305q0 152 52 333q84 -14 163 -14q-52 -184 -52 -319
q0 -136 57 -199.5t177 -63.5q119 0 173.5 66.5t54.5 200.5q0 123 -53 315q83 0 165 14z" />
    <glyph glyph-name="uhungarumlaut" unicode="&#x171;" horiz-adv-x="613" 
d="M154 611q86 67 155 150l80 -61q-76 -83 -186 -145zM325 611q87 68 154 150l80 -61q-27 -31 -78.5 -72.5t-106.5 -72.5zM556 7q-70 -4 -147 -15v52q-58 -50 -138 -50q-112 0 -169 67.5t-57 178.5q0 102 14 266q79 -11 149 -14q-9 -171 -9 -230q0 -130 105 -130
q56 0 80.5 40t24.5 119v207h147v-491z" />
    <glyph glyph-name="Uogonek" unicode="&#x172;" horiz-adv-x="872" 
d="M587 11q-138 -76 -138 -136q0 -13 11 -24t31 -11q39 0 83 32l33 -96l-11 -6q-12 -7 -14.5 -8t-13.5 -6.5t-16 -7t-16.5 -5.5t-21 -5t-22.5 -2.5t-26 -1.5q-54 0 -90.5 37t-36.5 93q0 73 58 126q-174 12 -264.5 120t-90.5 293q0 152 52 333q84 -14 163 -14
q-52 -184 -52 -319q0 -136 57 -199.5t177 -63.5q119 0 173.5 66.5t54.5 200.5q0 123 -53 315q83 0 165 14q51 -187 51 -336q0 -148 -62 -249t-181 -140z" />
    <glyph glyph-name="uogonek" unicode="&#x173;" horiz-adv-x="613" 
d="M527 -140l33 -96l-12 -6q-11 -7 -13.5 -8t-13.5 -6.5t-16 -7t-16.5 -5.5t-21 -5t-22.5 -2.5t-26 -1.5q-54 0 -90.5 37t-36.5 93q0 103 117 167v25q-58 -50 -138 -50q-112 0 -169 67.5t-57 178.5q0 102 14 266q79 -11 149 -14q-9 -171 -9 -230q0 -130 105 -130
q56 0 80.5 40t24.5 119v207h147v-491q-154 -79 -154 -144q0 -13 11 -24t31 -11q39 0 83 32z" />
    <glyph glyph-name="Wcircumflex" unicode="&#x174;" horiz-adv-x="1024" 
d="M686 799q-85 17 -171 68q-81 -49 -171 -67l-19 102q91 23 190 80q59 -35 95.5 -50.5t94.5 -29.5zM581 722q51 0 171 14l-165 -334l79 -177l190 511q82 -14 171 -14l-306 -722h-100l-114 252l-104 -252h-100l-306 722q89 0 170 14l190 -511l72 184l-160 327
q84 -14 168 -14l73 -176z" />
    <glyph glyph-name="wcircumflex" unicode="&#x175;" horiz-adv-x="833" 
d="M591 563q-85 17 -171 68q-81 -49 -171 -67l-19 102q91 23 190 80q59 -35 95.5 -50.5t94.5 -29.5zM348 267q-15 27 -41 76.5t-48 89t-42 72.5q81 -14 145 -14l61 -112l55 112q46 0 146 14q-27 -43 -78.5 -133.5t-59.5 -104.5l45 -97l147 335q81 -13 153 -14l-251 -491h-85
q-22 42 -83 153q-12 -24 -36.5 -76t-37.5 -77h-85l-251 491q72 1 153 14l150 -335z" />
    <glyph glyph-name="Ycircumflex" unicode="&#x176;" horiz-adv-x="677" 
d="M512 799q-85 17 -171 68q-81 -49 -171 -67l-19 102q91 23 190 80q59 -35 95.5 -50.5t94.5 -29.5zM514 736q76 -12 165 -14l-264 -435v-287h-153v286l-265 436q81 -1 168 14l173 -289z" />
    <glyph glyph-name="ycircumflex" unicode="&#x177;" horiz-adv-x="540" 
d="M444 563q-85 17 -171 68q-81 -49 -171 -67l-19 102q91 23 190 80q59 -35 95.5 -50.5t94.5 -29.5zM391 505q59 -9 148 -14l-207 -534q-46 -118 -96 -166.5t-123 -53.5l-52 110q83 25 115 99l31 75l-202 470q89 5 157 14l118 -320z" />
    <glyph glyph-name="Ydieresis" unicode="&#x178;" horiz-adv-x="677" 
d="M225 969q33 0 56.5 -23t23.5 -56q0 -32 -23.5 -55t-56.5 -23t-56.5 23t-23.5 55q0 33 23.5 56t56.5 23zM458 965q34 0 57 -23t23 -56q0 -32 -23.5 -55t-56.5 -23t-56.5 23t-23.5 55q0 33 23.5 56t56.5 23zM514 736q76 -12 165 -14l-264 -435v-287h-153v286l-265 436
q81 -1 168 14l173 -289z" />
    <glyph glyph-name="Zacute" unicode="&#x179;" horiz-adv-x="631" 
d="M249 879q124 49 236 122l64 -95q-45 -27 -119.5 -58t-149.5 -48zM241 151h359v-152l-546 1l-42 104l376 474h-337v151h518l44 -104z" />
    <glyph glyph-name="zacute" unicode="&#x17a;" horiz-adv-x="504" 
d="M185 643q124 49 236 122l64 -95q-45 -27 -119.5 -58t-149.5 -48zM240 129q39 1 114.5 2t113.5 2v-134h-405l-34 91l245 283q-45 -4 -214 -9v134h381l32 -91z" />
    <glyph glyph-name="Zdotaccent" unicode="&#x17b;" horiz-adv-x="631" 
d="M318 962q35 0 59 -23.5t24 -57.5q0 -33 -24.5 -56.5t-58.5 -23.5t-58 23.5t-24 56.5q0 34 24 57.5t58 23.5zM241 151h359v-152l-546 1l-42 104l376 474h-337v151h518l44 -104z" />
    <glyph glyph-name="zdotaccent" unicode="&#x17c;" horiz-adv-x="504" 
d="M254 726q35 0 59 -23.5t24 -57.5q0 -33 -24.5 -56.5t-58.5 -23.5t-58 23.5t-24 56.5q0 34 24 57.5t58 23.5zM240 129q39 1 114.5 2t113.5 2v-134h-405l-34 91l245 283q-45 -4 -214 -9v134h381l32 -91z" />
    <glyph glyph-name="Zcaron" unicode="&#x17d;" horiz-adv-x="631" 
d="M503 872q-58 -14 -94.5 -29.5t-95.5 -50.5q-99 57 -190 80l19 103q91 -19 171 -68q84 50 171 69zM241 151h359v-152l-546 1l-42 104l376 474h-337v151h518l44 -104z" />
    <glyph glyph-name="zcaron" unicode="&#x17e;" horiz-adv-x="504" 
d="M439 636q-58 -14 -94.5 -29.5t-95.5 -50.5q-99 57 -190 80l19 103q91 -19 171 -68q84 50 171 69zM240 129q39 1 114.5 2t113.5 2v-134h-405l-34 91l245 283q-45 -4 -214 -9v134h381l32 -91z" />
    <glyph glyph-name="longs" unicode="&#x17f;" horiz-adv-x="358" 
d="M92 -236v600l-56 -3v133h56v4q0 116 51 170t166 54q21 0 61 -5v-138q-24 3 -43 3q-50 0 -70 -20.5t-20 -64.5l-1 -733h-144z" />
    <glyph glyph-name="uni018F" unicode="&#x18f;" horiz-adv-x="777" 
d="M552 429q-1 70 -56 116.5t-141 46.5q-51 0 -108.5 -22.5t-95.5 -63.5l-96 118q47 50 135 84t165 34q184 0 276.5 -101.5t92.5 -277.5q0 -172 -86 -273t-254 -101q-78 0 -139.5 24t-98 60.5t-61 85.5t-33.5 94t-9 91q0 48 12 85h497zM219 295q0 -77 45 -116t120 -39
q78 0 126 40t47 115h-338z" />
    <glyph glyph-name="florin" unicode="&#x192;" horiz-adv-x="511" 
d="M53 61q34 -39 59 -39q27 0 36 98l21 244l-67 -3l9 133h69l1 10q11 115 61.5 166.5t163.5 51.5q24 0 61 -5l-12 -138l-38 3q-46 1 -62 -16t-20 -56l-1 -16h114l-9 -133l-117 2l-29 -340q-5 -61 -53 -107t-109 -46q-129 0 -192 88z" />
    <glyph glyph-name="uni01C5" unicode="&#x1c5;" horiz-adv-x="1266" 
d="M60 728q138 14 259 14q182 0 291 -96.5t109 -275.5q0 -169 -104 -275t-277 -106q-115 0 -278 14v725zM1201 636q-58 -14 -94.5 -29.5t-95.5 -50.5q-99 57 -190 80l19 103q91 -19 171 -68q84 50 171 69zM213 145q61 -6 127 -6q99 0 156 62.5t57 170.5q0 101 -57.5 160.5
t-157.5 59.5q-55 0 -125 -9v-438zM1002 129q39 1 114.5 2t113.5 2v-134h-405l-34 91l245 283q-45 -4 -214 -9v134h381l32 -91z" />
    <glyph glyph-name="uni01C6" unicode="&#x1c6;" horiz-adv-x="1143" 
d="M1078 636q-58 -14 -94.5 -29.5t-95.5 -50.5q-99 57 -190 80l19 103q91 -19 171 -68q84 50 171 69zM582 6q-64 -3 -144 -14v63q-48 -61 -150 -61q-110 0 -179 69t-69 183q0 116 65.5 185.5t179.5 69.5q104 0 153 -49v270q73 0 144 13v-729zM879 129q39 1 114.5 2t113.5 2
v-134h-405l-34 91l245 283q-45 -4 -214 -9v134h381l32 -91zM314 370q-54 0 -89 -32t-35 -92t34 -90.5t90 -30.5q59 0 94 41q25 31 25 78q0 55 -30 90q-33 36 -89 36z" />
    <glyph glyph-name="uni01C7" unicode="&#x1c7;" horiz-adv-x="864" 
d="M539 151v-151h-479v729h153v-578h326zM805 166q0 -133 -45 -197.5t-167 -119.5q-29 61 -56 109q70 45 92.5 79.5t22.5 101.5v590h153v-563z" />
    <glyph glyph-name="uni01C8" unicode="&#x1c8;" horiz-adv-x="838" 
d="M539 151v-151h-479v729h153v-578h326zM709 715q38 0 65 -26t27 -63t-27 -63.5t-65 -26.5t-64.5 25t-26.5 64q0 40 26 65t65 25zM782 81q0 -127 -48.5 -210t-157.5 -143q-23 57 -54 110q64 43 88.5 101.5t24.5 161.5v396h147v-416z" />
    <glyph glyph-name="uni01C9" unicode="&#x1c9;" horiz-adv-x="537" 
d="M54 722q61 2 147 13v-571q0 -32 21 -32q11 0 21 5q10 -59 29 -118q-47 -25 -102 -25q-116 0 -116 163v565zM408 715q38 0 65 -26t27 -63t-27 -63.5t-65 -26.5t-64.5 25t-26.5 64q0 40 26 65t65 25zM481 81q0 -127 -48.5 -210t-157.5 -143q-23 57 -54 110
q64 43 88.5 101.5t24.5 161.5v396h147v-416z" />
    <glyph glyph-name="uni01CA" unicode="&#x1ca;" horiz-adv-x="1019" 
d="M520 276v452h156v-722q-45 0 -95 -11l-364 431v-426h-157v723q59 4 99 13zM960 166q0 -133 -45 -197.5t-167 -119.5q-29 61 -56 109q70 45 92.5 79.5t22.5 101.5v590h153v-563z" />
    <glyph glyph-name="uni01CB" unicode="&#x1cb;" horiz-adv-x="1021" 
d="M520 276v452h156v-722q-45 0 -95 -11l-364 431v-426h-157v723q59 4 99 13zM892 715q38 0 65 -26t27 -63t-27 -63.5t-65 -26.5t-64.5 25t-26.5 64q0 40 26 65t65 25zM965 81q0 -127 -48.5 -210t-157.5 -143q-23 57 -54 110q64 43 88.5 101.5t24.5 161.5v396h147v-416z" />
    <glyph glyph-name="uni01CC" unicode="&#x1cc;" horiz-adv-x="878" 
d="M749 715q38 0 65 -26t27 -63t-27 -63.5t-65 -26.5t-64.5 25t-26.5 64q0 40 26 65t65 25zM57 491q82 5 147 14v-51q56 47 143 47q110 0 165.5 -67.5t55.5 -178.5q0 -99 -14 -263q-79 11 -149 14q9 169 9 227q0 64 -27 97t-78 33q-56 0 -80.5 -39t-24.5 -117v-207h-147v491
zM822 81q0 -127 -48.5 -210t-157.5 -143q-23 57 -54 110q64 43 88.5 101.5t24.5 161.5v396h147v-416z" />
    <glyph glyph-name="uni01CD" unicode="&#x1cd;" horiz-adv-x="729" 
d="M553 872q-58 -14 -94.5 -29.5t-95.5 -50.5q-99 57 -190 80l19 103q91 -19 171 -68q84 50 171 69zM226 150l-63 -155q-86 10 -163 11l314 723h103l312 -723q-77 0 -163 -11l-63 155h-277zM364 489l-85 -207h170z" />
    <glyph glyph-name="uni01CE" unicode="&#x1ce;" horiz-adv-x="561" 
d="M468 636q-58 -14 -94.5 -29.5t-95.5 -50.5q-99 57 -190 80l19 103q91 -19 171 -68q84 50 171 69zM346 323q0 19 -18 35.5t-62 16.5q-42 0 -68.5 -11t-54.5 -36l-97 82q35 38 93 64.5t132 26.5q99 0 160.5 -43t61.5 -134v-121q0 -104 46 -157l-113 -59q-14 15 -23 41
t-9 43q-21 -35 -69 -55.5t-109 -20.5q-98 0 -139 39.5t-41 112.5q0 79 69 120t197 38l44 -1v19zM299 199q-50 2 -82 -10t-32 -35t15 -32t45 -9q52 0 78.5 25t24.5 59z" />
    <glyph glyph-name="uni01CF" unicode="&#x1cf;" horiz-adv-x="273" 
d="M324 872q-58 -14 -94.5 -29.5t-95.5 -50.5q-99 57 -190 80l19 103q91 -19 171 -68q84 50 171 69zM213 0h-153v729h153v-729z" />
    <glyph glyph-name="uni01D0" unicode="&#x1d0;" horiz-adv-x="261" 
d="M293 639q-50 -15 -82 -30.5t-82 -49.5q-87 58 -165 80l17 102q46 -11 78 -26t69 -42q76 52 148 69zM204 497v-497h-147v497h147z" />
    <glyph glyph-name="uni01D1" unicode="&#x1d1;" horiz-adv-x="858" 
d="M618 872q-58 -14 -94.5 -29.5t-95.5 -50.5q-99 57 -190 80l19 103q91 -19 171 -68q84 50 171 69zM44 365q0 167 107.5 272t278.5 105q170 0 277 -105.5t107 -271.5q0 -167 -107 -271.5t-278 -104.5q-170 0 -277.5 105t-107.5 271zM207 365q0 -104 59.5 -165t162.5 -61
t162.5 61t59.5 165t-60 165.5t-161 61.5q-103 0 -163 -61.5t-60 -165.5z" />
    <glyph glyph-name="uni01D2" unicode="&#x1d2;" horiz-adv-x="617" 
d="M498 636q-58 -14 -94.5 -29.5t-95.5 -50.5q-99 57 -190 80l19 103q91 -19 171 -68q84 50 171 69zM40 248q0 111 78 182t190 71q116 0 192.5 -72t76.5 -181q0 -110 -75.5 -182t-190.5 -72t-193 70.5t-78 183.5zM423 248q0 53 -31 83.5t-83 30.5q-51 0 -83 -32t-32 -83
q0 -52 31.5 -83t84.5 -31t83 29.5t30 85.5z" />
    <glyph glyph-name="uni01D3" unicode="&#x1d3;" horiz-adv-x="872" 
d="M623 872q-58 -14 -94.5 -29.5t-95.5 -50.5q-99 57 -190 80l19 103q91 -19 171 -68q84 50 171 69zM779 736q51 -187 51 -336q0 -190 -101 -300.5t-290 -110.5q-194 0 -295.5 109t-101.5 305q0 152 52 333q84 -14 163 -14q-52 -184 -52 -319q0 -136 57 -199.5t177 -63.5
q119 0 173.5 66.5t54.5 200.5q0 123 -53 315q83 0 165 14z" />
    <glyph glyph-name="uni01D4" unicode="&#x1d4;" horiz-adv-x="613" 
d="M494 636q-58 -14 -94.5 -29.5t-95.5 -50.5q-99 57 -190 80l19 103q91 -19 171 -68q84 50 171 69zM556 7q-70 -4 -147 -15v52q-58 -50 -138 -50q-112 0 -169 67.5t-57 178.5q0 102 14 266q79 -11 149 -14q-9 -171 -9 -230q0 -130 105 -130q56 0 80.5 40t24.5 119v207h147
v-491z" />
    <glyph glyph-name="uni01DD" unicode="&#x1dd;" horiz-adv-x="591" 
d="M401 296q-7 40 -43 59.5t-89 19.5q-82 0 -128 -36q-33 53 -75 95q92 67 216 67q120 0 193 -71.5t73 -184.5q0 -108 -71.5 -179.5t-183.5 -71.5q-114 0 -180 68t-66 179q0 26 7 55h347zM190 195q2 -26 30 -49.5t76 -23.5q51 0 79.5 26t27.5 47h-213z" />
    <glyph glyph-name="Gcaron" unicode="&#x1e6;" horiz-adv-x="751" 
d="M613 872q-58 -14 -94.5 -29.5t-95.5 -50.5q-99 57 -190 80l19 103q91 -19 171 -68q84 50 171 69zM699 76q-100 -87 -285 -87q-169 0 -270 104t-101 272q0 169 105.5 273t273.5 104q167 0 279 -86l-84 -128q-86 64 -195 64q-100 0 -158 -60t-58 -167q0 -108 53 -170.5
t153 -62.5q105 0 141 43v108h-192v129h338v-336z" />
    <glyph glyph-name="gcaron" unicode="&#x1e7;" horiz-adv-x="638" 
d="M506 636q-58 -14 -94.5 -29.5t-95.5 -50.5q-99 57 -190 80l19 103q91 -19 171 -68q84 50 171 69zM131 -88q76 -33 109.5 -41t85.5 -8q66 0 90 38t24 107v47q-48 -61 -148 -61q-106 0 -178 69t-72 183t71 184.5t179 70.5q101 0 148 -58v62q76 -13 141 -14v-475
q-1 -145 -65.5 -216.5t-201.5 -71.5q-111 0 -247 76zM432 244q0 54 -29 88q-32 35 -86 35q-53 0 -87 -31.5t-34 -89.5q0 -59 33 -88.5t87 -29.5q59 0 91 40q25 31 25 76z" />
    <glyph glyph-name="uni01F4" unicode="&#x1f4;" horiz-adv-x="751" 
d="M359 879q124 49 236 122l64 -95q-45 -27 -119.5 -58t-149.5 -48zM699 76q-100 -87 -285 -87q-169 0 -270 104t-101 272q0 169 105.5 273t273.5 104q167 0 279 -86l-84 -128q-86 64 -195 64q-100 0 -158 -60t-58 -167q0 -108 53 -170.5t153 -62.5q105 0 141 43v108h-192
v129h338v-336z" />
    <glyph glyph-name="uni01F5" unicode="&#x1f5;" horiz-adv-x="638" 
d="M252 643q124 49 236 122l64 -95q-45 -27 -119.5 -58t-149.5 -48zM131 -88q76 -33 109.5 -41t85.5 -8q66 0 90 38t24 107v47q-48 -61 -148 -61q-106 0 -178 69t-72 183t71 184.5t179 70.5q101 0 148 -58v62q76 -13 141 -14v-475q-1 -145 -65.5 -216.5t-201.5 -71.5
q-111 0 -247 76zM432 244q0 54 -29 88q-32 35 -86 35q-53 0 -87 -31.5t-34 -89.5q0 -59 33 -88.5t87 -29.5q59 0 91 40q25 31 25 76z" />
    <glyph glyph-name="Aringacute" unicode="&#x1fa;" horiz-adv-x="729" 
d="M299 1129q124 49 236 122l64 -95q-45 -27 -119.5 -58t-149.5 -48zM490 899q0 -49 -36 -83.5t-87 -34.5q-50 0 -86 34.5t-36 83.5q0 48 36 82.5t86 34.5q51 0 87 -34t36 -83zM368 939q-21 0 -32.5 -11.5t-11.5 -30.5q0 -16 13 -27t31 -11t31 11t13 27q0 19 -11.5 30.5
t-32.5 11.5zM226 150l-63 -155q-86 10 -163 11l314 723h103l312 -723q-77 0 -163 -11l-63 155h-277zM364 489l-85 -207h170z" />
    <glyph glyph-name="aringacute" unicode="&#x1fb;" horiz-adv-x="561" 
d="M214 893q124 49 236 122l64 -95q-45 -27 -119.5 -58t-149.5 -48zM405 663q0 -49 -36 -83.5t-87 -34.5q-50 0 -86 34.5t-36 83.5q0 48 36 82.5t86 34.5q51 0 87 -34t36 -83zM283 703q-21 0 -32.5 -11.5t-11.5 -30.5q0 -16 13 -27t31 -11t31 11t13 27q0 19 -11.5 30.5
t-32.5 11.5zM346 323q0 19 -18 35.5t-62 16.5q-42 0 -68.5 -11t-54.5 -36l-97 82q35 38 93 64.5t132 26.5q99 0 160.5 -43t61.5 -134v-121q0 -104 46 -157l-113 -59q-14 15 -23 41t-9 43q-21 -35 -69 -55.5t-109 -20.5q-98 0 -139 39.5t-41 112.5q0 79 69 120t197 38l44 -1
v19zM299 199q-50 2 -82 -10t-32 -35t15 -32t45 -9q52 0 78.5 25t24.5 59z" />
    <glyph glyph-name="AEacute" unicode="&#x1fc;" horiz-adv-x="931" 
d="M399 879q124 49 236 122l64 -95q-45 -27 -119.5 -58t-149.5 -48zM498 0l-15 150h-248l-72 -155q-88 10 -163 11l368 723h491v-151h-284l16 -133h250v-144h-232l19 -150h264v-151h-394zM439 583l-142 -301h173z" />
    <glyph glyph-name="aeacute" unicode="&#x1fd;" horiz-adv-x="803" 
d="M335 643q124 49 236 122l64 -95q-45 -27 -119.5 -58t-149.5 -48zM333 323q-5 14 -8.5 21.5t-22 19t-48.5 11.5q-37 0 -60.5 -11t-48.5 -36q-42 45 -98 82q33 38 87.5 64.5t123.5 26.5q106 0 168 -48q61 48 140 48q98 0 154.5 -66.5t56.5 -177.5q0 -34 -7 -58h-302
q6 -40 39.5 -59.5t82.5 -19.5q62 0 100 36q34 -54 75 -94q-80 -68 -188 -68q-114 0 -179 88q-60 -88 -194 -88q-90 0 -128 40t-38 113q0 79 65 119.5t186 38.5l44 -1v19zM634 300q1 22 -18.5 47.5t-51.5 25.5q-47 0 -73 -25.5t-26 -47.5h169zM287 199q-44 2 -72 -10t-28 -35
t11 -32t34 -9q53 0 79 24.5t24 59.5z" />
    <glyph glyph-name="Oslashacute" unicode="&#x1fe;" horiz-adv-x="857" 
d="M362 879q124 49 236 122l64 -95q-45 -27 -119.5 -58t-149.5 -48zM660 735q59 -13 133 -13l-77 -95q101 -105 101 -270q0 -167 -104 -267.5t-276 -100.5q-115 0 -202 45l-38 -47q-65 13 -126 13l78 96q-109 108 -109 277q0 167 104.5 268t276.5 101q116 0 207 -47z
M530 573q-44 17 -100 19q-104 0 -165.5 -61.5t-61.5 -165.5q3 -92 44 -146zM334 156q40 -15 95 -17q104 0 164.5 61t60.5 165q-4 86 -39 138z" />
    <glyph glyph-name="oslashacute" unicode="&#x1ff;" horiz-adv-x="617" 
d="M242 643q124 49 236 122l64 -95q-45 -27 -119.5 -58t-149.5 -48zM481 511q36 -14 83 -14l-60 -72q73 -72 73 -177q0 -110 -75.5 -182t-191.5 -72q-75 0 -140 34l-34 -41q-41 13 -76 13l55 67q-72 69 -75 181q0 111 78 182t190 71q75 0 138 -33zM359 363q-24 9 -50 9
q-55 0 -90 -35t-35 -90q2 -43 20 -72zM258 132q20 -7 52 -9q56 0 88 32t32 93q-2 42 -16 69z" />
    <glyph glyph-name="uni0200" unicode="&#x200;" horiz-adv-x="729" 
d="M313 786q-111 62 -186 146l80 60q67 -82 154 -150zM483 786q-110 62 -185 146l80 60q67 -82 154 -150zM226 150l-63 -155q-86 10 -163 11l314 723h103l312 -723q-77 0 -163 -11l-63 155h-277zM364 489l-85 -207h170z" />
    <glyph glyph-name="uni0201" unicode="&#x201;" horiz-adv-x="558" 
d="M212 567q-55 31 -106.5 73t-79.5 73l80 60q69 -83 155 -150zM383 567q-111 62 -186 146l80 60q69 -83 155 -150zM348 323q0 19 -18 35.5t-62 16.5q-42 0 -68.5 -11t-54.5 -36l-97 82q35 38 93 64.5t132 26.5q99 0 160.5 -43t61.5 -134v-121q0 -104 46 -157l-113 -59
q-14 15 -23 41t-9 43q-21 -35 -69 -55.5t-109 -20.5q-98 0 -139 39.5t-41 112.5q0 79 68.5 119.5t197.5 38.5l44 -1v19zM301 199q-51 2 -82.5 -10t-31.5 -35t15 -32t45 -9q52 0 78.5 25t24.5 59z" />
    <glyph glyph-name="Scommaaccent" unicode="&#x218;" horiz-adv-x="672" 
d="M84 204q40 -26 115 -47.5t133 -21.5q147 0 147 66q0 34 -36 51t-145 45q-38 10 -65.5 18.5t-66 26.5t-63 39t-42.5 55t-18 75q0 112 76 171.5t215 59.5q76 0 163.5 -21t129.5 -49l-68 -144q-111 68 -223 68q-130 0 -130 -67q0 -36 34 -51.5t152 -44.5q63 -16 104 -32
t77 -42t52.5 -64.5t16.5 -92.5q0 -101 -84.5 -157t-237.5 -56q-164 0 -302 71zM403 -303h-95l-2 95q-29 24 -31 62q0 33 23.5 56t57.5 23t57.5 -23t23.5 -56q-2 -39 -32 -62z" />
    <glyph glyph-name="scommaaccent" unicode="&#x219;" horiz-adv-x="498" 
d="M77 172q30 -20 84 -37t95 -17q32 0 44.5 8t12.5 25q0 10 -5.5 16.5t-22 12.5t-29 9t-44.5 10q-171 34 -171 142q0 79 56.5 119.5t152.5 40.5q58 0 115 -17t96 -46l-59 -109q-29 20 -72 36t-81 16q-31 0 -42.5 -6.5t-11.5 -24.5q0 -15 15 -23.5t52 -16.5q33 -7 47.5 -10.5
t44.5 -12.5t45 -19t33.5 -25.5t26.5 -37.5t8 -49q0 -74 -55 -118t-147 -44q-143 0 -239 58zM306 -303h-95l-2 95q-29 24 -31 62q0 33 23.5 56t57.5 23t57.5 -23t23.5 -56q-2 -39 -32 -62z" />
    <glyph glyph-name="uni021A" unicode="&#x21a;" horiz-adv-x="652" 
d="M406 0h-160v578h-221v151h603v-151h-222v-578zM393 -303h-95l-2 95q-29 24 -31 62q0 33 23.5 56t57.5 23t57.5 -23t23.5 -56q-2 -39 -32 -62z" />
    <glyph glyph-name="uni021B" unicode="&#x21b;" horiz-adv-x="399" 
d="M82 497v116q56 0 144 4v-120h141q-4 -41 -4 -123l-137 -5v-175q0 -70 53 -70q34 0 80 18q13 -63 36 -118q-20 -13 -67.5 -21.5t-94.5 -8.5q-151 0 -151 157v217l-55 -2v131h55zM267 -303h-95l-2 95q-29 24 -31 62q0 33 23.5 56t57.5 23t57.5 -23t23.5 -56q-2 -39 -32 -62
z" />
    <glyph glyph-name="uni0226" unicode="&#x226;" horiz-adv-x="729" 
d="M368 962q35 0 59 -23.5t24 -57.5q0 -33 -24.5 -56.5t-58.5 -23.5t-58 23.5t-24 56.5q0 34 24 57.5t58 23.5zM226 150l-63 -155q-86 10 -163 11l314 723h103l312 -723q-77 0 -163 -11l-63 155h-277zM364 489l-85 -207h170z" />
    <glyph glyph-name="uni0227" unicode="&#x227;" horiz-adv-x="561" 
d="M283 726q35 0 59 -23.5t24 -57.5q0 -33 -24.5 -56.5t-58.5 -23.5t-58 23.5t-24 56.5q0 34 24 57.5t58 23.5zM346 323q0 19 -18 35.5t-62 16.5q-42 0 -68.5 -11t-54.5 -36l-97 82q35 38 93 64.5t132 26.5q99 0 160.5 -43t61.5 -134v-121q0 -104 46 -157l-113 -59
q-14 15 -23 41t-9 43q-21 -35 -69 -55.5t-109 -20.5q-98 0 -139 39.5t-41 112.5q0 79 69 120t197 38l44 -1v19zM299 199q-50 2 -82 -10t-32 -35t15 -32t45 -9q52 0 78.5 25t24.5 59z" />
    <glyph glyph-name="uni0237" unicode="&#x237;" horiz-adv-x="266" 
d="M208 81q0 -127 -48.5 -210t-157.5 -143q-23 57 -54 110q64 43 88.5 101.5t24.5 161.5v396h147v-416z" />
    <glyph glyph-name="uni0259" unicode="&#x259;" horiz-adv-x="591" 
d="M401 296q-7 40 -43 59.5t-89 19.5q-82 0 -128 -36q-33 53 -75 95q92 67 216 67q120 0 193 -71.5t73 -184.5q0 -108 -71.5 -179.5t-183.5 -71.5q-114 0 -180 68t-66 179q0 26 7 55h347zM190 195q2 -26 30 -49.5t76 -23.5q51 0 79.5 26t27.5 47h-213z" />
    <glyph glyph-name="uni02BC" unicode="&#x2bc;" horiz-adv-x="221" 
d="M38 517q17 15 31.5 37.5t15.5 31.5q-25 0 -47.5 22t-22.5 59t26 62.5t64 25.5q40 0 67.5 -28t27.5 -69q0 -111 -125 -194z" />
    <glyph glyph-name="circumflex" unicode="&#x2c6;" horiz-adv-x="445" 
d="M394 559q-85 17 -171 68q-81 -49 -171 -67l-19 102q91 23 190 80q59 -35 95.5 -50.5t94.5 -29.5z" />
    <glyph glyph-name="caron" unicode="&#x2c7;" horiz-adv-x="445" 
d="M401 632q-58 -14 -94.5 -29.5t-95.5 -50.5q-99 57 -190 80l19 103q91 -19 171 -68q84 50 171 69z" />
    <glyph glyph-name="uni02C9" unicode="&#x2c9;" horiz-adv-x="405" 
d="M378 592h-315v98h315v-98z" />
    <glyph glyph-name="breve" unicode="&#x2d8;" horiz-adv-x="500" 
d="M105 736q49 -62 105 -63q57 1 106 63l85 -50q-31 -63 -75.5 -91.5t-114.5 -28.5t-115 28.5t-76 91.5z" />
    <glyph glyph-name="dotaccent" unicode="&#x2d9;" horiz-adv-x="226" 
d="M192 722q35 0 59 -23.5t24 -57.5q0 -33 -24.5 -56.5t-58.5 -23.5t-58 23.5t-24 56.5q0 34 24 57.5t58 23.5z" />
    <glyph glyph-name="ring" unicode="&#x2da;" horiz-adv-x="350" 
d="M306 689q0 -49 -36 -83.5t-87 -34.5q-50 0 -86 34.5t-36 83.5q0 48 36 82.5t86 34.5q51 0 87 -34t36 -83zM184 729q-21 0 -32.5 -11.5t-11.5 -30.5q0 -16 13 -27t31 -11t31 11t13 27q0 19 -11.5 30.5t-32.5 11.5z" />
    <glyph glyph-name="ogonek" unicode="&#x2db;" horiz-adv-x="456" 
d="M344 -243l-12 -7q-11 -6 -13.5 -7t-13.5 -6.5t-16 -7t-16.5 -5.5t-21 -5t-22.5 -2.5t-26 -1.5q-54 0 -90.5 37t-36.5 93q0 34 13 63.5t29.5 48t45 37t44.5 26.5t44 20l88 -40q-154 -79 -154 -144q0 -13 11 -24t31 -11q39 0 83 32z" />
    <glyph glyph-name="tilde" unicode="&#x2dc;" horiz-adv-x="440" 
d="M399 699q-11 -29 -19 -46t-23.5 -39.5t-37.5 -33t-51 -10.5t-65.5 21.5t-52.5 21.5q-12 0 -22.5 -6t-16.5 -13t-16 -21l-86 35q42 122 127 122q27 0 69.5 -24t56.5 -24q4 0 8.5 1t7.5 2t6.5 4.5l5.5 5.5t5.5 7t5 7t6 9t5.5 9z" />
    <glyph glyph-name="hungarumlaut" unicode="&#x2dd;" horiz-adv-x="628" 
d="M164 607q86 67 155 150l80 -61q-76 -83 -186 -145zM335 607q87 68 154 150l80 -61q-27 -31 -78.5 -72.5t-106.5 -72.5z" />
    <glyph glyph-name="uni0309" unicode="&#x309;" horiz-adv-x="0" 
d="M-580 886l72 -3q25 -1 43 9t18 24q0 38 -67 38q-60 0 -107 -30l-48 73q77 59 171 59q70 0 117 -38t47 -90q0 -111 -136 -125l-7 -47h-102z" />
    <glyph glyph-name="uni0323" unicode="&#x323;" horiz-adv-x="0" 
d="M-500 -67q35 0 60 -24.5t25 -59.5q0 -34 -25 -58.5t-60 -24.5q-36 0 -61 24t-25 59t25 59.5t61 24.5z" />
    <glyph glyph-name="uni037E" unicode="&#x37e;" horiz-adv-x="216" 
d="M104 472q37 0 63 -25.5t26 -61.5t-26 -61.5t-63 -25.5t-63 25.5t-26 61.5t26 61.5t63 25.5zM38 -64q17 15 31.5 37.5t15.5 31.5q-25 1 -47.5 22.5t-22.5 58.5t26 62.5t64 25.5q40 0 67.5 -28t27.5 -69q0 -111 -125 -194z" />
    <glyph glyph-name="uni0387" unicode="&#x387;" horiz-adv-x="232" 
d="M116 56q-38 0 -65 26.5t-27 63.5t27 63.5t65 26.5t65 -26.5t27 -63.5t-27 -63.5t-65 -26.5z" />
    <glyph glyph-name="omicron" unicode="&#x3bf;" horiz-adv-x="670" 
d="M56 248q0 111 78 182t190 71q116 0 192.5 -72t76.5 -181q0 -110 -75.5 -182t-190.5 -72t-193 70.5t-78 183.5zM439 248q0 53 -31 83.5t-83 30.5q-51 0 -83 -32t-32 -83q0 -52 31.5 -83t84.5 -31t83 29.5t30 85.5z" />
    <glyph glyph-name="pi" unicode="&#x3c0;" horiz-adv-x="839" 
d="M-23 366v87q0 63 21 105.5t61 64t84 30t103 8.5h556v-151h-559q-65 0 -90 -18.5t-25 -66.5v-59h-151zM370 0h-151v454h151v-454zM657 0h-151v454h151v-454z" />
    <glyph glyph-name="uni1E1E" unicode="&#x1e1e;" horiz-adv-x="588" 
d="M296 962q35 0 59 -23.5t24 -57.5q0 -33 -24.5 -56.5t-58.5 -23.5t-58 23.5t-24 56.5q0 34 24 57.5t58 23.5zM564 578h-351v-147h265v-144h-265v-287h-153v729h504v-151z" />
    <glyph glyph-name="uni1E1F" unicode="&#x1e1f;" horiz-adv-x="317" 
d="M221 555v-58h94v-133l-94 3v-367h-147v367l-57 -3v133h57v82q0 31 6 56q-1 3 -1 10q0 28 17.5 50t44.5 28q32 19 83 19q61 0 115 -27q-19 -59 -29 -118q-18 8 -40 8q-49 0 -49 -50z" />
    <glyph glyph-name="Wgrave" unicode="&#x1e80;" horiz-adv-x="1024" 
d="M541 800q-75 17 -149.5 48t-119.5 58l64 95q112 -73 236 -122zM581 722q51 0 171 14l-165 -334l79 -177l190 511q82 -14 171 -14l-306 -722h-100l-114 252l-104 -252h-100l-306 722q89 0 170 14l190 -511l72 184l-160 327q84 -14 168 -14l73 -176z" />
    <glyph glyph-name="wgrave" unicode="&#x1e81;" horiz-adv-x="833" 
d="M446 564q-75 17 -149.5 48t-119.5 58l64 95q112 -73 236 -122zM348 267q-15 27 -41 76.5t-48 89t-42 72.5q81 -14 145 -14l61 -112l55 112q46 0 146 14q-27 -43 -78.5 -133.5t-59.5 -104.5l45 -97l147 335q81 -13 153 -14l-251 -491h-85q-22 42 -83 153
q-12 -24 -36.5 -76t-37.5 -77h-85l-251 491q72 1 153 14l150 -335z" />
    <glyph glyph-name="Wacute" unicode="&#x1e82;" horiz-adv-x="1024" 
d="M445 879q124 49 236 122l64 -95q-45 -27 -119.5 -58t-149.5 -48zM581 722q51 0 171 14l-165 -334l79 -177l190 511q82 -14 171 -14l-306 -722h-100l-114 252l-104 -252h-100l-306 722q89 0 170 14l190 -511l72 184l-160 327q84 -14 168 -14l73 -176z" />
    <glyph glyph-name="wacute" unicode="&#x1e83;" horiz-adv-x="833" 
d="M350 643q124 49 236 122l64 -95q-45 -27 -119.5 -58t-149.5 -48zM348 267q-15 27 -41 76.5t-48 89t-42 72.5q81 -14 145 -14l61 -112l55 112q46 0 146 14q-27 -43 -78.5 -133.5t-59.5 -104.5l45 -97l147 335q81 -13 153 -14l-251 -491h-85q-22 42 -83 153
q-12 -24 -36.5 -76t-37.5 -77h-85l-251 491q72 1 153 14l150 -335z" />
    <glyph glyph-name="Wdieresis" unicode="&#x1e84;" horiz-adv-x="1024" 
d="M399 969q33 0 56.5 -23t23.5 -56q0 -32 -23.5 -55t-56.5 -23t-56.5 23t-23.5 55q0 33 23.5 56t56.5 23zM632 965q34 0 57 -23t23 -56q0 -32 -23.5 -55t-56.5 -23t-56.5 23t-23.5 55q0 33 23.5 56t56.5 23zM581 722q51 0 171 14l-165 -334l79 -177l190 511q82 -14 171 -14
l-306 -722h-100l-114 252l-104 -252h-100l-306 722q89 0 170 14l190 -511l72 184l-160 327q84 -14 168 -14l73 -176z" />
    <glyph glyph-name="wdieresis" unicode="&#x1e85;" horiz-adv-x="833" 
d="M304 733q33 0 56.5 -23t23.5 -56q0 -32 -23.5 -55t-56.5 -23t-56.5 23t-23.5 55q0 33 23.5 56t56.5 23zM537 729q34 0 57 -23t23 -56q0 -32 -23.5 -55t-56.5 -23t-56.5 23t-23.5 55q0 33 23.5 56t56.5 23zM348 267q-15 27 -41 76.5t-48 89t-42 72.5q81 -14 145 -14
l61 -112l55 112q46 0 146 14q-27 -43 -78.5 -133.5t-59.5 -104.5l45 -97l147 335q81 -13 153 -14l-251 -491h-85q-22 42 -83 153q-12 -24 -36.5 -76t-37.5 -77h-85l-251 491q72 1 153 14l150 -335z" />
    <glyph glyph-name="uni1E9E" unicode="&#x1e9e;" horiz-adv-x="760" 
d="M598 432q50 -5 91 -56.5t41 -141.5q0 -114 -70.5 -179t-196.5 -65q-102 0 -188 55l55 129q21 -14 59.5 -26t68.5 -12q50 0 79.5 23.5t29.5 72.5q0 58 -40 80.5t-118 22.5v66l99 171q-50 26 -129 26q-71 0 -119.5 -50.5t-48.5 -159.5v-35v-353h-153v379v37q0 329 349 329
q96 0 175.5 -37t116.5 -94z" />
    <glyph glyph-name="Ygrave" unicode="&#x1ef2;" horiz-adv-x="677" 
d="M367 800q-75 17 -149.5 48t-119.5 58l64 95q112 -73 236 -122zM514 736q76 -12 165 -14l-264 -435v-287h-153v286l-265 436q81 -1 168 14l173 -289z" />
    <glyph glyph-name="ygrave" unicode="&#x1ef3;" horiz-adv-x="540" 
d="M299 564q-75 17 -149.5 48t-119.5 58l64 95q112 -73 236 -122zM391 505q59 -9 148 -14l-207 -534q-46 -118 -96 -166.5t-123 -53.5l-52 110q83 25 115 99l31 75l-202 470q89 5 157 14l118 -320z" />
    <glyph glyph-name="uni2011" unicode="&#x2011;" horiz-adv-x="431" 
d="M375 397v-141h-319v141h319z" />
    <glyph glyph-name="figuredash" unicode="&#x2012;" horiz-adv-x="557" 
d="M501 397v-141h-445v141h445z" />
    <glyph glyph-name="endash" unicode="&#x2013;" horiz-adv-x="557" 
d="M501 397v-141h-445v141h445z" />
    <glyph glyph-name="emdash" unicode="&#x2014;" horiz-adv-x="725" 
d="M669 397v-141h-613v141h613z" />
    <glyph glyph-name="uni2015" unicode="&#x2015;" horiz-adv-x="725" 
d="M669 397v-141h-613v141h613z" />
    <glyph glyph-name="underscoredbl" unicode="&#x2017;" horiz-adv-x="520" 
d="M522 0v-127h-524v127h524zM522 -174v-127h-524v127h524z" />
    <glyph glyph-name="quoteleft" unicode="&#x2018;" horiz-adv-x="259" 
d="M209 694q-19 -18 -36 -43t-18 -36q29 -1 54.5 -26t25.5 -66q0 -43 -29 -71.5t-73 -28.5q-46 0 -77.5 31.5t-31.5 78.5q0 126 143 221z" />
    <glyph glyph-name="quoteright" unicode="&#x2019;" horiz-adv-x="259" 
d="M50 482q19 18 36 43t18 36q-29 1 -54.5 26t-25.5 66q0 43 29 71.5t73 28.5q46 0 77.5 -31.5t31.5 -78.5q0 -126 -143 -221z" />
    <glyph glyph-name="quotesinglbase" unicode="&#x201a;" horiz-adv-x="259" 
d="M50 -72q19 18 36 43t18 36q-29 1 -54.5 26t-25.5 66q0 43 29 71.5t73 28.5q46 0 77.5 -31.5t31.5 -78.5q0 -126 -143 -221z" />
    <glyph glyph-name="quotedblleft" unicode="&#x201c;" horiz-adv-x="441" 
d="M185 694q-19 -18 -36 -43t-18 -36q29 -1 54.5 -26t25.5 -66q0 -43 -29 -71.5t-73 -28.5q-46 0 -77.5 31.5t-31.5 78.5q0 126 143 221zM415 694q-19 -18 -36 -43t-18 -36q29 -1 54.5 -26t25.5 -66q0 -43 -29 -71.5t-73 -28.5q-46 0 -77.5 31.5t-31.5 78.5q0 126 143 221z
" />
    <glyph glyph-name="quotedblright" unicode="&#x201d;" horiz-adv-x="441" 
d="M26 482q19 18 36 43t18 36q-29 1 -54.5 26t-25.5 66q0 43 29 71.5t73 28.5q46 0 77.5 -31.5t31.5 -78.5q0 -126 -143 -221zM256 482q19 18 36 43t18 36q-29 1 -54.5 26t-25.5 66q0 43 29 71.5t73 28.5q46 0 77.5 -31.5t31.5 -78.5q0 -126 -143 -221z" />
    <glyph glyph-name="quotedblbase" unicode="&#x201e;" horiz-adv-x="441" 
d="M26 -72q19 18 36 43t18 36q-29 1 -54.5 26t-25.5 66q0 43 29 71.5t73 28.5q46 0 77.5 -31.5t31.5 -78.5q0 -126 -143 -221zM256 -72q19 18 36 43t18 36q-29 1 -54.5 26t-25.5 66q0 43 29 71.5t73 28.5q46 0 77.5 -31.5t31.5 -78.5q0 -126 -143 -221z" />
    <glyph glyph-name="dagger" unicode="&#x2020;" horiz-adv-x="480" 
d="M309 0h-153v436h-140v150h140v136h153v-136h155v-150h-155v-436z" />
    <glyph glyph-name="daggerdbl" unicode="&#x2021;" horiz-adv-x="480" 
d="M318 0h-153v143h-149v150h149v143h-149v150h149v136h153v-136h146v-150h-146v-143h146v-150h-146v-143z" />
    <glyph glyph-name="ellipsis" unicode="&#x2026;" horiz-adv-x="638" 
d="M119 174q37 0 63 -25.5t26 -61.5t-26 -61.5t-63 -25.5t-63 25.5t-26 61.5t26 61.5t63 25.5zM319 174q37 0 63 -25.5t26 -61.5t-26 -61.5t-63 -25.5t-63 25.5t-26 61.5t26 61.5t63 25.5zM519 174q37 0 63 -25.5t26 -61.5t-26 -61.5t-63 -25.5t-63 25.5t-26 61.5t26 61.5
t63 25.5z" />
    <glyph glyph-name="perthousand" unicode="&#x2030;" horiz-adv-x="1215" 
d="M176 735q73 0 114.5 -51.5t41.5 -140.5q0 -91 -41.5 -140t-117.5 -49q-74 0 -114.5 52t-40.5 138q0 89 42.5 140t115.5 51zM223 -13q-46 13 -109 13l485 735q46 -13 108 -13zM175 453q29 0 41.5 19t12.5 66q0 98 -52 98q-28 0 -40 -20.5t-16 -71.5q0 -49 12.5 -70
t41.5 -21zM653 375q73 0 114.5 -51t41.5 -141t-41.5 -139t-117.5 -49q-74 0 -114.5 51.5t-40.5 137.5q0 89 42.5 140t115.5 51zM1022 375q73 0 114.5 -51t41.5 -141t-41.5 -139t-117.5 -49q-73 0 -113.5 52t-40.5 137q0 89 42 140t115 51zM652 94q29 0 41.5 19t12.5 66
q0 97 -52 97q-28 0 -40 -20t-16 -71q0 -49 12.5 -70t41.5 -21zM1022 93q28 0 40.5 19t12.5 66q0 98 -52 98q-27 0 -39 -20.5t-16 -71.5q0 -49 12.5 -70t41.5 -21z" />
    <glyph glyph-name="guilsinglleft" unicode="&#x2039;" horiz-adv-x="432" 
d="M234 497l131 -67l-147 -171l147 -171l-131 -67l-204 238z" />
    <glyph glyph-name="guilsinglright" unicode="&#x203a;" horiz-adv-x="432" 
d="M180 21l-131 67l147 171l-147 171l131 67l204 -238z" />
    <glyph glyph-name="uni203E" unicode="&#x203e;" horiz-adv-x="558" 
d="M541 882v-127h-524v127h524z" />
    <glyph glyph-name="fraction" unicode="&#x2044;" horiz-adv-x="174" 
d="M-95 -13q-48 13 -109 13l484 735q48 -13 109 -13z" />
    <glyph glyph-name="uni2070" unicode="&#x2070;" 
d="M16 776q0 89 42.5 140t115.5 51t114.5 -51t41.5 -141t-41.5 -139t-117.5 -49q-74 0 -114.5 51.5t-40.5 137.5zM119 777q0 -49 12.5 -70t41.5 -21t41.5 19t12.5 66q0 97 -52 97q-28 0 -40 -20t-16 -71z" />
    <glyph glyph-name="uni2074" unicode="&#x2074;" 
d="M291 961v-217h44v-87h-44v-65h-91v65h-161l-26 59l196 245h82zM132 745h68v79z" />
    <glyph glyph-name="uni2075" unicode="&#x2075;" 
d="M154 833q21 4 42 4q55 0 89.5 -31.5t34.5 -83.5q0 -61 -44.5 -98.5t-115.5 -37.5q-72 0 -128 42l50 87q33 -32 79 -32q55 0 55 33q0 34 -43 34q-30 0 -77 -24l-42 35v200h241v-92h-141v-36z" />
    <glyph glyph-name="uni2076" unicode="&#x2076;" 
d="M278 891q-53 -8 -78 -21q-31 -14 -52 -41q22 15 53 15q53 0 87.5 -35t34.5 -89q0 -59 -41.5 -96.5t-105.5 -37.5q-67 0 -107.5 42t-40.5 112q0 102 71 163t175 70zM178 763q-49 0 -49 -41q0 -44 48 -44q22 0 35 11t13 30q0 44 -47 44z" />
    <glyph glyph-name="uni2077" unicode="&#x2077;" 
d="M330 923q-93 -166 -137 -331h-113q37 143 123 275h-161v94h248z" />
    <glyph glyph-name="uni2078" unicode="&#x2078;" 
d="M285 794q39 -33 39 -85q0 -53 -42.5 -87.5t-109.5 -34.5t-107 33.5t-40 88.5q0 51 38 85q-27 26 -27 62q0 50 38 81t99 31t100 -31.5t39 -80.5q0 -38 -27 -62zM174 878q-35 0 -35 -27q0 -31 35 -31t35 32q0 26 -35 26zM175 676q46 0 46 39q0 17 -12.5 27.5t-34.5 10.5
q-21 0 -33.5 -11.5t-12.5 -28.5q0 -22 11.5 -29.5t35.5 -7.5z" />
    <glyph glyph-name="uni2079" unicode="&#x2079;" 
d="M71 656q52 8 77 21q34 16 52 41q-23 -15 -53 -15q-53 0 -87.5 35t-34.5 89q0 59 41.5 96.5t105.5 37.5q67 0 107.5 -42t40.5 -112q0 -102 -71 -163t-175 -70zM170 784q50 0 50 42q0 44 -49 44q-22 0 -35 -11t-13 -31q0 -44 47 -44z" />
    <glyph glyph-name="uni2080" unicode="&#x2080;" 
d="M16 7q0 89 42.5 140t115.5 51t114.5 -51t41.5 -141t-41.5 -139t-117.5 -49q-74 0 -114.5 51.5t-40.5 137.5zM119 8q0 -49 12.5 -70t41.5 -21t41.5 19.5t12.5 66.5q0 97 -52 97q-28 0 -40 -20.5t-16 -71.5z" />
    <glyph glyph-name="uni2081" unicode="&#x2081;" 
d="M154 -177v225q-34 -36 -75 -51l-41 66q84 54 147 129h69v-369h-100z" />
    <glyph glyph-name="uni2082" unicode="&#x2082;" 
d="M58 -177l-33 65l110 88q41 33 56.5 51t15.5 34q0 18 -13 28.5t-33 10.5q-16 0 -28 -5.5t-52 -28.5l-51 78q42 33 67.5 44t62.5 11q64 0 107 -36.5t43 -93.5q0 -44 -31.5 -84t-96.5 -63h133v-99h-257z" />
    <glyph glyph-name="uni2083" unicode="&#x2083;" 
d="M66 -64q47 -24 83 -24q64 0 64 40q0 27 -37 27h-36v71l32 2q14 1 21.5 10.5t7.5 19.5q0 25 -43 25q-44 0 -82 -38l-63 61q62 69 149 69q63 0 102.5 -29.5t39.5 -76.5q0 -41 -22 -71q34 -33 34 -78q0 -54 -45 -90t-115 -36q-41 0 -72 8.5t-68 35.5z" />
    <glyph glyph-name="uni2084" unicode="&#x2084;" 
d="M291 192v-217h44v-87h-44v-65h-91v65h-161l-26 59l196 245h82zM132 -24h68v79z" />
    <glyph glyph-name="uni2085" unicode="&#x2085;" 
d="M154 64q21 4 42 4q55 0 89.5 -31.5t34.5 -83.5q0 -60 -44.5 -97.5t-115.5 -37.5t-128 41l50 87q35 -31 79 -31q56 0 56 32q0 34 -44 34q-29 0 -77 -23l-42 34v200h241v-92h-141v-36z" />
    <glyph glyph-name="uni2086" unicode="&#x2086;" 
d="M278 122q-53 -8 -78 -21q-32 -16 -52 -41q22 15 53 15q53 0 87.5 -35t34.5 -89q0 -59 -41.5 -96.5t-105.5 -37.5q-67 0 -107.5 42t-40.5 112q0 102 71 163t175 70zM178 -5q-49 0 -49 -42q0 -44 48 -44q22 0 35 11t13 31q0 44 -47 44z" />
    <glyph glyph-name="uni2087" unicode="&#x2087;" 
d="M330 154q-93 -166 -137 -331h-113q37 143 123 275h-161v94h248z" />
    <glyph glyph-name="uni2088" unicode="&#x2088;" 
d="M285 25q39 -33 39 -85q0 -53 -42.5 -87.5t-109.5 -34.5t-107 33.5t-40 88.5q0 51 38 85q-27 26 -27 62q0 50 38 81t99 31t100 -31.5t39 -80.5q0 -38 -27 -62zM174 109q-34 0 -34 -27q0 -31 34 -31q35 0 35 32q0 26 -35 26zM175 -93q46 0 46 39q0 17 -12.5 27.5
t-34.5 10.5q-21 0 -33.5 -11.5t-12.5 -28.5q0 -22 11.5 -29.5t35.5 -7.5z" />
    <glyph glyph-name="uni2089" unicode="&#x2089;" 
d="M71 -113q52 8 77 21q34 16 52 41q-23 -15 -53 -15q-53 0 -87.5 35t-34.5 89q0 59 41.5 96.5t105.5 37.5q67 0 107.5 -42t40.5 -112q0 -102 -71 -163t-175 -70zM170 14q49 0 49 42q0 44 -48 44q-22 0 -35 -11t-13 -31q0 -44 47 -44z" />
    <glyph glyph-name="franc" unicode="&#x20a3;" horiz-adv-x="900" 
d="M104 729h505q0 -80 14 -151q-183 14 -366 12v-159h264v-146h-264v-285h-153v729zM781 272q-33 0 -53 21t-23 58q0 35 21.5 57t55.5 22q32 0 54.5 -23t22.5 -56q0 -32 -23 -55.5t-55 -23.5zM569 0v427h131q-6 -42 -6 -81q0 -35 6 -71v-275h-131z" />
    <glyph glyph-name="lira" unicode="&#x20a4;" horiz-adv-x="603" 
d="M77 254v96h45v26h-45v96h45v2q6 132 84.5 198t209.5 71q53 0 111 -10v-151q-71 11 -111 11q-67 -2 -101.5 -28t-38.5 -88l-1 -5h200v-96h-200v-26h200v-96h-200v-104h291v-150h-538v150h94v104h-45z" />
    <glyph glyph-name="peseta" unicode="&#x20a7;" horiz-adv-x="967" 
d="M257 0h-153v728q174 14 246 14q68 0 127.5 -17t109.5 -51t79 -93t29 -136q0 -140 -88 -220.5t-219 -80.5q-63 0 -131 5v-149zM257 300q60 -6 130 -6q65 0 106.5 36.5t41.5 114.5q0 68 -43.5 107t-121.5 39q-50 0 -113 -3v-288zM627 231l62 2v-46h56q-2 -21 -2 -60l-54 1
v-52q0 -24 14 -24q21 0 39 8q6 -34 15 -57q-33 -9 -68 -9q-62 0 -62 62v72l-20 -1v60h20v44zM780 72q30 -25 69 -25q10 0 13.5 2t3.5 9q0 4 -36 10q-68 10 -68 58q0 31 21.5 47.5t60.5 16.5q41 0 85 -19l-26 -55q-26 22 -59 22q-18 0 -18 -9q0 -4 36 -10q68 -13 68 -59
q0 -30 -23 -48t-61 -18q-45 0 -90 23z" />
    <glyph glyph-name="Euro" unicode="&#x20ac;" horiz-adv-x="866" 
d="M295 386q-1 -7 -1 -22q0 -17 1 -26h323v-96h-297q55 -104 202 -109q53 0 97 14.5t67 30.5t52 42l88 -116q-66 -56 -136.5 -85.5t-166.5 -29.5q-134 0 -233.5 63.5t-138.5 189.5h-136v96h119q-1 9 -1 27q0 14 1 21h-93v96h108q37 126 145 193t246 67q156 0 255 -94
l-83 -129q-36 35 -88 56t-100 21q-149 0 -205 -114h218v-96h-243z" />
    <glyph glyph-name="uni2105" unicode="&#x2105;" horiz-adv-x="232" 
d="M116 299q39 0 66 -26.5t27 -64.5q0 -37 -27.5 -64t-65.5 -27t-65.5 27t-27.5 64t27.5 64t65.5 27z" />
    <glyph glyph-name="uni2117" unicode="&#x2117;" horiz-adv-x="844" 
d="M801 352q0 -161 -105 -262t-274 -101q-174 0 -276.5 97.5t-102.5 265.5q0 167 103.5 265t276.5 98q167 0 272.5 -101t105.5 -262zM422 113q116 0 184.5 64.5t68.5 174.5q0 109 -68.5 174t-183.5 65q-120 0 -187 -63t-67 -177t67.5 -176t185.5 -62zM297 533q97 7 114 7
q82 0 131.5 -40.5t49.5 -109.5q0 -66 -44.5 -107.5t-114.5 -41.5q-30 0 -50 2v-71h-86v361zM383 329q26 -3 46 -3h9q64 2 64 64q0 63 -72 65h-3q-3 0 -18 -0.5t-26 -0.5v-125z" />
    <glyph glyph-name="trademark" unicode="&#x2122;" horiz-adv-x="495" 
d="M163 678v-180h-94v180h-72v94h293l59 -77l60 77h73v-274h-94v97l-39 -51l-38 50v-96h-94v180h-54z" />
    <glyph glyph-name="uni2153" unicode="&#x2153;" horiz-adv-x="873" 
d="M241 -13q-46 13 -109 13l485 735q46 -13 109 -13zM182 359v225q-34 -36 -75 -51l-41 66q84 54 147 129h69v-369h-100zM563 110q47 -24 83 -24q64 0 64 40q0 27 -37 27h-36v71l32 2q14 1 21.5 10.5t7.5 19.5q0 25 -43 25q-44 0 -82 -38l-63 61q60 69 149 69
q63 0 102.5 -29.5t39.5 -76.5q0 -41 -22 -71q34 -33 34 -78q0 -54 -45 -90t-115 -36q-41 0 -72 8.5t-68 35.5z" />
    <glyph glyph-name="uni2154" unicode="&#x2154;" horiz-adv-x="873" 
d="M74 359l-33 65l110 88q41 33 56.5 51t15.5 34q0 18 -13 28.5t-34 10.5q-35 0 -79 -34l-49 74q36 33 64.5 46t65.5 13q64 0 106 -36.5t42 -93.5q0 -44 -31.5 -84t-96.5 -63h133v-99h-257zM258 -13q-48 13 -109 13l484 735q48 -13 109 -13zM589 110q47 -24 82 -24
q65 0 65 40q0 27 -38 27h-35v71l31 2q14 1 22 10.5t8 19.5q0 25 -43 25q-46 0 -82 -38l-64 61q62 69 150 69q63 0 102.5 -29.5t39.5 -76.5q0 -40 -23 -71q35 -32 35 -78q0 -54 -45.5 -90t-115.5 -36q-41 0 -72 8.5t-67 35.5z" />
    <glyph glyph-name="uni2155" unicode="&#x2155;" horiz-adv-x="873" 
d="M235 -13q-48 13 -109 13l484 735q48 -13 109 -13zM182 359v225q-34 -36 -75 -51l-41 66q84 54 147 129h69v-369h-100zM643 240q21 4 42 4q55 0 89.5 -31.5t34.5 -83.5q0 -60 -44.5 -97.5t-115.5 -37.5t-128 41l50 87q35 -32 80 -32q55 0 55 33q0 34 -43 34q-30 0 -78 -23
l-42 34v200h241v-92h-141v-36z" />
    <glyph glyph-name="uni2159" unicode="&#x2159;" horiz-adv-x="873" 
d="M263 -13q-46 13 -109 13l485 735q46 -13 109 -13zM194 359v225q-34 -36 -75 -51l-41 66q84 54 147 129h69v-369h-100zM760 298q-50 -8 -78 -20q-32 -16 -52 -41q24 14 53 14q53 0 88 -34.5t35 -89.5q0 -59 -41.5 -96.5t-105.5 -37.5q-68 0 -108.5 42t-40.5 112
q0 103 71 164t175 70zM661 170q-50 0 -50 -41q0 -44 49 -44q22 0 35 11t13 30q0 44 -47 44z" />
    <glyph glyph-name="oneeighth" unicode="&#x215b;" horiz-adv-x="873" 
d="M238 -13q-46 13 -109 13l485 735q46 -13 108 -13zM182 359v225q-34 -36 -75 -51l-41 66q84 54 147 129h69v-369h-100zM782 202q38 -34 38 -85q0 -53 -42.5 -87.5t-109.5 -34.5t-107 33.5t-40 88.5q0 52 39 85q-27 24 -27 61q0 50 38 81t99 31t99.5 -31.5t38.5 -80.5
q0 -36 -26 -61zM670 285q-34 0 -34 -27q0 -31 34 -31q35 0 35 32q0 26 -35 26zM671 84q46 0 46 38q0 17 -12.5 27.5t-34.5 10.5q-21 0 -33.5 -11.5t-12.5 -28.5q0 -22 11.5 -29t35.5 -7z" />
    <glyph glyph-name="threeeighths" unicode="&#x215c;" horiz-adv-x="873" 
d="M99 472q47 -24 83 -24q64 0 64 40q0 27 -37 27h-36v71l32 2q14 1 21.5 10.5t7.5 19.5q0 25 -43 25q-44 0 -82 -38l-63 61q62 69 149 69q63 0 102.5 -29.5t39.5 -76.5q0 -41 -22 -71q34 -33 34 -78q0 -54 -45 -90t-115 -36q-41 0 -72 8.5t-68 35.5zM254 -13
q-48 13 -109 13l484 735q48 -13 109 -13zM796 202q38 -34 38 -85q0 -53 -42.5 -87.5t-109.5 -34.5t-107 33.5t-40 88.5q0 51 38 85q-26 25 -26 61q0 50 38 81t99 31t99.5 -31.5t38.5 -80.5q0 -36 -26 -61zM684 285q-34 0 -34 -27q0 -31 34 -31q35 0 35 32q0 26 -35 26z
M685 84q46 0 46 38q0 17 -12.5 27.5t-34.5 10.5q-21 0 -33.5 -11.5t-12.5 -28.5q0 -22 11.5 -29t35.5 -7z" />
    <glyph glyph-name="fiveeighths" unicode="&#x215d;" horiz-adv-x="873" 
d="M250 -13q-48 13 -109 13l484 735q48 -13 109 -13zM170 600q21 4 42 4q55 0 89.5 -31.5t34.5 -83.5q0 -61 -44.5 -98.5t-115.5 -37.5q-72 0 -128 42l50 87q33 -32 79 -32q55 0 55 33q0 34 -43 34q-30 0 -77 -24l-42 35v200h241v-92h-141v-36zM786 202q38 -34 38 -85
q0 -53 -42.5 -87.5t-109.5 -34.5q-66 0 -106 33.5t-40 88.5q0 53 38 85q-27 24 -27 61q0 50 38 81t99 31t100 -31t39 -81q0 -35 -27 -61zM675 285q-34 0 -34 -27q0 -31 34 -31q35 0 35 32q0 26 -35 26zM675 84q46 0 46 38q0 17 -12.5 27.5t-33.5 10.5t-33.5 -11t-12.5 -29
q0 -22 11 -29t35 -7z" />
    <glyph glyph-name="seveneighths" unicode="&#x215e;" horiz-adv-x="873" 
d="M214 -13q-48 13 -109 13l484 735q48 -13 109 -13zM363 690q-94 -167 -137 -330h-113q36 142 123 274h-161v94h248zM765 202q39 -33 39 -85q0 -53 -42.5 -87.5t-109.5 -34.5t-107 33.5t-40 88.5q0 51 38 85q-27 26 -27 61q0 50 38 81t99 31t100 -31t39 -81q0 -37 -27 -61z
M654 285q-35 0 -35 -27q0 -31 35 -31t35 32q0 26 -35 26zM655 84q46 0 46 38q0 17 -12.5 27.5t-34.5 10.5q-21 0 -33.5 -11.5t-12.5 -28.5q0 -22 11.5 -29t35.5 -7z" />
    <glyph glyph-name="product" unicode="&#x220f;" horiz-adv-x="724" 
d="M703 754v-118h-99v-722h99v-118h-323v118h97v722h-230v-722h96v-118h-322v118h99v722h-99v118h682z" />
    <glyph glyph-name="summation" unicode="&#x2211;" horiz-adv-x="695" 
d="M673 622h-438l203 -318l-212 -358h454v-150h-649v91l244 411l-244 361v95h642v-132z" />
    <glyph glyph-name="minus" unicode="&#x2212;" horiz-adv-x="636" 
d="M580 217h-524v151h524v-151z" />
    <glyph glyph-name="uni2215" unicode="&#x2215;" horiz-adv-x="174" 
d="M-95 -13q-48 13 -109 13l484 735q48 -13 109 -13z" />
    <glyph glyph-name="radical" unicode="&#x221a;" horiz-adv-x="715" 
d="M691 644h-189l-191 -641h-141l-87 256h-87v150h198l42 -178l150 564h305v-151z" />
    <glyph glyph-name="orthogonal" unicode="&#x221f;" horiz-adv-x="482" 
d="M53 501h376v-106h-376v106z" />
    <glyph glyph-name="integral" unicode="&#x222b;" horiz-adv-x="333" 
d="M28 -94q22 -8 35 -8q2 0 4 1t3 4l2 6t1.5 8.5t0.5 10v11.5v12.5v14v14.5l1 537q0 28 0.5 43t2.5 44t7 46t14.5 39.5t23 34.5t35 21t49.5 9q43 0 118 -30l-49 -119q-17 8 -32 8q-10 0 -13 -17.5t-3 -64.5l-1 -520v-46t-2.5 -47t-7.5 -49.5t-15.5 -42t-25 -37.5
t-37.5 -22.5t-52 -9.5q-57 0 -113 26z" />
    <glyph glyph-name="uni2236" unicode="&#x2236;" horiz-adv-x="232" 
d="M116 496q39 0 66 -26.5t27 -64.5q0 -37 -27.5 -64t-65.5 -27t-65.5 27t-27.5 64t27.5 64t65.5 27zM116 299q39 0 66 -26.5t27 -64.5q0 -37 -27.5 -64t-65.5 -27t-65.5 27t-27.5 64t27.5 64t65.5 27z" />
    <glyph glyph-name="similar" unicode="&#x223c;" horiz-adv-x="619" 
d="M30 358q21 29 33 43.5t36 35.5t54.5 30t69.5 9q57 0 121 -44q11 -8 27.5 -20.5t25.5 -18.5t14 -6q39 0 94 66l88 -81q-21 -27 -33.5 -41t-36 -34.5t-52 -30t-62.5 -9.5q-59 0 -122 47q-54 42 -69 42q-37 0 -102 -67z" />
    <glyph glyph-name="uni2243" unicode="&#x2243;" horiz-adv-x="619" 
d="M30 358q21 29 33 43.5t36 35.5t54.5 30t69.5 9q43 0 84.5 -22t68.5 -44.5t35 -22.5q39 0 94 66l88 -81q-21 -27 -33.5 -41t-36 -34.5t-52 -30t-62.5 -9.5q-43 0 -82.5 22.5t-67 44.5t-41.5 22q-37 0 -102 -67zM573 47h-523v127h523v-127z" />
    <glyph glyph-name="approxequal" unicode="&#x2248;" horiz-adv-x="619" 
d="M30 358q21 29 33 43.5t36 35.5t54.5 30t69.5 9q63 0 128 -49q6 -5 15.5 -12t15 -11t11.5 -8.5t10.5 -6.5t7.5 -2q39 0 94 66l88 -81q-21 -27 -33.5 -41t-36 -34.5t-52 -30t-62.5 -9.5q-56 0 -113 41q-7 5 -22 16.5t-22.5 16.5t-17 10t-16.5 5q-37 0 -102 -67zM30 144
q21 29 33 43.5t36 35.5t54.5 30t69.5 9q63 0 132 -52q7 -5 17.5 -13.5t16.5 -12.5t12 -7.5t10 -3.5q39 0 94 66l88 -81q-21 -27 -33.5 -41t-36 -34.5t-52 -30t-62.5 -9.5q-59 0 -132 55q-44 34 -59 34q-37 0 -102 -67z" />
    <glyph glyph-name="notequal" unicode="&#x2260;" horiz-adv-x="636" 
d="M144 29l29 53h-96v141h178l42 70h-220v141h302l60 99l55 -31l-40 -68h105v-141h-187l-41 -70h228v-141h-311l-49 -84z" />
    <glyph glyph-name="equivalence" unicode="&#x2261;" horiz-adv-x="636" 
d="M77 467v141h482v-141h-482zM77 268v141h482v-141h-482zM559 61h-482v141h482v-141z" />
    <glyph glyph-name="lessequal" unicode="&#x2264;" horiz-adv-x="567" 
d="M12 389l502 227q2 -69 17 -129l-241 -98l241 -98q-15 -60 -17 -130zM537 5h-498v127h498v-127z" />
    <glyph glyph-name="greaterequal" unicode="&#x2265;" horiz-adv-x="567" 
d="M34 161q0 61 -16 130l240 98l-240 98q16 69 16 129l503 -227zM510 132v-127h-498v127h498z" />
    <glyph glyph-name="dotmath" unicode="&#x22c5;" horiz-adv-x="232" 
d="M116 56q-38 0 -65 26.5t-27 63.5t27 63.5t65 26.5t65 -26.5t27 -63.5t-27 -63.5t-65 -26.5z" />
    <glyph glyph-name="revlogicalnot" unicode="&#x2310;" horiz-adv-x="546" 
d="M516 184h-354v-170h-132v297h486v-127z" />
    <glyph glyph-name="uni2319" unicode="&#x2319;" horiz-adv-x="546" 
d="M162 132h354v-127h-486v306h132v-179z" />
    <glyph glyph-name="integraltp" unicode="&#x2320;" horiz-adv-x="364" 
d="M106 517q0 34 0.5 51t3.5 51t11.5 52.5t22.5 40.5t38 32t56 10q41 0 118 -30l-50 -119q-18 7 -32 7q-10 0 -12.5 -16.5t-2.5 -64.5l-1 -576l-153 -32z" />
    <glyph glyph-name="integralbt" unicode="&#x2321;" horiz-adv-x="364" 
d="M258 172q0 -34 -0.5 -51t-3.5 -51t-11.5 -52.5t-22.5 -40.5t-38 -32t-56 -10q-41 0 -118 30l49 119q17 -8 32 -8q10 0 13 17.5t3 64.5l1 576l153 32z" />
    <glyph glyph-name="uni25AB" unicode="&#x25ab;" horiz-adv-x="482" 
d="M295 265h-111v130h-131v106h131v124h111v-124h134v-106h-134v-130z" />
    <glyph glyph-name="uni2E41" unicode="&#x2e41;" horiz-adv-x="623" 
d="M361 672q-14 -13 -27 -32t-14 -27q22 -1 41.5 -20t19.5 -51t-22.5 -54.5t-56.5 -22.5q-35 0 -59 24.5t-24 60.5q0 96 110 169z" />
    <glyph glyph-name="uniF6C3" unicode="&#xf6c3;" horiz-adv-x="0" 
d="M-257 -303h-95l-2 95q-29 24 -31 62q0 33 23.5 56t57.5 23t57.5 -23t23.5 -56q-2 -39 -32 -62z" />
    <glyph glyph-name="uniF6C9" unicode="&#xf6c9;" horiz-adv-x="412" 
d="M374 901q-47 -27 -121 -58t-148 -48l-31 80q125 48 236 122z" />
    <glyph glyph-name="uniF6CA" unicode="&#xf6ca;" horiz-adv-x="445" 
d="M401 867q-58 -14 -94.5 -29.5t-95.5 -50.5q-100 59 -190 80l19 103q53 -11 89.5 -26t81.5 -42q84 50 171 69z" />
    <glyph glyph-name="uniF6CB" unicode="&#xf6cb;" horiz-adv-x="646" 
d="M179 958q33 0 56.5 -23t23.5 -56q0 -32 -23.5 -55t-56.5 -23t-56.5 23t-23.5 55q0 33 23.5 56t56.5 23zM461 954q34 0 57 -23t23 -56q0 -32 -23.5 -55t-56.5 -23t-56.5 23t-23.5 55q0 33 23.5 56t56.5 23z" />
    <glyph glyph-name="uniF6CE" unicode="&#xf6ce;" horiz-adv-x="412" 
d="M126 997q111 -74 236 -122l-31 -80q-74 17 -148 48t-121 58z" />
    <glyph glyph-name="uniF6CF" unicode="&#xf6cf;" horiz-adv-x="628" 
d="M164 842q86 67 155 150l80 -60q-28 -31 -79.5 -73t-106.5 -73zM335 842q87 68 154 150l80 -60q-27 -31 -78.5 -73t-106.5 -73z" />
    <glyph glyph-name="uniF6D0" unicode="&#xf6d0;" horiz-adv-x="405" 
d="M364 827h-315v98h315v-98z" />
    <glyph glyph-name="uniF730" unicode="&#xf730;" horiz-adv-x="617" 
d="M308 501q118 0 193.5 -69t75.5 -184t-74.5 -184.5t-191.5 -69.5t-194 67.5t-77 186.5q0 116 77 184.5t191 68.5zM309 362q-53 0 -84 -29t-31 -86t31 -85.5t85 -28.5q55 0 84 26.5t29 88.5q0 114 -114 114z" />
    <glyph glyph-name="uniF731" unicode="&#xf731;" horiz-adv-x="449" 
d="M434 132v-132h-404v132h149v182q-16 -45 -117 -55v131q37 4 64 16.5t40 29.5t18.5 31t7.5 28h139v-363h103z" />
    <glyph glyph-name="uniF732" unicode="&#xf732;" horiz-adv-x="544" 
d="M509 132v-132h-473v118h4q61 0 126 19t114.5 60.5t49.5 94.5q0 36 -22.5 57t-66.5 21q-33 0 -60.5 -23.5t-41.5 -56.5l-114 65q15 51 80 98.5t161 47.5q91 0 154 -51.5t63 -132.5q0 -65 -34.5 -120t-109.5 -85z" />
    <glyph glyph-name="uniF733" unicode="&#xf733;" horiz-adv-x="520" 
d="M112 207l92 1q57 1 87.5 27.5t30.5 56.5q0 74 -87 74q-37 0 -75 -18.5t-61 -43.5l-94 82q38 55 108 85t126 30q107 0 172.5 -52.5t65.5 -138.5q0 -48 -24.5 -87t-64.5 -55q44 -17 71.5 -54t27.5 -82q0 -233 -411 -318l-30 109q39 12 61.5 20t61.5 23t63 29t49.5 33
t37.5 41t12 46q0 49 -37.5 70t-89.5 20l-92 -1v103z" />
    <glyph glyph-name="uniF734" unicode="&#xf734;" horiz-adv-x="542" 
d="M326 496h146v-374h64l1 -122h-65v-194h-133v194h-298l-41 100zM178 122h161v191z" />
    <glyph glyph-name="uniF735" unicode="&#xf735;" horiz-adv-x="591" 
d="M50 90v405h455v-145h-312v-147q28 28 72 43t81 15q99 0 154.5 -56.5t55.5 -148.5q0 -64 -36.5 -122.5t-97.5 -101.5t-134.5 -74.5t-154.5 -50.5l-28 126q291 89 291 210q0 37 -26.5 61t-63.5 24q-86 0 -172 -90z" />
    <glyph glyph-name="uniF736" unicode="&#xf736;" horiz-adv-x="620" 
d="M480 663q-70 -28 -147 -96t-83 -128q46 37 119 37q95 0 153 -65t58 -171q0 -112 -74 -181.5t-194 -69.5q-127 0 -200.5 77t-73.5 213q0 85 30.5 162t73 130t99 98t98.5 69t81 40zM316 352q-45 0 -78.5 -30.5t-33.5 -78.5q0 -45 31 -75.5t76 -30.5q51 0 80 30t29 73
q0 49 -28 80.5t-76 31.5z" />
    <glyph glyph-name="uniF737" unicode="&#xf737;" horiz-adv-x="521" 
d="M511 437q-141 -276 -255 -669q-73 6 -156 8q100 352 222 575h-302v145h431z" />
    <glyph glyph-name="uniF738" unicode="&#xf738;" horiz-adv-x="599" 
d="M144 398q-43 20 -66.5 63.5t-23.5 83.5q0 93 70 145.5t174 52.5q103 0 175 -52.5t72 -145.5q0 -40 -23.5 -83.5t-66.5 -63.5q54 -25 83.5 -75.5t29.5 -107.5q0 -97 -73 -161.5t-204 -64.5q-130 0 -195 63.5t-65 162.5q0 58 29.5 108t83.5 75zM307 448q33 0 58.5 23
t25.5 57q0 42 -26.5 66t-63.5 24t-65 -24.5t-28 -65.5q0 -33 28 -56t64 -24h7zM301 325q-60 0 -88 -29.5t-28 -79.5q0 -42 33 -69.5t86 -27.5q52 0 81.5 28t29.5 71q0 49 -29 77.5t-82 29.5h-3z" />
    <glyph glyph-name="uniF739" unicode="&#xf739;" horiz-adv-x="620" 
d="M138 -173q70 28 147 96t83 128q-46 -37 -119 -37q-95 0 -153 65t-58 171q0 112 74 181.5t194 69.5q127 0 200.5 -77t73.5 -213q0 -85 -30.5 -162t-73 -130t-99 -98t-98.5 -69t-81 -40zM302 138q45 0 78.5 30.5t33.5 78.5q0 45 -31 75.5t-76 30.5q-51 0 -80 -30t-29 -73
q0 -49 28 -80.5t76 -31.5z" />
    <glyph glyph-name="one.fitted" horiz-adv-x="627" 
d="M576 147v-147h-483v147l184 -1v351q-56 -62 -166 -86l-41 117q159 68 253 201h107v-582h146z" />
    <glyph glyph-name="two.fitted" horiz-adv-x="627" 
d="M34 100q26 20 94 69.5t106.5 80.5t86 75.5t70.5 85.5t23 79q0 51 -34 80.5t-91 29.5q-94 0 -182 -76l-71 105q44 53 115.5 83.5t145.5 30.5q125 0 201 -69t76 -192q0 -175 -256 -332h258v-150h-491z" />
    <glyph glyph-name="three.fitted" horiz-adv-x="627" 
d="M248 426q18 1 54 5q109 9 109 85q0 37 -31.5 60.5t-81.5 23.5q-105 0 -171 -66l-105 93q49 58 132.5 87t159.5 29q118 0 190.5 -53.5t72.5 -155.5q0 -85 -74 -145q92 -54 92 -166q0 -102 -86.5 -168.5t-213.5 -66.5q-80 0 -141 16t-124 64l78 112q46 -23 82.5 -34
t53 -12.5t47.5 -1.5q62 0 103 27t41 69q0 39 -31 63.5t-86 28.5q-23 1 -69 5z" />
    <glyph glyph-name="four.fitted" horiz-adv-x="627" 
d="M519 729v-468h94l4 -122h-98v-139h-141v139h-332l-41 91l399 498zM201 262l177 -1v228z" />
    <glyph glyph-name="five.fitted" horiz-adv-x="627" 
d="M238 470q41 15 87 15q119 0 193.5 -64t74.5 -177q0 -119 -85.5 -187.5t-225.5 -68.5t-235 67l57 121q91 -44 192 -44q137 0 137 113q0 53 -36 79.5t-98 26.5q-74 0 -150 -33l-64 53v358h455v-146h-302v-113z" />
    <glyph glyph-name="six.fitted" horiz-adv-x="627" 
d="M504 608q-88 -12 -147 -41q-133 -63 -160 -195q34 51 74 77.5t105 26.5q97 0 159 -66t62 -170q0 -112 -78.5 -181.5t-199.5 -69.5q-128 0 -206 77.5t-78 212.5q0 141 75.5 249t200.5 163q86 39 187 47zM323 352q-46 0 -84 -27t-38 -68q0 -63 33 -91.5t84 -28.5
q54 0 86.5 28t32.5 75q0 48 -32.5 80t-81.5 32z" />
    <glyph glyph-name="seven.fitted" horiz-adv-x="627" 
d="M550 729l61 -59q-193 -287 -286 -678q-88 11 -165 14q78 330 241 572h-340v151h489z" />
    <glyph glyph-name="eight.fitted" horiz-adv-x="627" 
d="M133 401q-83 38 -83 134q0 99 78 153.5t190 54.5q107 0 184.5 -54.5t77.5 -153.5q0 -96 -83 -134q55 -25 81 -75.5t26 -110.5q0 -97 -76.5 -161.5t-212.5 -64.5t-212.5 64.5t-76.5 161.5q0 61 26 111t81 75zM333 438q38 0 62.5 23.5t24.5 66.5q0 40 -31.5 60t-73.5 20
t-73.5 -20t-31.5 -60q0 -44 26 -67t66 -23h31zM299 335q-113 0 -113 -109q0 -42 36.5 -69.5t97.5 -27.5q60 0 92 27t32 70q0 109 -115 109h-30z" />
    <glyph glyph-name="nine.fitted" horiz-adv-x="627" 
d="M121 124q86 12 146 41q133 65 161 195q-35 -51 -74.5 -77.5t-104.5 -26.5q-97 0 -159.5 66t-62.5 170q0 112 78.5 181.5t199.5 69.5q128 0 206 -77.5t78 -212.5q0 -141 -75.5 -249t-199.5 -163q-88 -39 -187 -47zM301 380q46 0 84 27t38 68q0 63 -33 91.5t-84 28.5
q-54 0 -86.5 -28t-32.5 -75q0 -48 32.5 -80t81.5 -32z" />
    <glyph glyph-name="zero.fitted" horiz-adv-x="627" 
d="M15 364q0 177 79.5 277.5t219.5 100.5q141 0 219.5 -99.5t78.5 -277.5q0 -78 -15.5 -143t-49 -119t-93.5 -84t-141 -30q-80 0 -139.5 30.5t-93 84.5t-49.5 119t-16 141zM175 365q0 -119 33.5 -172.5t108.5 -53.5q43 0 71.5 19t41.5 55t17.5 70.5t4.5 81.5q0 227 -135 227
q-41 0 -70.5 -20.5t-44 -55.5t-21 -72t-6.5 -79z" />
    <glyph glyph-name="one.numerator" 
d="M154 359v225q-34 -36 -75 -51l-41 66q84 54 147 129h69v-369h-100z" />
    <glyph glyph-name="two.numerator" 
d="M58 359l-33 65l110 88q41 33 56.5 51t15.5 34q0 18 -13 28.5t-34 10.5q-35 0 -79 -34l-49 74q36 33 64.5 46t65.5 13q64 0 106 -36.5t42 -93.5q0 -44 -31.5 -84t-96.5 -63h133v-99h-257z" />
    <glyph glyph-name="three.numerator" 
d="M66 472q47 -24 83 -24q64 0 64 40q0 27 -37 27h-36v71l32 2q14 1 21.5 10.5t7.5 19.5q0 25 -43 25q-44 0 -82 -38l-63 61q62 69 149 69q63 0 102.5 -29.5t39.5 -76.5q0 -41 -22 -71q34 -33 34 -78q0 -54 -45 -90t-115 -36q-41 0 -72 8.5t-68 35.5z" />
    <glyph glyph-name="four.numerator" 
d="M291 729v-221h44v-84h-44v-65h-91v65h-161l-26 59l196 246h82zM132 509h68v83z" />
    <glyph glyph-name="five.numerator" 
d="M154 600q21 4 42 4q55 0 89.5 -31.5t34.5 -83.5q0 -61 -44.5 -98.5t-115.5 -37.5q-72 0 -128 42l50 87q33 -32 79 -32q55 0 55 33q0 34 -43 34q-30 0 -77 -24l-42 35v200h241v-92h-141v-36z" />
    <glyph glyph-name="six.numerator" 
d="M278 658q-52 -8 -78 -20q-31 -16 -52 -42q22 15 53 15q53 0 87.5 -35t34.5 -89q0 -59 -41.5 -96.5t-105.5 -37.5q-67 0 -107.5 42t-40.5 112q0 103 70.5 163.5t175.5 70.5zM178 531q-49 0 -49 -42q0 -44 48 -44q22 0 35 11t13 31q0 44 -47 44z" />
    <glyph glyph-name="seven.numerator" 
d="M330 690q-94 -167 -137 -330h-113q36 142 123 274h-161v94h248z" />
    <glyph glyph-name="eight.numerator" 
d="M285 561q39 -33 39 -85q0 -53 -42.5 -87.5t-109.5 -34.5t-107 33.5t-40 88.5q0 51 38 85q-27 27 -27 62q0 50 38 81t99 31t100 -31.5t39 -80.5q0 -36 -27 -62zM174 645q-35 0 -35 -27q0 -31 35 -31t35 32q0 26 -35 26zM175 443q46 0 46 39q0 17 -12.5 27.5t-34.5 10.5
q-21 0 -33.5 -11.5t-12.5 -28.5q0 -22 11.5 -29.5t35.5 -7.5z" />
    <glyph glyph-name="nine.numerator" 
d="M71 423q52 8 77 21q34 16 52 41q-23 -15 -53 -15q-53 0 -87.5 35t-34.5 90q0 59 41.5 96.5t105.5 37.5q67 0 107.5 -42t40.5 -112q0 -103 -71 -164t-175 -70zM170 551q49 0 49 42q0 44 -48 44q-22 0 -35 -11t-13 -31q0 -44 47 -44z" />
    <glyph glyph-name="zero.numerator" 
d="M16 544q0 89 42.5 140t115.5 51t114.5 -51.5t41.5 -140.5q0 -91 -41.5 -140t-117.5 -49q-74 0 -114.5 52t-40.5 138zM119 544q0 -49 12.5 -70t41.5 -21t41.5 19.5t12.5 66.5q0 97 -52 97q-28 0 -40 -20.5t-16 -71.5z" />
    <glyph glyph-name="one.denominator" 
d="M154 0v224q-33 -34 -75 -50l-41 66q83 52 147 128h69v-368h-100z" />
    <glyph glyph-name="two.denominator" 
d="M58 0l-33 65l110 88q41 33 56.5 51t15.5 34q0 18 -13 28.5t-33 10.5q-16 0 -28 -5.5t-52 -28.5l-51 78q42 33 67.5 44t62.5 11q64 0 107 -36.5t43 -93.5q0 -44 -31.5 -84t-96.5 -63h133v-99h-257z" />
    <glyph glyph-name="three.denominator" 
d="M66 112q47 -24 83 -24q64 0 64 40q0 27 -37 27h-36v71l32 2q14 1 21.5 10.5t7.5 19.5q0 25 -43 25q-44 0 -82 -38l-63 61q62 69 149 69q63 0 102.5 -29.5t39.5 -76.5q0 -41 -22 -71q34 -33 34 -78q0 -54 -45 -90t-115 -36q-41 0 -72 8.5t-68 36.5z" />
    <glyph glyph-name="four.denominator" 
d="M291 369v-218h44v-87h-44v-64h-91v64h-161l-26 59l196 246h82zM132 152h68v79z" />
    <glyph glyph-name="five.denominator" 
d="M154 240q21 4 42 4q55 0 89.5 -31.5t34.5 -83.5q0 -60 -44.5 -97.5t-115.5 -37.5t-128 41l50 87q35 -32 79 -32q56 0 56 33q0 34 -44 34q-29 0 -77 -23l-42 34v200h241v-92h-141v-36z" />
    <glyph glyph-name="six.denominator" 
d="M278 298q-52 -8 -78 -20q-32 -16 -52 -41q23 14 53 14q53 0 87.5 -35t34.5 -89q0 -59 -41.5 -96.5t-105.5 -37.5q-67 0 -107.5 42t-40.5 112q0 103 71 164t175 70zM178 170q-49 0 -49 -41q0 -44 48 -44q22 0 35 11t13 30q0 44 -47 44z" />
    <glyph glyph-name="seven.denominator" 
d="M330 330q-94 -167 -137 -330h-113q36 142 123 274h-161v94h248z" />
    <glyph glyph-name="eight.denominator" 
d="M285 202q39 -33 39 -85q0 -53 -42.5 -87.5t-109.5 -34.5t-107 33.5t-40 88.5q0 51 38 85q-27 26 -27 61q0 50 38 81t99 31t100 -31t39 -81q0 -37 -27 -61zM174 285q-34 0 -34 -27q0 -31 34 -31q35 0 35 32q0 26 -35 26zM175 84q46 0 46 38q0 17 -12.5 27.5t-34.5 10.5
q-21 0 -33.5 -11.5t-12.5 -28.5q0 -22 11.5 -29t35.5 -7z" />
    <glyph glyph-name="nine.denominator" 
d="M71 64q51 7 77 20q34 16 52 41q-23 -15 -53 -15q-53 0 -87.5 35t-34.5 90q0 59 41.5 96.5t105.5 37.5q67 0 107.5 -42t40.5 -112q0 -103 -71 -164t-175 -70zM170 191q49 0 49 42q0 44 -48 44q-22 0 -35 -11t-13 -31q0 -44 47 -44z" />
    <glyph glyph-name="zero.denominator" 
d="M16 184q0 89 42.5 140t115.5 51t114.5 -51t41.5 -141t-41.5 -139t-117.5 -49q-74 0 -114.5 51.5t-40.5 137.5zM119 184q0 -49 12.5 -70t41.5 -21t41.5 19.5t12.5 66.5q0 97 -52 97q-28 0 -40 -20.5t-16 -71.5z" />
    <glyph glyph-name="twofifth" horiz-adv-x="873" 
d="M74 359l-33 65l110 88q41 33 56.5 51t15.5 34q0 18 -13 28.5t-34 10.5q-35 0 -79 -34l-49 74q36 33 64.5 46t65.5 13q64 0 106 -36.5t42 -93.5q0 -44 -31.5 -84t-96.5 -63h133v-99h-257zM262 -13q-46 13 -109 13l485 735q46 -13 109 -13zM667 240q21 4 42 4
q55 0 89.5 -31.5t34.5 -83.5q0 -60 -44.5 -97.5t-115.5 -37.5t-128 41l50 87q33 -32 79 -32q55 0 55 33q0 34 -44 34q-29 0 -76 -23l-42 34v200h241v-92h-141v-36z" />
    <glyph glyph-name="threefifth" horiz-adv-x="873" 
d="M95 472q47 -24 83 -24q64 0 64 40q0 27 -37 27h-36v71l32 2q14 1 21.5 10.5t7.5 19.5q0 25 -43 25q-44 0 -82 -38l-63 61q62 69 149 69q63 0 102.5 -29.5t39.5 -76.5q0 -41 -22 -71q34 -33 34 -78q0 -54 -45 -90t-115 -36q-41 0 -72 8.5t-68 35.5zM254 -13
q-46 13 -109 13l485 735q46 -13 108 -13zM674 240q21 4 42 4q55 0 89.5 -31.5t34.5 -83.5q0 -60 -44.5 -97.5t-115.5 -37.5t-128 41l50 87q35 -32 79 -32q55 0 55 33q0 34 -43 34q-29 0 -77 -23l-42 34v200h241v-92h-141v-36z" />
    <glyph glyph-name="fourfifth" horiz-adv-x="873" 
d="M269 -13q-46 13 -109 13l485 735q46 -13 109 -13zM307 729v-221h44v-84h-44v-65h-91v65h-161l-26 59l196 246h82zM148 509h68v83zM678 240q21 4 42 4q55 0 89.5 -31.5t34.5 -83.5q0 -60 -44.5 -97.5t-115.5 -37.5t-128 41l50 87q33 -32 79 -32q56 0 56 33q0 34 -44 34
q-29 0 -77 -23l-42 34v200h241v-92h-141v-36z" />
    <glyph glyph-name="fivesixth" horiz-adv-x="873" 
d="M264 -13q-48 13 -109 13l484 735q48 -13 109 -13zM180 600q21 4 42 4q55 0 89.5 -31.5t34.5 -83.5q0 -61 -44.5 -98.5t-115.5 -37.5q-72 0 -128 42l50 87q33 -32 79 -32q55 0 55 33q0 34 -43 34q-30 0 -77 -24l-42 35v200h241v-92h-141v-36zM772 298q-52 -8 -78 -20
q-32 -16 -52 -41q23 14 53 14q53 0 87.5 -35t34.5 -89q0 -59 -41.5 -96.5t-105.5 -37.5q-67 0 -107.5 42t-40.5 112q0 103 71 164t175 70zM673 170q-50 0 -50 -41q0 -44 49 -44q22 0 35 11t13 30q0 44 -47 44z" />
    <glyph glyph-name="percent.frac" horiz-adv-x="819" 
d="M188 735q73 0 114.5 -51.5t41.5 -140.5q0 -90 -42.5 -139.5t-118.5 -49.5q-78 0 -115.5 42.5t-37.5 147.5q0 89 42.5 140t115.5 51zM205 -13q-48 13 -109 13l484 735q48 -13 109 -13zM187 453q29 0 41.5 19t12.5 66q0 98 -52 98q-28 0 -40 -20.5t-16 -71.5
q0 -49 12.5 -70t41.5 -21zM595 372q73 0 114.5 -51t41.5 -141t-42.5 -139t-118.5 -49q-78 0 -115.5 42.5t-37.5 146.5q0 89 42.5 140t115.5 51zM594 91q29 0 41.5 19t12.5 66q0 97 -52 97q-28 0 -40 -20t-16 -71q0 -49 12.5 -70t41.5 -21z" />
    <glyph glyph-name="perthousand.frac" horiz-adv-x="1109" 
d="M188 735q73 0 114.5 -51.5t41.5 -140.5q0 -90 -42.5 -139.5t-118.5 -49.5q-78 0 -115.5 42.5t-37.5 147.5q0 89 42.5 140t115.5 51zM205 -13q-48 13 -109 13l484 735q48 -13 109 -13zM187 453q29 0 41.5 19t12.5 66q0 98 -52 98q-28 0 -40 -20.5t-16 -71.5
q0 -49 12.5 -70t41.5 -21zM595 372q73 0 114.5 -51t41.5 -141t-42.5 -139t-118.5 -49q-78 0 -115.5 42.5t-37.5 146.5q0 89 42.5 140t115.5 51zM950 372q73 0 114.5 -51t41.5 -141t-42.5 -139t-118.5 -49q-78 0 -115.5 42.5t-37.5 146.5q0 89 42.5 140t115.5 51zM594 91
q29 0 41.5 19t12.5 66q0 97 -52 97q-28 0 -40 -20t-16 -71q0 -49 12.5 -70t41.5 -21zM949 91q29 0 41.5 19t12.5 66q0 97 -52 97q-28 0 -40 -20t-16 -71q0 -49 12.5 -70t41.5 -21z" />
    <glyph glyph-name="fraction.afrac" horiz-adv-x="516" 
d="M461 397v-141h-405v141h405z" />
    <glyph glyph-name="Dotaccent" horiz-adv-x="226" 
d="M192 958q35 0 59 -23.5t24 -57.5q0 -33 -24.5 -56.5t-58.5 -23.5t-58 23.5t-24 56.5q0 34 24 57.5t58 23.5z" />
    <glyph glyph-name="Ring" horiz-adv-x="350" 
d="M306 896q0 -49 -36 -83.5t-87 -34.5q-50 0 -86 34.5t-36 83.5t36 83.5t86 34.5q51 0 87 -34.5t36 -83.5zM184 937q-21 0 -32.5 -11.5t-11.5 -30.5q0 -16 13 -27.5t31 -11.5t31 11.5t13 27.5q0 19 -11.5 30.5t-32.5 11.5z" />
    <glyph glyph-name="Circumflex" horiz-adv-x="445" 
d="M394 794q-87 19 -171 69q-80 -50 -171 -68l-19 102q91 23 190 80q59 -34 95.5 -49.5t94.5 -30.5z" />
    <glyph glyph-name="Breve" horiz-adv-x="500" 
d="M105 971q49 -62 105 -63q57 1 106 63l85 -50q-31 -63 -75.5 -91.5t-114.5 -28.5t-115 28.5t-76 91.5z" />
    <glyph glyph-name="Tilde" horiz-adv-x="440" 
d="M399 934q-11 -29 -19 -46t-23.5 -39.5t-37.5 -33t-51 -10.5t-65.5 22t-52.5 22q-18 0 -29 -10t-26 -31l-86 35q18 53 49.5 88t77.5 35q27 0 69.5 -24.5t56.5 -24.5q4 0 8.5 1t7.5 2t6.5 4.5l5.5 5.5t5.5 7t5 7t6 9t5.5 9z" />
    <glyph glyph-name="Cedilla" horiz-adv-x="925" 
d="M243 -172q122 -64 200 -64q30 0 48 12.5t18 33.5q0 18 -10.5 28.5t-27.5 10.5q-28 0 -52 -24l-83 56q62 69 140 69q66 0 106 -40.5t40 -104.5q0 -63 -46.5 -102.5t-121.5 -39.5q-54 0 -125.5 24t-120.5 67z" />
    <glyph glyph-name="Ogonek" horiz-adv-x="456" 
d="M344 -243l-12 -7q-11 -6 -13.5 -7t-13.5 -6.5t-16 -7t-16.5 -5.5t-21 -5t-22.5 -2.5t-26 -1.5q-54 0 -90.5 37t-36.5 93q0 42 15 75.5t42.5 56t55 37t63.5 26.5l88 -40q-70 -28 -112 -67t-42 -77q0 -13 11 -24t31 -11q39 0 83 32z" />
    <glyph glyph-name="Commaaccent" horiz-adv-x="620" 
d="M370 -303h-95l-2 95q-29 24 -31 62q0 33 23.5 56t57.5 23t57.5 -23t23.5 -56q-2 -39 -32 -62z" />
    <glyph glyph-name="Comma.high" horiz-adv-x="630" 
d="M239 750q14 13 27 32.5t14 27.5q-22 1 -41.5 20t-19.5 51t22.5 54.5t56.5 22.5q35 0 59 -24.5t24 -60.5q0 -96 -110 -169z" />
    <glyph glyph-name="uniF6CB.alt" horiz-adv-x="646" 
d="M221 958q33 0 56.5 -23t23.5 -56q0 -32 -23.5 -55t-56.5 -23t-56.5 23t-23.5 55q0 33 23.5 56t56.5 23zM412 954q34 0 57 -23t23 -56q0 -32 -23.5 -55t-56.5 -23t-56.5 23t-23.5 55q0 33 23.5 56t56.5 23z" />
    <glyph glyph-name="comma.high" horiz-adv-x="630" 
d="M239 512q14 13 27 32t14 27q-22 1 -41.5 20t-19.5 51t22.5 54.5t56.5 22.5q35 0 59 -24.5t24 -60.5q0 -96 -110 -169z" />
    <glyph glyph-name="dieresis.alt" horiz-adv-x="646" 
d="M221 723q33 0 56.5 -23t23.5 -56q0 -32 -23.5 -55t-56.5 -23t-56.5 23t-23.5 55q0 33 23.5 56t56.5 23zM412 719q34 0 57 -23t23 -56q0 -32 -23.5 -55t-56.5 -23t-56.5 23t-23.5 55q0 33 23.5 56t56.5 23z" />
    <glyph glyph-name="Idotaccent.sc" horiz-adv-x="308" 
d="M230 0h-152v501h152v-501z" />
    <glyph glyph-name="paragraph.sc" horiz-adv-x="592" 
d="M397 452v-488h-58v497h-40v-409q-95 6 -162 68.5t-67 156.5q0 100 73.5 164.5t187.5 64.5q37 0 67.5 -6.5t105.5 -30.5v-505h-57v478z" />
    <glyph glyph-name="a.salt" horiz-adv-x="642" 
d="M585 6q-70 0 -147 -11v60q-58 -61 -165 -61q-104 0 -168.5 69t-64.5 183q0 116 65.5 185.5t179.5 69.5q95 0 153 -49v53q76 -14 147 -14v-485zM190 246q0 -60 34 -90.5t90 -30.5q59 0 94 41q25 31 25 78q0 55 -30 90q-33 36 -89 36q-54 0 -89 -32t-35 -92z" />
    <glyph glyph-name="A.ss01" horiz-adv-x="896" 
d="M831 -5q-69 11 -158 13q16 135 16 253q0 108 -18 172.5t-69 106.5q-64 53 -155 53q-89 0 -151 -53q-49 -43 -69 -108.5t-20 -169.5q0 -109 14 -256q-79 1 -158 -11q-16 156 -16 267q0 104 14.5 175.5t53.5 129.5q55 84 142 130t190 46t189 -45.5t142 -129.5
q43 -64 57 -135.5t14 -168.5q0 -89 -18 -269zM623 228h-355v136h355v-136z" />
    <glyph glyph-name="Aacute.ss01" horiz-adv-x="896" 
d="M381 879q124 49 236 122l64 -95q-45 -27 -119.5 -58t-149.5 -48zM831 -5q-69 11 -158 13q16 135 16 253q0 108 -18 172.5t-69 106.5q-64 53 -155 53q-89 0 -151 -53q-49 -43 -69 -108.5t-20 -169.5q0 -109 14 -256q-79 1 -158 -11q-16 156 -16 267q0 104 14.5 175.5
t53.5 129.5q55 84 142 130t190 46t189 -45.5t142 -129.5q43 -64 57 -135.5t14 -168.5q0 -89 -18 -269zM623 228h-355v136h355v-136z" />
    <glyph glyph-name="Abreve.ss01" horiz-adv-x="896" 
d="M342 976q49 -62 105 -63q57 1 106 63l85 -50q-31 -63 -75.5 -91.5t-114.5 -28.5t-115 28.5t-76 91.5zM831 -5q-69 11 -158 13q16 135 16 253q0 108 -18 172.5t-69 106.5q-64 53 -155 53q-89 0 -151 -53q-49 -43 -69 -108.5t-20 -169.5q0 -109 14 -256q-79 1 -158 -11
q-16 156 -16 267q0 104 14.5 175.5t53.5 129.5q55 84 142 130t190 46t189 -45.5t142 -129.5q43 -64 57 -135.5t14 -168.5q0 -89 -18 -269zM623 228h-355v136h355v-136z" />
    <glyph glyph-name="Acircumflex.ss01" horiz-adv-x="896" 
d="M622 799q-85 17 -171 68q-81 -49 -171 -67l-19 102q91 23 190 80q59 -35 95.5 -50.5t94.5 -29.5zM831 -5q-69 11 -158 13q16 135 16 253q0 108 -18 172.5t-69 106.5q-64 53 -155 53q-89 0 -151 -53q-49 -43 -69 -108.5t-20 -169.5q0 -109 14 -256q-79 1 -158 -11
q-16 156 -16 267q0 104 14.5 175.5t53.5 129.5q55 84 142 130t190 46t189 -45.5t142 -129.5q43 -64 57 -135.5t14 -168.5q0 -89 -18 -269zM623 228h-355v136h355v-136z" />
    <glyph glyph-name="uni0200.ss01" horiz-adv-x="896" 
d="M333 786q-111 62 -186 146l80 60q67 -82 154 -150zM503 786q-110 62 -185 146l80 60q67 -82 154 -150zM831 -5q-69 11 -158 13q16 135 16 253q0 108 -18 172.5t-69 106.5q-64 53 -155 53q-89 0 -151 -53q-49 -43 -69 -108.5t-20 -169.5q0 -109 14 -256q-79 1 -158 -11
q-16 156 -16 267q0 104 14.5 175.5t53.5 129.5q55 84 142 130t190 46t189 -45.5t142 -129.5q43 -64 57 -135.5t14 -168.5q0 -89 -18 -269zM623 228h-355v136h355v-136z" />
    <glyph glyph-name="Adieresis.ss01" horiz-adv-x="896" 
d="M335 969q33 0 56.5 -23t23.5 -56q0 -32 -23.5 -55t-56.5 -23t-56.5 23t-23.5 55q0 33 23.5 56t56.5 23zM568 965q34 0 57 -23t23 -56q0 -32 -23.5 -55t-56.5 -23t-56.5 23t-23.5 55q0 33 23.5 56t56.5 23zM831 -5q-69 11 -158 13q16 135 16 253q0 108 -18 172.5
t-69 106.5q-64 53 -155 53q-89 0 -151 -53q-49 -43 -69 -108.5t-20 -169.5q0 -109 14 -256q-79 1 -158 -11q-16 156 -16 267q0 104 14.5 175.5t53.5 129.5q55 84 142 130t190 46t189 -45.5t142 -129.5q43 -64 57 -135.5t14 -168.5q0 -89 -18 -269zM623 228h-355v136h355
v-136z" />
    <glyph glyph-name="Agrave.ss01" horiz-adv-x="896" 
d="M477 800q-75 17 -149.5 48t-119.5 58l64 95q112 -73 236 -122zM831 -5q-69 11 -158 13q16 135 16 253q0 108 -18 172.5t-69 106.5q-64 53 -155 53q-89 0 -151 -53q-49 -43 -69 -108.5t-20 -169.5q0 -109 14 -256q-79 1 -158 -11q-16 156 -16 267q0 104 14.5 175.5
t53.5 129.5q55 84 142 130t190 46t189 -45.5t142 -129.5q43 -64 57 -135.5t14 -168.5q0 -89 -18 -269zM623 228h-355v136h355v-136z" />
    <glyph glyph-name="Amacron.ss01" horiz-adv-x="896" 
d="M596 832h-315v98h315v-98zM831 -5q-69 11 -158 13q16 135 16 253q0 108 -18 172.5t-69 106.5q-64 53 -155 53q-89 0 -151 -53q-49 -43 -69 -108.5t-20 -169.5q0 -109 14 -256q-79 1 -158 -11q-16 156 -16 267q0 104 14.5 175.5t53.5 129.5q55 84 142 130t190 46
t189 -45.5t142 -129.5q43 -64 57 -135.5t14 -168.5q0 -89 -18 -269zM623 228h-355v136h355v-136z" />
    <glyph glyph-name="Aogonek.ss01" horiz-adv-x="896" 
d="M718 -180q39 0 83 32l33 -96l-12 -6q-11 -7 -13.5 -8t-13.5 -6.5t-16 -7t-16.5 -5.5t-21 -5t-22.5 -2.5t-26 -1.5q-54 0 -90.5 37t-36.5 93q0 100 112 164h-5q16 135 16 253q0 108 -18 172.5t-69 106.5q-64 53 -155 53q-89 0 -151 -53q-49 -43 -69 -108.5t-20 -169.5
q0 -109 14 -256q-79 1 -158 -11q-16 156 -16 267q0 104 14.5 175.5t53.5 129.5q55 84 142 130t190 46t189 -45.5t142 -129.5q43 -64 57 -135.5t14 -168.5q0 -89 -18 -269q-1 0 -3 0.5t-4 0.5q-148 -78 -148 -141q0 -13 11 -24t31 -11zM623 364v-136h-355v136h355z" />
    <glyph glyph-name="Aring.ss01" horiz-adv-x="896" 
d="M572 899q0 -49 -36 -83.5t-87 -34.5q-50 0 -86 34.5t-36 83.5q0 48 36 82.5t86 34.5q51 0 87 -34t36 -83zM450 939q-21 0 -32.5 -11.5t-11.5 -30.5q0 -16 13 -27t31 -11t31 11t13 27q0 19 -11.5 30.5t-32.5 11.5zM831 -5q-69 11 -158 13q16 135 16 253q0 108 -18 172.5
t-69 106.5q-64 53 -155 53q-89 0 -151 -53q-49 -43 -69 -108.5t-20 -169.5q0 -109 14 -256q-79 1 -158 -11q-16 156 -16 267q0 104 14.5 175.5t53.5 129.5q55 84 142 130t190 46t189 -45.5t142 -129.5q43 -64 57 -135.5t14 -168.5q0 -89 -18 -269zM623 228h-355v136h355
v-136z" />
    <glyph glyph-name="Atilde.ss01" horiz-adv-x="896" 
d="M645 939q-11 -29 -19 -46t-23.5 -39.5t-37.5 -33t-51 -10.5t-65.5 21.5t-52.5 21.5q-12 0 -22.5 -6t-16.5 -13t-16 -21l-86 35q42 122 127 122q27 0 69.5 -24t56.5 -24q4 0 8.5 1t7.5 2t6.5 4.5l5.5 5.5t5.5 7t5 7t6 9t5.5 9zM831 -5q-69 11 -158 13q16 135 16 253
q0 108 -18 172.5t-69 106.5q-64 53 -155 53q-89 0 -151 -53q-49 -43 -69 -108.5t-20 -169.5q0 -109 14 -256q-79 1 -158 -11q-16 156 -16 267q0 104 14.5 175.5t53.5 129.5q55 84 142 130t190 46t189 -45.5t142 -129.5q43 -64 57 -135.5t14 -168.5q0 -89 -18 -269zM623 228
h-355v136h355v-136z" />
    <glyph glyph-name="AE.ss01" horiz-adv-x="1159" 
d="M1130 36q-97 -49 -214 -49q-83 0 -165 43q6 -33 6 -35q-61 11 -141 13q4 33 10 101q-32 44 -41 101l-3 18h-314v136h341q11 17 22 31q-37 46 -37 110q0 3 0.5 9.5t0.5 9.5q-62 69 -165 69q-82 0 -140 -53q-46 -43 -64.5 -108t-18.5 -169q0 -110 14 -257q-87 0 -158 -11
q-16 157 -16 267q0 103 14 175t51 130q53 84 135 130t179 46q134 0 237 -76q32 31 79 50q65 28 156 28q132 0 231 -74l-71 -135q-44 31 -79 45t-89 14q-61 0 -98.5 -31.5t-37.5 -79.5q0 -53 55 -87v-33q-68 -31 -68 -87q0 -62 43.5 -100.5t122.5 -38.5q86 0 167 42z" />
    <glyph glyph-name="AEacute.ss01" horiz-adv-x="1159" 
d="M613 879q124 49 236 122l64 -95q-45 -27 -119.5 -58t-149.5 -48zM1130 36q-97 -49 -214 -49q-83 0 -165 43q6 -33 6 -35q-61 11 -141 13q4 33 10 101q-32 44 -41 101l-3 18h-314v136h341q11 17 22 31q-37 46 -37 110q0 3 0.5 9.5t0.5 9.5q-62 69 -165 69q-82 0 -140 -53
q-46 -43 -64.5 -108t-18.5 -169q0 -110 14 -257q-87 0 -158 -11q-16 157 -16 267q0 103 14 175t51 130q53 84 135 130t179 46q134 0 237 -76q32 31 79 50q65 28 156 28q132 0 231 -74l-71 -135q-44 31 -79 45t-89 14q-61 0 -98.5 -31.5t-37.5 -79.5q0 -53 55 -87v-33
q-68 -31 -68 -87q0 -62 43.5 -100.5t122.5 -38.5q86 0 167 42z" />
    <glyph glyph-name="E.ss01" horiz-adv-x="622" 
d="M526 545q-84 49 -185 49q-62 0 -102 -23.5t-40 -68.5q0 -38 25 -56.5t64 -18.5v-88q-37 0 -64.5 -24.5t-27.5 -63.5q0 -112 155 -112q98 0 176 32l65 -121q-90 -62 -257 -62q-131 0 -216 62.5t-85 178.5q0 46 19 88t51 65q-27 13 -46.5 49.5t-19.5 80.5q0 108 81 170
t205 62q151 0 264 -80z" />
    <glyph glyph-name="Eacute.ss01" horiz-adv-x="622" 
d="M256 879q124 49 236 122l64 -95q-45 -27 -119.5 -58t-149.5 -48zM526 545q-84 49 -185 49q-62 0 -102 -23.5t-40 -68.5q0 -38 25 -56.5t64 -18.5v-88q-37 0 -64.5 -24.5t-27.5 -63.5q0 -112 155 -112q98 0 176 32l65 -121q-90 -62 -257 -62q-131 0 -216 62.5t-85 178.5
q0 46 19 88t51 65q-27 13 -46.5 49.5t-19.5 80.5q0 108 81 170t205 62q151 0 264 -80z" />
    <glyph glyph-name="Ebreve.ss01" horiz-adv-x="622" 
d="M217 976q49 -62 105 -63q57 1 106 63l85 -50q-31 -63 -75.5 -91.5t-114.5 -28.5t-115 28.5t-76 91.5zM526 545q-84 49 -185 49q-62 0 -102 -23.5t-40 -68.5q0 -38 25 -56.5t64 -18.5v-88q-37 0 -64.5 -24.5t-27.5 -63.5q0 -112 155 -112q98 0 176 32l65 -121
q-90 -62 -257 -62q-131 0 -216 62.5t-85 178.5q0 46 19 88t51 65q-27 13 -46.5 49.5t-19.5 80.5q0 108 81 170t205 62q151 0 264 -80z" />
    <glyph glyph-name="Ecaron.ss01" horiz-adv-x="622" 
d="M510 872q-58 -14 -94.5 -29.5t-95.5 -50.5q-99 57 -190 80l19 103q91 -19 171 -68q84 50 171 69zM526 545q-84 49 -185 49q-62 0 -102 -23.5t-40 -68.5q0 -38 25 -56.5t64 -18.5v-88q-37 0 -64.5 -24.5t-27.5 -63.5q0 -112 155 -112q98 0 176 32l65 -121
q-90 -62 -257 -62q-131 0 -216 62.5t-85 178.5q0 46 19 88t51 65q-27 13 -46.5 49.5t-19.5 80.5q0 108 81 170t205 62q151 0 264 -80z" />
    <glyph glyph-name="Ecircumflex.ss01" horiz-adv-x="622" 
d="M497 799q-85 17 -171 68q-81 -49 -171 -67l-19 102q91 23 190 80q59 -35 95.5 -50.5t94.5 -29.5zM526 545q-84 49 -185 49q-62 0 -102 -23.5t-40 -68.5q0 -38 25 -56.5t64 -18.5v-88q-37 0 -64.5 -24.5t-27.5 -63.5q0 -112 155 -112q98 0 176 32l65 -121
q-90 -62 -257 -62q-131 0 -216 62.5t-85 178.5q0 46 19 88t51 65q-27 13 -46.5 49.5t-19.5 80.5q0 108 81 170t205 62q151 0 264 -80z" />
    <glyph glyph-name="Edieresis.ss01" horiz-adv-x="622" 
d="M210 969q33 0 56.5 -23t23.5 -56q0 -32 -23.5 -55t-56.5 -23t-56.5 23t-23.5 55q0 33 23.5 56t56.5 23zM443 965q34 0 57 -23t23 -56q0 -32 -23.5 -55t-56.5 -23t-56.5 23t-23.5 55q0 33 23.5 56t56.5 23zM526 545q-84 49 -185 49q-62 0 -102 -23.5t-40 -68.5
q0 -38 25 -56.5t64 -18.5v-88q-37 0 -64.5 -24.5t-27.5 -63.5q0 -112 155 -112q98 0 176 32l65 -121q-90 -62 -257 -62q-131 0 -216 62.5t-85 178.5q0 46 19 88t51 65q-27 13 -46.5 49.5t-19.5 80.5q0 108 81 170t205 62q151 0 264 -80z" />
    <glyph glyph-name="Edotaccent.ss01" horiz-adv-x="622" 
d="M325 962q35 0 59 -23.5t24 -57.5q0 -33 -24.5 -56.5t-58.5 -23.5t-58 23.5t-24 56.5q0 34 24 57.5t58 23.5zM526 545q-84 49 -185 49q-62 0 -102 -23.5t-40 -68.5q0 -38 25 -56.5t64 -18.5v-88q-37 0 -64.5 -24.5t-27.5 -63.5q0 -112 155 -112q98 0 176 32l65 -121
q-90 -62 -257 -62q-131 0 -216 62.5t-85 178.5q0 46 19 88t51 65q-27 13 -46.5 49.5t-19.5 80.5q0 108 81 170t205 62q151 0 264 -80z" />
    <glyph glyph-name="Egrave.ss01" horiz-adv-x="622" 
d="M352 800q-75 17 -149.5 48t-119.5 58l64 95q112 -73 236 -122zM526 545q-84 49 -185 49q-62 0 -102 -23.5t-40 -68.5q0 -38 25 -56.5t64 -18.5v-88q-37 0 -64.5 -24.5t-27.5 -63.5q0 -112 155 -112q98 0 176 32l65 -121q-90 -62 -257 -62q-131 0 -216 62.5t-85 178.5
q0 46 19 88t51 65q-27 13 -46.5 49.5t-19.5 80.5q0 108 81 170t205 62q151 0 264 -80z" />
    <glyph glyph-name="Emacron.ss01" horiz-adv-x="622" 
d="M471 832h-315v98h315v-98zM526 545q-84 49 -185 49q-62 0 -102 -23.5t-40 -68.5q0 -38 25 -56.5t64 -18.5v-88q-37 0 -64.5 -24.5t-27.5 -63.5q0 -112 155 -112q98 0 176 32l65 -121q-90 -62 -257 -62q-131 0 -216 62.5t-85 178.5q0 46 19 88t51 65q-27 13 -46.5 49.5
t-19.5 80.5q0 108 81 170t205 62q151 0 264 -80z" />
    <glyph glyph-name="Eogonek.ss01" horiz-adv-x="622" 
d="M457 -144q39 0 83 32l33 -96l-11 -6q-12 -7 -14.5 -8t-13.5 -6.5t-16 -7t-16.5 -5.5t-21 -5t-22.5 -2.5t-26 -1.5q-54 0 -90.5 37t-36.5 93q0 61 40 108h-10q-131 0 -216 62.5t-85 178.5q0 46 19 88t51 65q-27 13 -46.5 49.5t-19.5 80.5q0 108 81 170t205 62
q151 0 264 -80l-62 -119q-84 49 -185 49q-62 0 -102 -23.5t-40 -68.5q0 -38 25 -56.5t64 -18.5v-88q-37 0 -64.5 -24.5t-27.5 -63.5q0 -112 155 -112q98 0 176 32l65 -121q-16 -10 -24 -14l1 -1q-154 -79 -154 -144q0 -13 11 -24t31 -11z" />
    <glyph glyph-name="OE.ss01" horiz-adv-x="1070" 
d="M545 729h463v-151h-314v-133h221v-144h-221v-150h333v-151h-482v93q-29 -51 -83 -77.5t-114 -26.5q-144 0 -224.5 103t-80.5 273t80.5 273.5t225.5 103.5q68 0 120 -27t76 -79v93zM541 367q0 37 -6 71q-9 59 -34 93q-45 60 -128 60q-170 0 -170 -226q0 -225 169 -225
q85 0 129 58q40 54 40 169z" />
    <glyph glyph-name="W.ss01" horiz-adv-x="870" 
d="M256 0h-102l-151 721q87 5 155 15l98 -470l133 216l90 -1l134 -213l99 468q94 -13 153 -14l-151 -722h-104l-176 293z" />
    <glyph glyph-name="Wacute.ss01" horiz-adv-x="870" 
d="M368 879q124 49 236 122l64 -95q-45 -27 -119.5 -58t-149.5 -48zM256 0h-102l-151 721q87 5 155 15l98 -470l133 216l90 -1l134 -213l99 468q94 -13 153 -14l-151 -722h-104l-176 293z" />
    <glyph glyph-name="Wcircumflex.ss01" horiz-adv-x="870" 
d="M609 799q-85 17 -171 68q-81 -49 -171 -67l-19 102q91 23 190 80q59 -35 95.5 -50.5t94.5 -29.5zM256 0h-102l-151 721q87 5 155 15l98 -470l133 216l90 -1l134 -213l99 468q94 -13 153 -14l-151 -722h-104l-176 293z" />
    <glyph glyph-name="Wdieresis.ss01" horiz-adv-x="870" 
d="M322 969q33 0 56.5 -23t23.5 -56q0 -32 -23.5 -55t-56.5 -23t-56.5 23t-23.5 55q0 33 23.5 56t56.5 23zM555 965q34 0 57 -23t23 -56q0 -32 -23.5 -55t-56.5 -23t-56.5 23t-23.5 55q0 33 23.5 56t56.5 23zM256 0h-102l-151 721q87 5 155 15l98 -470l133 216l90 -1
l134 -213l99 468q94 -13 153 -14l-151 -722h-104l-176 293z" />
    <glyph glyph-name="Wgrave.ss01" horiz-adv-x="870" 
d="M464 800q-75 17 -149.5 48t-119.5 58l64 95q112 -73 236 -122zM256 0h-102l-151 721q87 5 155 15l98 -470l133 216l90 -1l134 -213l99 468q94 -13 153 -14l-151 -722h-104l-176 293z" />
    <glyph glyph-name="aacute.ss01" horiz-adv-x="642" 
d="M254 643q124 49 236 122l64 -95q-45 -27 -119.5 -58t-149.5 -48zM585 6q-70 0 -147 -11v60q-58 -61 -165 -61q-104 0 -168.5 69t-64.5 183q0 116 65.5 185.5t179.5 69.5q95 0 153 -49v53q76 -14 147 -14v-485zM190 246q0 -60 34 -90.5t90 -30.5q59 0 94 41q25 31 25 78
q0 55 -30 90q-33 36 -89 36q-54 0 -89 -32t-35 -92z" />
    <glyph glyph-name="abreve.ss01" horiz-adv-x="642" 
d="M215 740q49 -62 105 -63q57 1 106 63l85 -50q-31 -63 -75.5 -91.5t-114.5 -28.5t-115 28.5t-76 91.5zM585 6q-70 0 -147 -11v60q-58 -61 -165 -61q-104 0 -168.5 69t-64.5 183q0 116 65.5 185.5t179.5 69.5q95 0 153 -49v53q76 -14 147 -14v-485zM190 246q0 -60 34 -90.5
t90 -30.5q59 0 94 41q25 31 25 78q0 55 -30 90q-33 36 -89 36q-54 0 -89 -32t-35 -92z" />
    <glyph glyph-name="uni01CE.ss01" horiz-adv-x="642" 
d="M508 636q-58 -14 -94.5 -29.5t-95.5 -50.5q-99 57 -190 80l19 103q91 -19 171 -68q84 50 171 69zM585 6q-70 0 -147 -11v60q-58 -61 -165 -61q-104 0 -168.5 69t-64.5 183q0 116 65.5 185.5t179.5 69.5q95 0 153 -49v53q76 -14 147 -14v-485zM190 246q0 -60 34 -90.5
t90 -30.5q59 0 94 41q25 31 25 78q0 55 -30 90q-33 36 -89 36q-54 0 -89 -32t-35 -92z" />
    <glyph glyph-name="acircumflex.ss01" horiz-adv-x="642" 
d="M495 563q-85 17 -171 68q-81 -49 -171 -67l-19 102q91 23 190 80q59 -35 95.5 -50.5t94.5 -29.5zM585 6q-70 0 -147 -11v60q-58 -61 -165 -61q-104 0 -168.5 69t-64.5 183q0 116 65.5 185.5t179.5 69.5q95 0 153 -49v53q76 -14 147 -14v-485zM190 246q0 -60 34 -90.5
t90 -30.5q59 0 94 41q25 31 25 78q0 55 -30 90q-33 36 -89 36q-54 0 -89 -32t-35 -92z" />
    <glyph glyph-name="adieresis.ss01" horiz-adv-x="642" 
d="M208 733q33 0 56.5 -23t23.5 -56q0 -32 -23.5 -55t-56.5 -23t-56.5 23t-23.5 55q0 33 23.5 56t56.5 23zM441 729q34 0 57 -23t23 -56q0 -32 -23.5 -55t-56.5 -23t-56.5 23t-23.5 55q0 33 23.5 56t56.5 23zM585 6q-70 0 -147 -11v60q-58 -61 -165 -61q-104 0 -168.5 69
t-64.5 183q0 116 65.5 185.5t179.5 69.5q95 0 153 -49v53q76 -14 147 -14v-485zM190 246q0 -60 34 -90.5t90 -30.5q59 0 94 41q25 31 25 78q0 55 -30 90q-33 36 -89 36q-54 0 -89 -32t-35 -92z" />
    <glyph glyph-name="uni0227.ss01" horiz-adv-x="642" 
d="M323 726q35 0 59 -23.5t24 -57.5q0 -33 -24.5 -56.5t-58.5 -23.5t-58 23.5t-24 56.5q0 34 24 57.5t58 23.5zM585 6q-70 0 -147 -11v60q-58 -61 -165 -61q-104 0 -168.5 69t-64.5 183q0 116 65.5 185.5t179.5 69.5q95 0 153 -49v53q76 -14 147 -14v-485zM190 246
q0 -60 34 -90.5t90 -30.5q59 0 94 41q25 31 25 78q0 55 -30 90q-33 36 -89 36q-54 0 -89 -32t-35 -92z" />
    <glyph glyph-name="agrave.ss01" horiz-adv-x="642" 
d="M350 564q-75 17 -149.5 48t-119.5 58l64 95q112 -73 236 -122zM585 6q-70 0 -147 -11v60q-58 -61 -165 -61q-104 0 -168.5 69t-64.5 183q0 116 65.5 185.5t179.5 69.5q95 0 153 -49v53q76 -14 147 -14v-485zM190 246q0 -60 34 -90.5t90 -30.5q59 0 94 41q25 31 25 78
q0 55 -30 90q-33 36 -89 36q-54 0 -89 -32t-35 -92z" />
    <glyph glyph-name="amacron.ss01" horiz-adv-x="642" 
d="M469 596h-315v98h315v-98zM585 6q-70 0 -147 -11v60q-58 -61 -165 -61q-104 0 -168.5 69t-64.5 183q0 116 65.5 185.5t179.5 69.5q95 0 153 -49v53q76 -14 147 -14v-485zM190 246q0 -60 34 -90.5t90 -30.5q59 0 94 41q25 31 25 78q0 55 -30 90q-33 36 -89 36
q-54 0 -89 -32t-35 -92z" />
    <glyph glyph-name="aogonek.ss01" horiz-adv-x="642" 
d="M560 -140l33 -96l-11 -6q-12 -7 -14.5 -8t-13.5 -6.5t-16 -7t-16.5 -5.5t-21 -5t-22.5 -2.5t-26 -1.5q-54 0 -90.5 37t-36.5 93q0 100 113 165v38q-58 -61 -165 -61q-104 0 -168.5 69t-64.5 183q0 116 65.5 185.5t179.5 69.5q95 0 153 -49v53q76 -14 147 -14v-482l4 -2
q-154 -79 -154 -144q0 -13 11 -24t31 -11q39 0 83 32zM408 166q25 31 25 78q0 55 -30 90q-33 36 -89 36q-54 0 -89 -32t-35 -92t34 -90.5t90 -30.5q59 0 94 41z" />
    <glyph glyph-name="aring.ss01" horiz-adv-x="642" 
d="M445 663q0 -49 -36 -83.5t-87 -34.5q-50 0 -86 34.5t-36 83.5q0 48 36 82.5t86 34.5q51 0 87 -34t36 -83zM323 703q-21 0 -32.5 -11.5t-11.5 -30.5q0 -16 13 -27t31 -11t31 11t13 27q0 19 -11.5 30.5t-32.5 11.5zM585 6q-70 0 -147 -11v60q-58 -61 -165 -61
q-104 0 -168.5 69t-64.5 183q0 116 65.5 185.5t179.5 69.5q95 0 153 -49v53q76 -14 147 -14v-485zM190 246q0 -60 34 -90.5t90 -30.5q59 0 94 41q25 31 25 78q0 55 -30 90q-33 36 -89 36q-54 0 -89 -32t-35 -92z" />
    <glyph glyph-name="aringacute.ss01" horiz-adv-x="642" 
d="M254 903q124 49 236 122l64 -95q-45 -27 -119.5 -58t-149.5 -48zM445 663q0 -49 -36 -83.5t-87 -34.5q-50 0 -86 34.5t-36 83.5q0 48 36 82.5t86 34.5q51 0 87 -34t36 -83zM323 703q-21 0 -32.5 -11.5t-11.5 -30.5q0 -16 13 -27t31 -11t31 11t13 27q0 19 -11.5 30.5
t-32.5 11.5zM585 6q-70 0 -147 -11v60q-58 -61 -165 -61q-104 0 -168.5 69t-64.5 183q0 116 65.5 185.5t179.5 69.5q95 0 153 -49v53q76 -14 147 -14v-485zM190 246q0 -60 34 -90.5t90 -30.5q59 0 94 41q25 31 25 78q0 55 -30 90q-33 36 -89 36q-54 0 -89 -32t-35 -92z" />
    <glyph glyph-name="atilde.ss01" horiz-adv-x="642" 
d="M518 703q-11 -29 -19 -46t-23.5 -39.5t-37.5 -33t-51 -10.5t-65.5 21.5t-52.5 21.5q-12 0 -22.5 -6t-16.5 -13t-16 -21l-86 35q42 122 127 122q27 0 69.5 -24t56.5 -24q4 0 8.5 1t7.5 2t6.5 4.5l5.5 5.5t5.5 7t5 7t6 9t5.5 9zM585 6q-70 0 -147 -11v60q-58 -61 -165 -61
q-104 0 -168.5 69t-64.5 183q0 116 65.5 185.5t179.5 69.5q95 0 153 -49v53q76 -14 147 -14v-485zM190 246q0 -60 34 -90.5t90 -30.5q59 0 94 41q25 31 25 78q0 55 -30 90q-33 36 -89 36q-54 0 -89 -32t-35 -92z" />
    <glyph glyph-name="f.ss01" horiz-adv-x="317" 
d="M11 364v130h70v4q0 116 51 170t166 54q21 0 61 -5q-10 -64 -11 -127h-32q-91 0 -91 -93v-3h108q-14 -47 -22 -130h-86v-600h-144v600h-70z" />
    <glyph glyph-name="uni1E1F.ss01" horiz-adv-x="317" 
d="M209 962q35 0 59 -23.5t24 -57.5q0 -33 -24.5 -56.5t-58.5 -23.5t-58 23.5t-24 56.5q0 34 24 57.5t58 23.5zM11 364v130h70v4q0 116 51 170t166 54q21 0 61 -5q-10 -64 -11 -127h-32q-91 0 -91 -93v-3h108q-14 -47 -22 -130h-86v-600h-144v600h-70z" />
    <glyph glyph-name="k.ss01" horiz-adv-x="585" 
d="M507 -87q-81 54 -151.5 140.5t-91.5 161.5q122 11 122 85q0 35 -21.5 55t-59.5 20q-48 0 -76 -39t-28 -98v-238h-144v722q57 2 144 13v-288q63 54 156 54q80 0 131.5 -51t51.5 -122q0 -55 -33 -99t-74 -52q20 -36 68.5 -83.5t106.5 -82.5z" />
    <glyph glyph-name="kcommaaccent.ss01" horiz-adv-x="585" 
d="M507 -87q-81 54 -151.5 140.5t-91.5 161.5q122 11 122 85q0 35 -21.5 55t-59.5 20q-48 0 -76 -39t-28 -98v-238h-144v722q57 2 144 13v-288q63 54 156 54q80 0 131.5 -51t51.5 -122q0 -55 -33 -99t-74 -52q20 -36 68.5 -83.5t106.5 -82.5zM340 -303h-95l-2 95
q-29 24 -31 62q0 33 23.5 56t57.5 23t57.5 -23t23.5 -56q-2 -39 -32 -62z" />
    <glyph glyph-name="q.ss01" horiz-adv-x="625" 
d="M447 24q-63 -30 -139 -30q-114 0 -189.5 70t-75.5 184q0 111 77.5 182t189.5 71q117 0 193.5 -70t76.5 -178q0 -84 -45 -151l92 -58q-60 -43 -96 -80zM312 362q-51 0 -83 -32t-32 -83q0 -52 31.5 -83t84.5 -31t83 29.5t30 85.5q0 53 -31 83.5t-83 30.5z" />
    <glyph glyph-name="u.ss01" horiz-adv-x="605" 
d="M67 505q58 -9 146 -14q-12 -101 -12 -182q0 -92 20.5 -134t80.5 -42q61 0 82 42t21 133q0 73 -13 183q88 5 147 14q20 -133 20 -212q0 -139 -57 -214q-63 -85 -199 -85q-133 0 -196 81q-60 75 -60 218q0 92 20 212z" />
    <glyph glyph-name="uacute.ss01" horiz-adv-x="605" 
d="M236 643q124 49 236 122l64 -95q-45 -27 -119.5 -58t-149.5 -48zM67 505q58 -9 146 -14q-12 -101 -12 -182q0 -92 20.5 -134t80.5 -42q61 0 82 42t21 133q0 73 -13 183q88 5 147 14q20 -133 20 -212q0 -139 -57 -214q-63 -85 -199 -85q-133 0 -196 81q-60 75 -60 218
q0 92 20 212z" />
    <glyph glyph-name="ubreve.ss01" horiz-adv-x="605" 
d="M197 740q49 -62 105 -63q57 1 106 63l85 -50q-31 -63 -75.5 -91.5t-114.5 -28.5t-115 28.5t-76 91.5zM67 505q58 -9 146 -14q-12 -101 -12 -182q0 -92 20.5 -134t80.5 -42q61 0 82 42t21 133q0 73 -13 183q88 5 147 14q20 -133 20 -212q0 -139 -57 -214q-63 -85 -199 -85
q-133 0 -196 81q-60 75 -60 218q0 92 20 212z" />
    <glyph glyph-name="uni01D4.ss01" horiz-adv-x="613" 
d="M494 636q-58 -14 -94.5 -29.5t-95.5 -50.5q-99 57 -190 80l19 103q91 -19 171 -68q84 50 171 69zM556 7q-70 -4 -147 -15v52q-58 -50 -138 -50q-112 0 -169 67.5t-57 178.5q0 102 14 266q79 -11 149 -14q-9 -171 -9 -230q0 -130 105 -130q56 0 80.5 40t24.5 119v207h147
v-491z" />
    <glyph glyph-name="ucircumflex.ss01" horiz-adv-x="605" 
d="M477 563q-85 17 -171 68q-81 -49 -171 -67l-19 102q91 23 190 80q59 -35 95.5 -50.5t94.5 -29.5zM67 505q58 -9 146 -14q-12 -101 -12 -182q0 -92 20.5 -134t80.5 -42q61 0 82 42t21 133q0 73 -13 183q88 5 147 14q20 -133 20 -212q0 -139 -57 -214q-63 -85 -199 -85
q-133 0 -196 81q-60 75 -60 218q0 92 20 212z" />
    <glyph glyph-name="udieresis.ss01" horiz-adv-x="605" 
d="M190 733q33 0 56.5 -23t23.5 -56q0 -32 -23.5 -55t-56.5 -23t-56.5 23t-23.5 55q0 33 23.5 56t56.5 23zM423 729q34 0 57 -23t23 -56q0 -32 -23.5 -55t-56.5 -23t-56.5 23t-23.5 55q0 33 23.5 56t56.5 23zM67 505q58 -9 146 -14q-12 -101 -12 -182q0 -92 20.5 -134
t80.5 -42q61 0 82 42t21 133q0 73 -13 183q88 5 147 14q20 -133 20 -212q0 -139 -57 -214q-63 -85 -199 -85q-133 0 -196 81q-60 75 -60 218q0 92 20 212z" />
    <glyph glyph-name="ugrave.ss01" horiz-adv-x="605" 
d="M332 564q-75 17 -149.5 48t-119.5 58l64 95q112 -73 236 -122zM67 505q58 -9 146 -14q-12 -101 -12 -182q0 -92 20.5 -134t80.5 -42q61 0 82 42t21 133q0 73 -13 183q88 5 147 14q20 -133 20 -212q0 -139 -57 -214q-63 -85 -199 -85q-133 0 -196 81q-60 75 -60 218
q0 92 20 212z" />
    <glyph glyph-name="uhungarumlaut.ss01" horiz-adv-x="605" 
d="M150 611q86 67 155 150l80 -61q-76 -83 -186 -145zM321 611q87 68 154 150l80 -61q-27 -31 -78.5 -72.5t-106.5 -72.5zM67 505q58 -9 146 -14q-12 -101 -12 -182q0 -92 20.5 -134t80.5 -42q61 0 82 42t21 133q0 73 -13 183q88 5 147 14q20 -133 20 -212q0 -139 -57 -214
q-63 -85 -199 -85q-133 0 -196 81q-60 75 -60 218q0 92 20 212z" />
    <glyph glyph-name="umacron.ss01" horiz-adv-x="605" 
d="M451 596h-315v98h315v-98zM67 505q58 -9 146 -14q-12 -101 -12 -182q0 -92 20.5 -134t80.5 -42q61 0 82 42t21 133q0 73 -13 183q88 5 147 14q20 -133 20 -212q0 -139 -57 -214q-63 -85 -199 -85q-133 0 -196 81q-60 75 -60 218q0 92 20 212z" />
    <glyph glyph-name="uogonek.ss01" horiz-adv-x="605" 
d="M539 505q20 -133 20 -212q0 -139 -57 -214q-33 -45 -87 -66q-150 -78 -150 -142q0 -13 11 -24t31 -11q39 0 83 32l33 -96l-11 -6q-12 -7 -14.5 -8t-13.5 -6.5t-16 -7t-16.5 -5.5t-21 -5t-22.5 -2.5t-26 -1.5q-54 0 -90.5 37t-36.5 93q0 84 76 141q-80 17 -124 74
q-60 75 -60 218q0 92 20 212q58 -9 146 -14q-12 -101 -12 -182q0 -92 20.5 -134t80.5 -42q61 0 82 42t21 133q0 73 -13 183q88 5 147 14z" />
    <glyph glyph-name="uring.ss01" horiz-adv-x="605" 
d="M427 663q0 -49 -36 -83.5t-87 -34.5q-50 0 -86 34.5t-36 83.5q0 48 36 82.5t86 34.5q51 0 87 -34t36 -83zM305 703q-21 0 -32.5 -11.5t-11.5 -30.5q0 -16 13 -27t31 -11t31 11t13 27q0 19 -11.5 30.5t-32.5 11.5zM67 505q58 -9 146 -14q-12 -101 -12 -182
q0 -92 20.5 -134t80.5 -42q61 0 82 42t21 133q0 73 -13 183q88 5 147 14q20 -133 20 -212q0 -139 -57 -214q-63 -85 -199 -85q-133 0 -196 81q-60 75 -60 218q0 92 20 212z" />
    <glyph glyph-name="w.ss01" horiz-adv-x="665" 
d="M7 491q83 4 150 14l57 -307l76 134h86l75 -137l57 310q82 -11 150 -14l-115 -491h-93l-118 154l-115 -154h-95z" />
    <glyph glyph-name="wacute.ss01" horiz-adv-x="665" 
d="M261 643q124 49 236 122l64 -95q-45 -27 -119.5 -58t-149.5 -48zM7 491q83 4 150 14l57 -307l76 134h86l75 -137l57 310q82 -11 150 -14l-115 -491h-93l-118 154l-115 -154h-95z" />
    <glyph glyph-name="wcircumflex.ss01" horiz-adv-x="665" 
d="M502 563q-85 17 -171 68q-81 -49 -171 -67l-19 102q91 23 190 80q59 -35 95.5 -50.5t94.5 -29.5zM7 491q83 4 150 14l57 -307l76 134h86l75 -137l57 310q82 -11 150 -14l-115 -491h-93l-118 154l-115 -154h-95z" />
    <glyph glyph-name="wdieresis.ss01" horiz-adv-x="665" 
d="M215 733q33 0 56.5 -23t23.5 -56q0 -32 -23.5 -55t-56.5 -23t-56.5 23t-23.5 55q0 33 23.5 56t56.5 23zM448 729q34 0 57 -23t23 -56q0 -32 -23.5 -55t-56.5 -23t-56.5 23t-23.5 55q0 33 23.5 56t56.5 23zM7 491q83 4 150 14l57 -307l76 134h86l75 -137l57 310
q82 -11 150 -14l-115 -491h-93l-118 154l-115 -154h-95z" />
    <glyph glyph-name="wgrave.ss01" horiz-adv-x="665" 
d="M357 564q-75 17 -149.5 48t-119.5 58l64 95q112 -73 236 -122zM7 491q83 4 150 14l57 -307l76 134h86l75 -137l57 310q82 -11 150 -14l-115 -491h-93l-118 154l-115 -154h-95z" />
    <glyph glyph-name="ff.ss01" horiz-adv-x="634" 
d="M11 364v130h70v4q0 113 57 168.5t160 55.5q60 0 100 -14q-20 -16 -34.5 -51t-15.5 -67h-32q-91 0 -91 -93v-3h173v4q0 116 51 170t166 54q21 0 61 -5q-10 -64 -11 -127h-32q-91 0 -91 -93v-3h108q-14 -47 -22 -130h-86v-600h-144v600h-173v-600h-144v600h-70z" />
    <glyph glyph-name="ffi.ss01" horiz-adv-x="877" 
d="M11 364v131h70v3q0 116 51 170t166 54q21 0 61 -5q-10 -64 -11 -127h-32q-91 0 -91 -93v-2h155v3q0 116 51 170t166 54q35 0 75 -5q-20 -13 -31 -40t-11 -56q0 -13 4 -31h-19q-91 0 -91 -93v-2h295v-495h-147v364h-148v-600h-144v600h-155v-600h-144v600h-70zM749 715
q38 0 64.5 -25.5t26.5 -63.5q0 -39 -26.5 -64.5t-64.5 -25.5q-40 0 -66 24t-26 65q0 39 26.5 64.5t65.5 25.5z" />
    <glyph glyph-name="ffl.ss01" horiz-adv-x="910" 
d="M11 364v131h70v3q0 116 51 170t166 54q21 0 61 -5q-10 -64 -11 -127h-32q-91 0 -91 -93v-2h173v3q0 116 51 170t166 54q7 0 34.5 -1.5t38.5 -1.5q78 0 147 16v-571q0 -32 21 -32q11 0 21 5q10 -59 29 -118q-47 -25 -102 -25q-116 0 -116 163v433h-55q-91 0 -91 -93v-2h98
q-16 -55 -22 -131h-76v-600h-144v600h-173v-600h-144v600h-70z" />
    <glyph glyph-name="fi.ss01" horiz-adv-x="578" 
d="M11 364v131h70v3q0 116 51 170t166 54q35 0 75 -5q-20 -13 -31 -40t-11 -56q0 -13 4 -31h-19q-91 0 -91 -93v-2h295v-495h-147v364h-148v-600h-144v600h-70zM450 715q38 0 64.5 -25.5t26.5 -63.5q0 -39 -26.5 -64.5t-64.5 -25.5q-40 0 -66 24t-26 65q0 39 26.5 64.5
t65.5 25.5z" />
    <glyph glyph-name="fl.ss01" horiz-adv-x="593" 
d="M11 364v130h70v4q0 116 51 170t166 54q7 0 34.5 -1.5t38.5 -1.5q78 0 147 16v-571q0 -32 21 -32q11 0 21 5q10 -59 29 -118q-47 -25 -102 -25q-116 0 -116 163v433h-55q-91 0 -91 -93v-3h98q-14 -47 -22 -130h-76v-600h-144v600h-70z" />
    </font>
</defs>
</svg>
